<svg width="138" height="129" viewBox="0 0 138 129" fill="none" xmlns="http://www.w3.org/2000/svg">
<path d="M75.3838 84.7113L95.7059 60.3414C97.0655 58.7109 97.8864 55.916 97.8864 52.9169V6.42888C97.8864 4.32191 95.2525 3.36799 93.9031 4.9859L75.3838 27.1941C73.4418 29.5227 71.2209 30.6873 69 30.6873V88.2046C71.2209 88.2043 73.4418 87.04 75.3838 84.7113Z" fill="url(#paint0_linear_7_58)"/>
<path d="M55.7015 26.4006L16.3528 0.910409C13.1081 -1.19145 8.82436 1.13747 8.82436 5.00341V55.3475C8.82436 58.7225 10.5344 61.8675 13.3669 63.7025L55.7015 91.1269C63.7927 96.3684 74.2076 96.3684 82.2985 91.1269L124.633 63.7025C127.466 61.8675 129.176 58.7225 129.176 55.3475V5.00368C129.176 1.13747 124.892 -1.19145 121.647 0.910678L82.2985 26.4006C74.2074 31.6418 63.7924 31.6418 55.7015 26.4006Z" fill="url(#paint1_linear_7_58)"/>
<path d="M56.8916 34.7457L21.0641 11.5366C18.1097 9.62283 14.2093 11.7432 14.2093 15.2633V61.1022C14.2093 64.1752 15.7662 67.0388 18.3453 68.7097L56.8914 93.6799C64.2583 98.4522 73.7414 98.4522 81.1084 93.6799L119.655 68.7097C122.234 67.0388 123.791 64.1752 123.791 61.1022V15.2636C123.791 11.7435 119.89 9.62283 116.936 11.5369L81.1084 34.746C73.7414 39.518 64.2586 39.518 56.8916 34.7457Z" fill="#3E6E66"/>
<path d="M53.8571 50.0629L9.05114 21.0378C5.35637 18.6444 0.478729 21.2963 0.478729 25.6986V83.0246C0.478729 86.8677 2.42581 90.4491 5.65141 92.5383L53.8573 123.766C63.0704 129.734 74.9299 129.734 84.1429 123.766L132.349 92.5383C135.574 90.4488 137.521 86.8674 137.521 83.0246V25.6986C137.521 21.2963 132.644 18.6444 128.949 21.0378L84.1429 50.0629C74.9297 56.0312 63.0704 56.0312 53.8571 50.0629Z" fill="url(#paint2_linear_7_58)"/>
<path d="M7.33972 61.5536C7.33972 64.1493 8.37085 66.6386 10.2063 68.474C12.0417 70.3095 14.531 71.3406 17.1267 71.3406C19.7224 71.3406 22.2117 70.3095 24.0472 68.474C25.8826 66.6386 26.9137 64.1493 26.9137 61.5536C26.9137 58.9579 25.8826 56.4686 24.0472 54.6331C22.2117 52.7977 19.7224 51.7666 17.1267 51.7666C14.531 51.7666 12.0417 52.7977 10.2063 54.6331C8.37085 56.4686 7.33972 58.9579 7.33972 61.5536Z" fill="url(#paint3_linear_7_58)"/>
<path d="M29.6487 76.4037L27.0379 80.312C27.2791 80.5933 27.6253 80.9104 28.0763 81.2632C28.5253 81.606 28.9635 81.9202 29.3909 82.2057C30.2455 82.7766 31.0717 83.0753 31.8695 83.1018C32.6772 83.1263 33.3308 82.7647 33.8303 82.0168C34.2982 81.3165 34.3958 80.6564 34.1232 80.0365C33.8526 79.4265 33.2365 78.8004 32.275 78.1581L29.6487 76.4037ZM34.7871 68.7117L32.2595 72.4954L34.601 74.0595C35.5209 74.674 36.3036 74.948 36.949 74.8813C37.5944 74.8146 38.1372 74.4518 38.5773 73.793C38.9619 73.2173 39.0288 72.5967 38.778 71.9314C38.5272 71.266 37.9211 70.6121 36.9596 69.9698C36.6391 69.7557 36.2631 69.5218 35.8318 69.268C35.4005 69.0142 35.0523 68.8288 34.7871 68.7117ZM26.0999 86.2262C25.7379 85.9843 25.3185 85.687 24.8417 85.3342C24.365 84.9814 23.8853 84.6008 23.4026 84.1926C22.9239 83.7784 22.4581 83.3513 22.0052 82.9114C21.5622 82.4696 21.1825 82.0228 20.8662 81.5711C19.9924 80.335 19.9262 79.1621 20.6676 78.0522L30.6649 63.0867C30.9662 62.6356 31.3198 62.3697 31.7257 62.2889C32.1415 62.2062 32.6126 62.2333 33.1391 62.3704C34.0337 62.5989 35.0666 63.0186 36.238 63.6294C37.4034 64.2362 38.5648 64.9262 39.7222 65.6994C42.4583 67.5272 44.255 69.3927 45.1124 71.2959C45.9698 73.1991 45.7561 75.1122 44.4715 77.0352C43.8292 77.9967 43.0002 78.6403 41.9843 78.966C40.9625 79.2877 39.8757 79.2956 38.7238 78.9896C39.5939 80.0001 40.1214 81.1379 40.3063 82.403C40.4932 83.6781 40.1882 84.9121 39.3912 86.105C37.9758 88.2239 36.1427 89.2654 33.8919 89.2297C31.647 89.1979 29.0497 88.1967 26.0999 86.2262ZM66.8269 91.3258C66.478 92.8788 65.9299 94.2115 65.1825 95.3238C64.4282 96.4345 63.5269 97.3038 62.4788 97.9315C61.429 98.5662 60.2541 98.9606 58.9538 99.1148C57.6521 99.2758 56.263 99.1905 54.7866 98.8588C53.3033 98.5256 52.0135 97.998 50.9174 97.2763C49.8143 96.5529 48.9257 95.6729 48.2515 94.6363C47.5687 93.605 47.1259 92.4338 46.923 91.1226C46.7202 89.8114 46.7877 88.4037 47.1257 86.8995C47.4574 85.4231 47.9953 84.1357 48.7396 83.0374C49.4838 81.939 50.3851 81.0697 51.4433 80.4296C52.4962 79.781 53.6759 79.3657 54.9823 79.1837C56.2818 79.0002 57.6733 79.075 59.1566 79.4083C60.633 79.74 61.9211 80.2745 63.0211 81.0118C64.121 81.749 65.0089 82.6325 65.6847 83.6622C66.3589 84.6989 66.8009 85.8736 67.0108 87.1863C67.2152 88.4905 67.1539 89.8704 66.8269 91.3258ZM53.6649 88.3687C53.3207 89.9008 53.353 91.1407 53.7619 92.0885C54.1638 93.0347 54.8906 93.626 55.9421 93.8622C57.0007 94.1 57.9051 93.868 58.6553 93.166C59.4056 92.464 59.9497 91.3609 60.2877 89.8566C60.6257 88.3524 60.5972 87.128 60.2022 86.1833C59.8073 85.2387 59.084 84.6482 58.0324 84.4119C56.9809 84.1757 56.0745 84.4 55.3135 85.085C54.5524 85.7699 54.0029 86.8645 53.6649 88.3687ZM92.8697 76.1418L96.9407 95.5258C96.6663 95.9554 96.2171 96.3342 95.5931 96.6622C94.9621 96.9916 94.1821 97.2539 93.2531 97.449C92.324 97.6441 91.4146 97.6893 90.5246 97.5845C89.6362 97.4866 88.8185 96.9618 88.0716 96.0101L82.7312 89.1783C82.1912 88.4822 81.6983 87.8199 81.2527 87.1914C80.8071 86.563 80.3108 85.8321 79.7639 84.9988L79.5526 85.087C79.935 86.4216 80.2814 87.7929 80.5917 89.201C80.9006 90.6021 81.198 91.9837 81.4841 93.3458L82.712 99.1925C82.4473 99.321 82.0401 99.4831 81.4904 99.6788C80.9408 99.8744 80.39 100.03 79.8382 100.146C79.2863 100.262 78.7893 100.326 78.3471 100.339C77.8978 100.353 77.5135 100.277 77.1942 100.111C76.8678 99.9458 76.5902 99.6832 76.3614 99.3228C76.1255 98.9639 75.9416 98.4701 75.8096 97.8415L71.8485 78.9813C72.0922 78.405 72.5543 77.9141 73.2349 77.5086C73.9086 77.1046 74.661 76.8153 75.4923 76.6407C76.4213 76.4456 77.3385 76.4025 78.2439 76.5113C79.1437 76.6287 79.9529 77.1479 80.6715 78.0691L86.0456 84.9048C86.5856 85.601 87.082 86.2625 87.5345 86.8895C87.9801 87.518 88.4729 88.2496 89.0129 89.0843L89.1927 89.0028C88.8103 87.6682 88.4621 86.3228 88.1481 84.9665C87.8425 83.6158 87.5474 82.2628 87.2628 80.9077L85.9777 74.7886C86.2354 74.6615 86.6392 74.5002 87.1888 74.3045C87.7385 74.1088 88.2892 73.9531 88.8411 73.8372C89.9517 73.6039 90.838 73.622 91.5 73.8914C92.1549 74.1623 92.6115 74.9124 92.8697 76.1418ZM119.041 72.3302C119.938 73.6447 120.539 74.9545 120.842 76.2597C121.14 77.569 121.161 78.821 120.905 80.0156C120.653 81.2162 120.14 82.3444 119.366 83.4003C118.596 84.4622 117.586 85.4197 116.336 86.2731C115.081 87.1305 113.815 87.7138 112.54 88.023C111.259 88.3362 110.009 88.3858 108.791 88.1717C107.571 87.9675 106.413 87.4924 105.315 86.7464C104.218 86.0004 103.235 84.9909 102.365 83.7177C101.512 82.4681 100.938 81.1966 100.642 79.9031C100.347 78.6097 100.326 77.3577 100.579 76.1473C100.823 74.9349 101.324 73.789 102.082 72.7095C102.834 71.634 103.838 70.6676 105.094 69.8102C106.343 68.9569 107.613 68.3794 108.902 68.078C110.192 67.7766 111.443 67.7299 112.657 67.9381C113.875 68.1522 115.036 68.6302 116.139 69.3722C117.232 70.1123 118.199 71.0983 119.041 72.3302ZM107.9 79.938C108.786 81.2347 109.715 82.0568 110.687 82.4043C111.653 82.7558 112.581 82.6277 113.471 82.0199C114.367 81.408 114.814 80.5884 114.812 79.5609C114.811 78.5335 114.375 77.3831 113.506 76.11C112.636 74.8368 111.721 74.0224 110.761 73.6669C109.801 73.3113 108.876 73.4375 107.986 74.0453C107.096 74.6531 106.642 75.4689 106.623 76.4926C106.605 77.5163 107.031 78.6648 107.9 79.938Z" fill="#F29506"/>
<defs>
<linearGradient id="paint0_linear_7_58" x1="60.4236" y1="23.8258" x2="81.1914" y2="44.5936" gradientUnits="userSpaceOnUse">
<stop stop-color="#BCE097"/>
<stop offset="1" stop-color="#7DC03A"/>
</linearGradient>
<linearGradient id="paint1_linear_7_58" x1="31.2526" y1="-6.52267" x2="93.6553" y2="55.8798" gradientUnits="userSpaceOnUse">
<stop stop-color="#BCE097"/>
<stop offset="1" stop-color="#7DC03A"/>
</linearGradient>
<linearGradient id="paint2_linear_7_58" x1="55.084" y1="31.0916" x2="114.2" y2="133.202" gradientUnits="userSpaceOnUse">
<stop stop-color="#5A5A5A"/>
<stop offset="1" stop-color="#464646"/>
</linearGradient>
<linearGradient id="paint3_linear_7_58" x1="9.82691" y1="54.2538" x2="22.046" y2="66.4729" gradientUnits="userSpaceOnUse">
<stop stop-color="#F7E07D"/>
<stop offset="0.2892" stop-color="#F3CF6F"/>
<stop offset="0.862" stop-color="#E9A24B"/>
<stop offset="1" stop-color="#E69642"/>
</linearGradient>
</defs>
</svg>
