<svg width="500" height="500" viewBox="0 0 500 500" fill="none" xmlns="http://www.w3.org/2000/svg">
<path d="M425.24 135.11C425.24 135.11 400.91 89.3996 347.18 82.6296C293.45 75.8596 256 108.87 216.41 125.8C195.71 134.66 172.06 131.22 150.08 135.51C79.7999 149.23 53.3299 235.2 82.5999 284.09C107.94 326.41 152.6 348.42 220.47 353.5C288.34 358.58 336 364.5 396.85 323C457.7 281.5 453.62 195.21 425.24 135.11Z" fill="#FF81AE"/>
<path opacity="0.8" d="M425.24 135.11C425.24 135.11 400.91 89.3996 347.18 82.6296C293.45 75.8596 256 108.87 216.41 125.8C195.71 134.66 172.06 131.22 150.08 135.51C79.7999 149.23 53.3299 235.2 82.5999 284.09C107.94 326.41 152.6 348.42 220.47 353.5C288.34 358.58 336 364.5 396.85 323C457.7 281.5 453.62 195.21 425.24 135.11Z" fill="white"/>
<path d="M191.4 407.35C234.87 407.35 270.11 397.406 270.11 385.14C270.11 372.873 234.87 362.93 191.4 362.93C147.93 362.93 112.69 372.873 112.69 385.14C112.69 397.406 147.93 407.35 191.4 407.35Z" fill="#FF81AE"/>
<path opacity="0.53" d="M191.4 407.35C234.87 407.35 270.11 397.406 270.11 385.14C270.11 372.873 234.87 362.93 191.4 362.93C147.93 362.93 112.69 372.873 112.69 385.14C112.69 397.406 147.93 407.35 191.4 407.35Z" fill="white"/>
<path d="M412.62 384.18C412.62 387.91 378.68 390.94 336.81 390.94C294.94 390.94 261 387.94 261 384.18C261 380.42 294.94 377.42 336.81 377.42C378.68 377.42 412.62 380.44 412.62 384.18Z" fill="#FF81AE"/>
<path opacity="0.53" d="M412.62 384.18C412.62 387.91 378.68 390.94 336.81 390.94C294.94 390.94 261 387.94 261 384.18C261 380.42 294.94 377.42 336.81 377.42C378.68 377.42 412.62 380.44 412.62 384.18Z" fill="white"/>
<path d="M266.28 336.68H403.8C409.975 336.68 414.98 331.674 414.98 325.5L414.98 92.8597C414.98 86.6851 409.975 81.6797 403.8 81.6797L266.28 81.6797C260.105 81.6797 255.1 86.6851 255.1 92.8597L255.1 325.5C255.1 331.674 260.105 336.68 266.28 336.68Z" fill="#263238" stroke="#263238" stroke-linecap="round" stroke-linejoin="round"/>
<path d="M398.41 90.3799H271.66C267.579 90.3799 264.27 93.6885 264.27 97.7699V320.59C264.27 324.671 267.579 327.98 271.66 327.98H398.41C402.491 327.98 405.8 324.671 405.8 320.59V97.7699C405.8 93.6885 402.491 90.3799 398.41 90.3799Z" fill="white"/>
<mask id="mask0_31579_6269" style="mask-type:luminance" maskUnits="userSpaceOnUse" x="264" y="90" width="142" height="238">
<path d="M398.41 90.3799H271.66C267.579 90.3799 264.27 93.6885 264.27 97.7699V320.59C264.27 324.671 267.579 327.98 271.66 327.98H398.41C402.491 327.98 405.8 324.671 405.8 320.59V97.7699C405.8 93.6885 402.491 90.3799 398.41 90.3799Z" fill="white"/>
</mask>
<g mask="url(#mask0_31579_6269)">
<path d="M264.27 241.72V320.59C264.27 322.55 265.049 324.429 266.435 325.815C267.82 327.201 269.7 327.98 271.66 327.98H398.41C400.37 327.98 402.25 327.201 403.636 325.815C405.021 324.429 405.8 322.55 405.8 320.59V241.72H264.27Z" fill="#FF81AE"/>
<path opacity="0.53" d="M264.27 241.72V320.59C264.27 322.55 265.049 324.429 266.435 325.815C267.82 327.201 269.7 327.98 271.66 327.98H398.41C400.37 327.98 402.25 327.201 403.636 325.815C405.021 324.429 405.8 322.55 405.8 320.59V241.72H264.27Z" fill="white"/>
<path d="M334.54 187.18C353.594 187.18 369.04 171.734 369.04 152.68C369.04 133.626 353.594 118.18 334.54 118.18C315.486 118.18 300.04 133.626 300.04 152.68C300.04 171.734 315.486 187.18 334.54 187.18Z" fill="#FF81AE"/>
<path opacity="0.53" d="M334.54 187.18C353.594 187.18 369.04 171.734 369.04 152.68C369.04 133.626 353.594 118.18 334.54 118.18C315.486 118.18 300.04 133.626 300.04 152.68C300.04 171.734 315.486 187.18 334.54 187.18Z" fill="white"/>
<path d="M345.36 162.5C344.223 162.507 343.12 162.885 342.217 163.576C341.315 164.267 340.663 165.234 340.36 166.33H326.69C326.444 165.444 325.968 164.638 325.312 163.994C324.655 163.35 323.841 162.89 322.95 162.66V161.1H346.39C346.715 161.103 347.03 160.991 347.281 160.785C347.532 160.578 347.701 160.289 347.76 159.97L350.52 145.45C350.558 145.249 350.552 145.041 350.501 144.843C350.449 144.644 350.355 144.46 350.224 144.302C350.093 144.144 349.929 144.017 349.743 143.931C349.558 143.844 349.355 143.799 349.15 143.8H323V137.27C322.999 136.971 322.9 136.681 322.72 136.443C322.54 136.205 322.287 136.032 322 135.95L314.42 133.53C314.242 133.458 314.05 133.424 313.858 133.429C313.665 133.435 313.476 133.48 313.302 133.562C313.128 133.644 312.972 133.761 312.845 133.905C312.718 134.05 312.623 134.219 312.564 134.403C312.505 134.586 312.485 134.779 312.505 134.971C312.524 135.162 312.583 135.348 312.678 135.515C312.772 135.683 312.9 135.83 313.054 135.946C313.207 136.062 313.383 136.145 313.57 136.19L320.19 138.29V162.72C319.32 162.979 318.532 163.461 317.905 164.118C317.278 164.775 316.833 165.584 316.614 166.465C316.396 167.347 316.41 168.27 316.658 169.144C316.905 170.017 317.376 170.812 318.024 171.448C318.672 172.084 319.475 172.54 320.353 172.771C321.231 173.002 322.155 173 323.032 172.765C323.909 172.53 324.71 172.07 325.355 171.43C326 170.791 326.467 169.995 326.71 169.12H340.35C340.611 170.058 341.129 170.904 341.846 171.562C342.562 172.221 343.449 172.667 344.405 172.848C345.361 173.03 346.349 172.94 347.257 172.59C348.165 172.24 348.958 171.643 349.544 170.866C350.131 170.089 350.489 169.164 350.577 168.195C350.666 167.225 350.481 166.25 350.045 165.38C349.609 164.51 348.938 163.779 348.109 163.27C347.279 162.761 346.323 162.495 345.35 162.5H345.36ZM329.36 146.59H333.36V158.31H329.36V146.59ZM336.16 146.59H340.16V158.31H336.16V146.59ZM345.27 158.32H342.95V146.59H347.5L345.27 158.32ZM326.57 146.59V158.31H323V146.59H326.57ZM321.69 170.16C321.207 170.16 320.736 170.017 320.334 169.749C319.933 169.481 319.62 169.099 319.436 168.654C319.251 168.208 319.203 167.717 319.297 167.244C319.391 166.771 319.623 166.336 319.965 165.995C320.306 165.653 320.741 165.421 321.214 165.327C321.687 165.233 322.178 165.281 322.624 165.466C323.07 165.65 323.451 165.963 323.719 166.364C323.987 166.766 324.13 167.237 324.13 167.72C324.13 168.043 324.066 168.363 323.941 168.661C323.817 168.959 323.635 169.229 323.405 169.456C323.175 169.683 322.903 169.862 322.603 169.983C322.304 170.104 321.983 170.164 321.66 170.16H321.69ZM345.39 170.16C344.907 170.16 344.436 170.017 344.034 169.749C343.633 169.481 343.32 169.099 343.136 168.654C342.951 168.208 342.903 167.717 342.997 167.244C343.091 166.771 343.323 166.336 343.665 165.995C344.006 165.653 344.441 165.421 344.914 165.327C345.387 165.233 345.878 165.281 346.324 165.466C346.77 165.65 347.151 165.963 347.419 166.364C347.687 166.766 347.83 167.237 347.83 167.72C347.83 168.043 347.766 168.363 347.642 168.661C347.517 168.959 347.335 169.229 347.105 169.456C346.875 169.683 346.603 169.862 346.303 169.983C346.004 170.104 345.683 170.164 345.36 170.16H345.39Z" fill="#263238"/>
<path d="M351.79 152.67C357.418 152.67 361.98 148.108 361.98 142.48C361.98 136.852 357.418 132.29 351.79 132.29C346.162 132.29 341.6 136.852 341.6 142.48C341.6 148.108 346.162 152.67 351.79 152.67Z" fill="white" stroke="#263238" stroke-width="2" stroke-miterlimit="10"/>
<path d="M347.08 141.31L351 146.8L358.06 137.78" stroke="#263238" stroke-width="3" stroke-linecap="round" stroke-linejoin="round"/>
<path d="M369.54 205.68H299.04C297.383 205.68 296.04 207.023 296.04 208.68V226.68C296.04 228.337 297.383 229.68 299.04 229.68H369.54C371.197 229.68 372.54 228.337 372.54 226.68V208.68C372.54 207.023 371.197 205.68 369.54 205.68Z" fill="#FF81AE"/>
<path d="M329 215.59V212.79C328.996 212.631 329.049 212.475 329.15 212.35C329.235 212.236 329.36 212.157 329.5 212.13C329.636 212.106 329.775 212.106 329.91 212.13C330.047 212.165 330.167 212.246 330.25 212.36C330.351 212.481 330.405 212.634 330.4 212.79V212.95C330.44 212.839 330.49 212.732 330.55 212.63C330.62 212.526 330.697 212.426 330.78 212.33C330.873 212.229 330.985 212.147 331.11 212.09C331.235 212.03 331.372 211.999 331.51 212C331.608 211.996 331.706 212.021 331.79 212.07C331.87 212.101 331.937 212.157 331.98 212.23C332.022 212.298 332.049 212.372 332.06 212.45C332.086 212.532 332.086 212.619 332.06 212.7C332.042 212.778 332.012 212.853 331.97 212.92C331.929 212.994 331.866 213.053 331.79 213.09C331.709 213.13 331.62 213.151 331.53 213.15C331.247 213.149 330.971 213.236 330.74 213.4C330.634 213.481 330.548 213.585 330.491 213.705C330.434 213.825 330.406 213.957 330.41 214.09V215.61C330.429 215.851 330.374 216.093 330.25 216.3C330.185 216.379 330.102 216.44 330.008 216.478C329.914 216.516 329.811 216.531 329.71 216.52C329.24 216.53 329 216.22 329 215.59Z" fill="black"/>
<path d="M343 215.59V212.79C342.996 212.631 343.049 212.475 343.15 212.35C343.235 212.236 343.36 212.157 343.5 212.13C343.636 212.106 343.775 212.106 343.91 212.13C344.047 212.165 344.167 212.246 344.25 212.36C344.351 212.481 344.405 212.634 344.4 212.79V212.95C344.44 212.839 344.49 212.732 344.55 212.63C344.62 212.526 344.697 212.426 344.78 212.33C344.873 212.229 344.985 212.147 345.11 212.09C345.235 212.03 345.372 211.999 345.51 212C345.608 211.996 345.706 212.021 345.79 212.07C345.87 212.101 345.937 212.157 345.98 212.23C346.022 212.298 346.049 212.372 346.06 212.45C346.086 212.532 346.086 212.619 346.06 212.7C346.042 212.778 346.012 212.853 345.97 212.92C345.929 212.994 345.866 213.053 345.79 213.09C345.709 213.13 345.62 213.151 345.53 213.15C345.247 213.149 344.971 213.236 344.74 213.4C344.634 213.481 344.548 213.585 344.491 213.705C344.434 213.825 344.406 213.957 344.41 214.09V215.61C344.429 215.851 344.374 216.093 344.25 216.3C344.185 216.379 344.102 216.44 344.008 216.478C343.914 216.516 343.811 216.531 343.71 216.52C343.24 216.53 343 216.22 343 215.59Z" fill="black"/>
<path d="M339.151 216.301C338.799 216.137 338.505 215.868 338.311 215.531C338.094 215.148 337.987 214.712 338.001 214.271C337.993 213.867 338.089 213.467 338.281 213.111C338.477 212.77 338.76 212.487 339.101 212.291C339.472 212.09 339.89 211.99 340.311 212.001C340.633 211.991 340.953 212.049 341.251 212.171C341.505 212.27 341.728 212.431 341.901 212.641C342.059 212.844 342.177 213.075 342.251 213.321C342.334 213.587 342.374 213.863 342.371 214.141C342.371 214.381 342.221 214.501 341.931 214.501H339.381C339.369 214.652 339.391 214.803 339.446 214.944C339.5 215.085 339.586 215.212 339.697 215.315C339.807 215.418 339.94 215.495 340.085 215.539C340.229 215.583 340.382 215.594 340.531 215.571C340.737 215.572 340.941 215.531 341.131 215.451C341.314 215.381 341.484 215.28 341.631 215.151C341.688 215.12 341.752 215.103 341.816 215.103C341.881 215.103 341.945 215.12 342.001 215.151C342.066 215.186 342.123 215.234 342.168 215.293C342.213 215.352 342.245 215.419 342.261 215.491C342.289 215.559 342.295 215.634 342.279 215.705C342.263 215.777 342.225 215.842 342.171 215.891C342.08 215.974 341.983 216.051 341.881 216.121L341.521 216.331C341.36 216.412 341.188 216.469 341.011 216.501C340.8 216.542 340.586 216.562 340.371 216.561C339.95 216.568 339.533 216.479 339.151 216.301ZM341.201 213.861C341.202 213.586 341.126 213.316 340.981 213.081C340.903 212.984 340.801 212.907 340.686 212.858C340.571 212.81 340.446 212.79 340.321 212.801C340.195 212.796 340.07 212.82 339.955 212.872C339.841 212.924 339.74 213.003 339.661 213.101C339.492 213.319 339.398 213.585 339.391 213.861H341.201Z" fill="black"/>
<path d="M311.33 224.55C311.064 224.463 310.816 224.327 310.6 224.15C310.373 223.953 310.195 223.707 310.08 223.43C309.946 223.113 309.878 222.773 309.88 222.43C309.876 222.016 309.983 221.608 310.19 221.25C310.394 220.908 310.683 220.625 311.03 220.43C311.401 220.239 311.813 220.143 312.23 220.15C312.5 220.15 312.77 220.187 313.03 220.26C313.243 220.323 313.443 220.424 313.62 220.56C313.707 220.633 313.769 220.731 313.8 220.84C313.829 220.938 313.829 221.042 313.8 221.14C313.77 221.228 313.73 221.312 313.68 221.39C313.62 221.463 313.534 221.51 313.44 221.52C313.336 221.527 313.233 221.506 313.14 221.46C312.894 221.318 312.613 221.249 312.33 221.26C312.05 221.264 311.781 221.375 311.58 221.57C311.478 221.685 311.4 221.82 311.352 221.966C311.304 222.112 311.286 222.266 311.3 222.42C311.301 222.614 311.334 222.807 311.4 222.99C311.474 223.163 311.595 223.312 311.75 223.42C311.924 223.537 312.13 223.596 312.34 223.59C312.629 223.587 312.914 223.515 313.17 223.38C313.262 223.33 313.367 223.313 313.47 223.33C313.516 223.334 313.561 223.349 313.601 223.373C313.641 223.398 313.675 223.431 313.7 223.47C313.759 223.551 313.803 223.643 313.83 223.74C313.859 223.841 313.859 223.949 313.83 224.05C313.795 224.16 313.729 224.257 313.64 224.33C313.454 224.464 313.243 224.559 313.02 224.61C312.745 224.679 312.463 224.712 312.18 224.71C311.889 224.708 311.601 224.654 311.33 224.55Z" fill="black"/>
<path d="M315.09 224.07C314.877 223.853 314.711 223.595 314.602 223.311C314.494 223.027 314.445 222.723 314.46 222.42C314.457 222.117 314.508 221.815 314.61 221.53C314.709 221.261 314.858 221.013 315.05 220.8C315.263 220.581 315.523 220.413 315.81 220.31C316.153 220.185 316.515 220.124 316.88 220.13C317.205 220.107 317.531 220.151 317.838 220.257C318.146 220.364 318.429 220.531 318.67 220.75C318.884 220.97 319.051 221.232 319.162 221.519C319.272 221.806 319.322 222.113 319.31 222.42C319.312 222.723 319.262 223.024 319.16 223.31C319.059 223.574 318.906 223.816 318.71 224.02C318.499 224.241 318.239 224.409 317.95 224.51C317.607 224.634 317.245 224.695 316.88 224.69C316.555 224.714 316.229 224.671 315.921 224.565C315.613 224.458 315.33 224.29 315.09 224.07ZM317.61 223.42C317.798 223.121 317.889 222.772 317.87 222.42C317.886 222.068 317.795 221.719 317.61 221.42C317.524 221.308 317.414 221.217 317.287 221.155C317.16 221.092 317.021 221.06 316.88 221.06C316.739 221.06 316.6 221.092 316.473 221.155C316.347 221.217 316.236 221.308 316.15 221.42C315.968 221.72 315.881 222.069 315.9 222.42C315.877 222.771 315.965 223.121 316.15 223.42C316.235 223.534 316.345 223.626 316.472 223.69C316.598 223.753 316.738 223.786 316.88 223.786C317.022 223.786 317.162 223.753 317.289 223.69C317.415 223.626 317.525 223.534 317.61 223.42Z" fill="black"/>
<path d="M322.782 216.178C322.518 215.894 322.313 215.554 322.179 215.182C322.045 214.809 321.985 214.411 322.003 214.013C321.999 213.615 322.062 213.219 322.189 212.845C322.311 212.492 322.496 212.167 322.732 211.887C322.995 211.599 323.317 211.379 323.672 211.244C324.095 211.08 324.544 211 324.994 211.007C325.396 210.978 325.799 211.035 326.179 211.175C326.559 211.315 326.909 211.534 327.207 211.821C327.472 212.11 327.678 212.454 327.814 212.831C327.95 213.207 328.013 213.609 327.998 214.013C328.001 214.41 327.938 214.806 327.812 215.18C327.688 215.528 327.499 215.845 327.256 216.112C326.996 216.403 326.674 216.623 326.317 216.755C325.893 216.919 325.445 216.999 324.994 216.991C324.593 217.023 324.189 216.967 323.809 216.827C323.428 216.687 323.079 216.466 322.782 216.178ZM325.897 215.325C326.129 214.933 326.242 214.475 326.218 214.013C326.238 213.551 326.126 213.093 325.897 212.7C325.79 212.553 325.654 212.434 325.497 212.352C325.341 212.27 325.169 212.228 324.994 212.228C324.82 212.228 324.648 212.27 324.491 212.352C324.335 212.434 324.198 212.553 324.092 212.7C323.867 213.095 323.76 213.552 323.783 214.013C323.755 214.473 323.863 214.932 324.092 215.325C324.197 215.474 324.333 215.595 324.489 215.679C324.646 215.762 324.819 215.806 324.994 215.806C325.17 215.806 325.343 215.762 325.499 215.679C325.656 215.595 325.792 215.474 325.897 215.325Z" fill="black"/>
<path d="M320.35 224.4C320.228 224.188 320.173 223.944 320.19 223.7V221.12C320.176 220.88 320.231 220.64 320.35 220.43C320.415 220.355 320.497 220.296 320.589 220.258C320.681 220.219 320.781 220.203 320.88 220.21C320.978 220.201 321.076 220.213 321.168 220.246C321.26 220.28 321.343 220.334 321.411 220.404C321.48 220.474 321.531 220.559 321.562 220.652C321.593 220.745 321.603 220.843 321.59 220.94V221C321.683 220.716 321.879 220.477 322.14 220.33C322.425 220.176 322.746 220.1 323.07 220.11C323.217 220.099 323.364 220.099 323.51 220.11C323.644 220.14 323.775 220.184 323.9 220.24C324.028 220.314 324.141 220.413 324.23 220.53C324.325 220.683 324.399 220.848 324.45 221.02C324.534 220.843 324.642 220.679 324.77 220.53C324.888 220.41 325.027 220.312 325.18 220.24C325.321 220.18 325.469 220.137 325.62 220.11C325.777 220.099 325.934 220.099 326.09 220.11C326.286 220.102 326.482 220.135 326.665 220.208C326.847 220.28 327.013 220.39 327.15 220.53C327.442 220.863 327.589 221.299 327.56 221.74V223.67C327.574 223.914 327.519 224.157 327.4 224.37C327.338 224.453 327.256 224.518 327.161 224.56C327.067 224.602 326.963 224.619 326.86 224.61C326.39 224.61 326.16 224.3 326.16 223.67V221.82C326.173 221.607 326.105 221.396 325.97 221.23C325.909 221.158 325.832 221.101 325.745 221.063C325.659 221.025 325.565 221.007 325.47 221.01C325.351 221.008 325.233 221.029 325.123 221.074C325.013 221.119 324.913 221.186 324.83 221.27C324.654 221.464 324.561 221.719 324.57 221.98V223.67C324.591 223.916 324.532 224.162 324.4 224.37C324.338 224.453 324.256 224.518 324.161 224.56C324.067 224.602 323.963 224.619 323.86 224.61C323.4 224.61 323.17 224.3 323.17 223.67V222C323.186 221.763 323.123 221.527 322.99 221.33C322.931 221.252 322.854 221.189 322.765 221.147C322.676 221.105 322.578 221.086 322.48 221.09C322.245 221.081 322.016 221.164 321.84 221.32C321.754 221.402 321.686 221.501 321.643 221.612C321.6 221.723 321.582 221.842 321.59 221.96V223.75C321.59 224.38 321.35 224.69 320.86 224.69C320.757 224.694 320.654 224.669 320.564 224.617C320.474 224.566 320.4 224.491 320.35 224.4Z" fill="black"/>
<path d="M328.75 226C328.636 225.785 328.584 225.542 328.6 225.3V221.19C328.587 220.935 328.646 220.682 328.77 220.46C328.829 220.372 328.91 220.3 329.004 220.253C329.099 220.206 329.204 220.184 329.31 220.19C329.403 220.185 329.496 220.2 329.582 220.234C329.669 220.269 329.746 220.322 329.81 220.39C329.932 220.523 329.997 220.699 329.99 220.88V221C330.108 220.731 330.312 220.509 330.57 220.37C330.938 220.188 331.354 220.128 331.759 220.198C332.163 220.269 332.535 220.465 332.82 220.76C333.21 221.245 333.402 221.859 333.36 222.48C333.364 222.82 333.31 223.158 333.2 223.48C333.115 223.747 332.967 223.99 332.77 224.19C332.594 224.368 332.383 224.507 332.15 224.6C331.909 224.697 331.65 224.744 331.39 224.74C331.091 224.749 330.794 224.68 330.53 224.54C330.295 224.421 330.105 224.227 329.99 223.99V225.37C329.99 226 329.75 226.31 329.27 226.31C329.163 226.311 329.058 226.282 328.966 226.228C328.875 226.173 328.8 226.094 328.75 226ZM331.75 223.38C331.937 223.08 332.027 222.732 332.01 222.38C332.026 222.22 332.026 222.059 332.01 221.9C331.975 221.75 331.921 221.606 331.85 221.47C331.779 221.336 331.672 221.225 331.54 221.15C331.381 221.042 331.192 220.989 331 221C330.3 221 330 221.46 330 222.37C329.984 222.722 330.074 223.07 330.26 223.37C330.35 223.481 330.465 223.569 330.595 223.628C330.725 223.687 330.867 223.715 331.01 223.71C331.151 223.725 331.294 223.704 331.425 223.65C331.556 223.596 331.671 223.51 331.76 223.4L331.75 223.38Z" fill="black"/>
<path d="M334.47 224.4C334.351 224.187 334.296 223.944 334.31 223.7V219.19C334.296 218.947 334.351 218.704 334.47 218.49C334.526 218.409 334.603 218.344 334.693 218.301C334.782 218.259 334.881 218.242 334.98 218.25C335.084 218.241 335.189 218.259 335.285 218.301C335.381 218.343 335.465 218.408 335.53 218.49C335.665 218.698 335.728 218.944 335.71 219.19V223.7C335.728 223.947 335.665 224.193 335.53 224.4C335.465 224.483 335.381 224.548 335.285 224.59C335.189 224.632 335.084 224.649 334.98 224.64C334.881 224.649 334.782 224.631 334.693 224.589C334.603 224.547 334.526 224.482 334.47 224.4Z" fill="black"/>
<path d="M337.74 224.44C337.386 224.278 337.092 224.009 336.9 223.67C336.68 223.287 336.569 222.851 336.58 222.41C336.575 222.005 336.675 221.605 336.87 221.25C337.061 220.905 337.345 220.62 337.69 220.43C338.057 220.229 338.471 220.129 338.89 220.14C339.215 220.13 339.539 220.188 339.84 220.31C340.092 220.406 340.313 220.568 340.48 220.78C340.643 220.981 340.765 221.212 340.84 221.46C340.923 221.725 340.963 222.002 340.96 222.28C340.96 222.52 340.81 222.64 340.51 222.64H338C337.988 222.79 338.01 222.942 338.064 223.083C338.119 223.224 338.205 223.351 338.316 223.454C338.426 223.557 338.559 223.633 338.703 223.678C338.848 223.722 339.001 223.733 339.15 223.71C339.353 223.71 339.553 223.669 339.74 223.59C339.925 223.518 340.098 223.417 340.25 223.29C340.305 223.258 340.367 223.242 340.43 223.242C340.493 223.242 340.555 223.258 340.61 223.29C340.678 223.322 340.737 223.37 340.784 223.429C340.831 223.488 340.864 223.556 340.88 223.63C340.904 223.699 340.907 223.774 340.889 223.845C340.871 223.915 340.833 223.98 340.78 224.03C340.692 224.113 340.599 224.19 340.5 224.26L340.14 224.47C339.976 224.552 339.801 224.609 339.62 224.64C339.409 224.682 339.195 224.702 338.98 224.7C338.552 224.712 338.127 224.622 337.74 224.44ZM339.79 222C339.788 221.723 339.709 221.453 339.56 221.22C339.483 221.124 339.383 221.048 339.27 220.999C339.156 220.951 339.033 220.93 338.91 220.94C338.783 220.934 338.656 220.959 338.54 221.011C338.423 221.063 338.321 221.141 338.24 221.24C338.071 221.458 337.977 221.724 337.97 222H339.79Z" fill="black"/>
<path d="M342.49 224.3C342.217 223.932 342.088 223.476 342.13 223.02V221.15H341.86C341.795 221.155 341.73 221.147 341.668 221.126C341.606 221.105 341.549 221.073 341.5 221.03C341.411 220.92 341.368 220.78 341.38 220.64C341.372 220.576 341.378 220.512 341.399 220.452C341.419 220.391 341.454 220.336 341.5 220.292C341.545 220.247 341.601 220.214 341.662 220.194C341.723 220.175 341.787 220.17 341.85 220.18H342.22L342.32 219.33C342.37 218.78 342.6 218.51 342.99 218.51C343.38 218.51 343.53 218.81 343.53 219.4V220.18H344.07C344.38 220.18 344.53 220.35 344.53 220.68C344.536 220.743 344.528 220.807 344.508 220.868C344.487 220.928 344.454 220.983 344.41 221.03C344.36 221.073 344.301 221.107 344.237 221.127C344.174 221.148 344.107 221.155 344.04 221.15H343.53V222.71C343.509 222.977 343.557 223.246 343.67 223.49C343.75 223.64 343.91 223.7 344.15 223.69H344.4C344.44 223.685 344.48 223.689 344.518 223.701C344.556 223.713 344.591 223.733 344.62 223.76C344.683 223.811 344.729 223.881 344.75 223.96C344.761 224.039 344.761 224.12 344.75 224.2C344.743 224.285 344.716 224.367 344.67 224.44C344.63 224.51 344.566 224.563 344.49 224.59C344.166 224.686 343.828 224.726 343.49 224.71C343.305 224.711 343.121 224.676 342.949 224.605C342.777 224.535 342.621 224.431 342.49 224.3Z" fill="black"/>
<path d="M346.45 224.44C346.098 224.276 345.804 224.007 345.61 223.67C345.393 223.286 345.286 222.85 345.3 222.41C345.292 222.005 345.388 221.606 345.58 221.25C345.776 220.909 346.059 220.626 346.4 220.43C346.771 220.229 347.188 220.129 347.61 220.14C347.932 220.13 348.252 220.188 348.55 220.31C348.805 220.405 349.029 220.568 349.2 220.78C349.359 220.982 349.478 221.213 349.55 221.46C349.633 221.725 349.673 222.002 349.67 222.28C349.67 222.52 349.52 222.64 349.23 222.64H346.68C346.668 222.79 346.69 222.942 346.744 223.083C346.799 223.224 346.885 223.351 346.996 223.454C347.106 223.557 347.239 223.633 347.383 223.678C347.528 223.722 347.681 223.733 347.83 223.71C348.036 223.711 348.24 223.67 348.43 223.59C348.611 223.516 348.78 223.415 348.93 223.29C348.987 223.258 349.05 223.242 349.115 223.242C349.18 223.242 349.244 223.258 349.3 223.29C349.365 223.325 349.422 223.373 349.467 223.432C349.512 223.49 349.543 223.558 349.56 223.63C349.588 223.698 349.594 223.772 349.578 223.844C349.562 223.915 349.524 223.98 349.47 224.03C349.379 224.113 349.282 224.19 349.18 224.26L348.82 224.47C348.659 224.55 348.487 224.607 348.31 224.64C348.099 224.681 347.885 224.701 347.67 224.7C347.249 224.707 346.832 224.618 346.45 224.44ZM348.5 222C348.501 221.724 348.425 221.454 348.28 221.22C348.203 221.124 348.103 221.048 347.99 221C347.876 220.951 347.753 220.93 347.63 220.94C347.503 220.934 347.376 220.957 347.259 221.01C347.143 221.062 347.04 221.141 346.96 221.24C346.791 221.458 346.697 221.724 346.69 222H348.5Z" fill="black"/>
<path d="M350.89 224.13C350.51 223.644 350.321 223.036 350.36 222.42C350.355 222.081 350.406 221.743 350.51 221.42C350.602 221.159 350.748 220.92 350.94 220.72C351.116 220.539 351.327 220.396 351.56 220.3C351.803 220.211 352.061 220.167 352.32 220.17C352.619 220.159 352.916 220.228 353.18 220.37C353.418 220.486 353.609 220.68 353.72 220.92V219.18C353.705 218.932 353.764 218.685 353.89 218.47C353.959 218.391 354.045 218.328 354.142 218.289C354.24 218.249 354.345 218.232 354.45 218.24C354.547 218.234 354.645 218.251 354.734 218.291C354.823 218.331 354.901 218.393 354.96 218.47C355.074 218.689 355.126 218.934 355.11 219.18V223.65C355.122 223.905 355.063 224.157 354.94 224.38C354.882 224.466 354.803 224.536 354.71 224.581C354.617 224.627 354.513 224.647 354.41 224.64C354.316 224.647 354.222 224.633 354.134 224.6C354.046 224.568 353.967 224.516 353.9 224.45C353.777 224.314 353.712 224.134 353.72 223.95C353.593 224.22 353.385 224.444 353.126 224.591C352.866 224.738 352.567 224.801 352.27 224.77C352.006 224.775 351.745 224.72 351.506 224.609C351.267 224.498 351.056 224.335 350.89 224.13ZM353.72 222.45C353.74 222.097 353.645 221.746 353.45 221.45C353.362 221.336 353.248 221.245 353.118 221.184C352.987 221.123 352.844 221.094 352.7 221.1C352.553 221.093 352.406 221.125 352.275 221.191C352.143 221.258 352.031 221.357 351.95 221.48C351.767 221.781 351.676 222.129 351.69 222.48C351.69 222.646 351.71 222.81 351.75 222.97C351.782 223.124 351.836 223.272 351.91 223.41C351.979 223.548 352.082 223.665 352.21 223.75C352.349 223.832 352.509 223.873 352.67 223.87C353.37 223.864 353.72 223.39 353.72 222.45Z" fill="black"/>
<path d="M333.035 215.892C332.655 215.406 332.466 214.798 332.505 214.182C332.5 213.843 332.551 213.505 332.655 213.182C332.747 212.921 332.893 212.682 333.085 212.482C333.261 212.301 333.472 212.158 333.705 212.062C333.948 211.973 334.206 211.929 334.465 211.932C334.764 211.921 335.061 211.99 335.325 212.132C335.563 212.248 335.754 212.442 335.865 212.682V210.942C335.85 210.694 335.909 210.447 336.035 210.232C336.104 210.152 336.19 210.09 336.287 210.05C336.385 210.01 336.49 209.994 336.595 210.002C336.692 209.995 336.79 210.013 336.879 210.053C336.968 210.093 337.046 210.155 337.105 210.232C337.219 210.45 337.271 210.696 337.255 210.942V215.412C337.267 215.666 337.208 215.919 337.085 216.142C337.027 216.228 336.948 216.297 336.855 216.343C336.762 216.389 336.658 216.409 336.555 216.402C336.461 216.408 336.367 216.395 336.279 216.362C336.191 216.329 336.112 216.278 336.045 216.212C335.922 216.076 335.857 215.896 335.865 215.712C335.738 215.982 335.53 216.206 335.271 216.353C335.011 216.5 334.712 216.563 334.415 216.532C334.151 216.537 333.89 216.482 333.651 216.371C333.412 216.26 333.202 216.096 333.035 215.892ZM335.865 214.212C335.885 213.858 335.79 213.508 335.595 213.212C335.507 213.098 335.393 213.007 335.263 212.946C335.132 212.885 334.989 212.856 334.845 212.862C334.698 212.855 334.551 212.886 334.42 212.953C334.288 213.019 334.176 213.119 334.095 213.242C333.912 213.543 333.821 213.89 333.835 214.242C333.835 214.407 333.855 214.572 333.895 214.732C333.927 214.886 333.981 215.034 334.055 215.172C334.124 215.309 334.227 215.427 334.355 215.512C334.494 215.594 334.654 215.635 334.815 215.632C335.515 215.625 335.865 215.152 335.865 214.212Z" fill="black"/>
<path d="M356.55 218.78C356.516 218.634 356.536 218.481 356.605 218.349C356.675 218.217 356.791 218.114 356.93 218.06C357.07 217.99 357.224 217.953 357.38 217.953C357.536 217.953 357.691 217.99 357.83 218.06C357.969 218.116 358.084 218.218 358.155 218.35C358.227 218.481 358.25 218.633 358.22 218.78L357.81 222.03C357.798 222.151 357.745 222.264 357.66 222.35C357.585 222.422 357.484 222.461 357.38 222.46C357.33 222.46 357.28 222.451 357.234 222.432C357.188 222.413 357.146 222.385 357.11 222.35C357.068 222.303 357.036 222.248 357.017 222.187C356.998 222.127 356.992 222.063 357 222L356.55 218.78ZM356.87 224.45C356.798 224.383 356.74 224.3 356.702 224.209C356.664 224.118 356.647 224.019 356.65 223.92C356.648 223.822 356.666 223.725 356.702 223.634C356.738 223.543 356.792 223.46 356.86 223.39C356.927 223.318 357.01 223.26 357.101 223.222C357.193 223.184 357.291 223.167 357.39 223.17C357.486 223.169 357.582 223.186 357.671 223.222C357.761 223.258 357.842 223.312 357.91 223.38C357.983 223.449 358.041 223.533 358.079 223.626C358.117 223.719 358.134 223.82 358.13 223.92C358.132 224.117 358.056 224.307 357.92 224.45C357.851 224.519 357.77 224.574 357.679 224.612C357.589 224.649 357.493 224.669 357.395 224.669C357.298 224.669 357.201 224.649 357.111 224.612C357.021 224.574 356.939 224.519 356.87 224.45Z" fill="black"/>
<path d="M280.17 262.109H388.54" stroke="#263238" stroke-linecap="round" stroke-linejoin="round"/>
<path d="M280.17 275.05H388.54" stroke="#263238" stroke-linecap="round" stroke-linejoin="round"/>
<path d="M280.17 287.99H388.54" stroke="#263238" stroke-linecap="round" stroke-linejoin="round"/>
<path d="M280.17 300.93H388.54" stroke="#263238" stroke-linecap="round" stroke-linejoin="round"/>
<path d="M398.41 90.3799H271.66C269.7 90.3799 267.82 91.1585 266.435 92.5444C265.049 93.9303 264.27 95.8099 264.27 97.7699V103.05H346L350.31 98.1999H405.8V97.7699C405.8 95.8099 405.021 93.9303 403.636 92.5444C402.25 91.1585 400.37 90.3799 398.41 90.3799Z" fill="#FF81AE"/>
</g>
<path d="M398.41 90.3799H271.66C267.579 90.3799 264.27 93.6885 264.27 97.7699V320.59C264.27 324.671 267.579 327.98 271.66 327.98H398.41C402.491 327.98 405.8 324.671 405.8 320.59V97.7699C405.8 93.6885 402.491 90.3799 398.41 90.3799Z" stroke="#263238" stroke-linecap="round" stroke-linejoin="round"/>
<path d="M412.73 296.5V304.08C412.73 304.175 412.749 304.27 412.786 304.359C412.822 304.447 412.876 304.528 412.944 304.596C413.012 304.664 413.092 304.717 413.181 304.754C413.269 304.791 413.364 304.81 413.46 304.81C413.556 304.811 413.652 304.793 413.741 304.757C413.83 304.721 413.911 304.667 413.979 304.599C414.047 304.531 414.101 304.45 414.137 304.36C414.173 304.271 414.191 304.176 414.19 304.08V296.5C414.19 296.306 414.113 296.12 413.976 295.983C413.839 295.846 413.654 295.77 413.46 295.77C413.266 295.77 413.081 295.846 412.944 295.983C412.807 296.12 412.73 296.306 412.73 296.5Z" fill="white"/>
<path d="M412.73 267.439V283.049C412.748 283.227 412.834 283.391 412.97 283.507C413.106 283.622 413.282 283.681 413.46 283.669C413.639 283.683 413.816 283.626 413.953 283.51C414.089 283.394 414.175 283.228 414.19 283.049V267.439C414.175 267.261 414.089 267.095 413.953 266.979C413.816 266.863 413.639 266.806 413.46 266.819C413.282 266.808 413.106 266.867 412.97 266.982C412.834 267.098 412.748 267.262 412.73 267.439Z" fill="white"/>
<path d="M110.17 313.79C110.17 313.79 114.17 303.79 100.84 277.79C87.5099 251.79 100.17 209.79 100.17 209.79" stroke="#FF81AE" stroke-miterlimit="10"/>
<path d="M118.17 316.46C118.17 316.46 122.84 306.46 117.5 291.79C112.16 277.12 113.58 268.79 113.58 268.79" stroke="#FF81AE" stroke-miterlimit="10"/>
<path d="M97.89 271.14C97.89 271.14 87.5 258.46 83.5 243.14C79.5 227.82 79.5 220.48 79.5 220.48" stroke="#FF81AE" stroke-miterlimit="10"/>
<path d="M104.17 311.12C104.17 311.12 99.5 305.12 98.17 287.12C97.3984 276.123 98.5249 265.075 101.5 254.46" stroke="#FF81AE" stroke-miterlimit="10"/>
<path d="M99.0398 367.65H122.77L125.73 309.27H96.0698L99.0398 367.65Z" fill="white"/>
<path opacity="0.17" d="M99.0398 367.65H122.77L125.73 309.27H96.0698L99.0398 367.65Z" fill="black"/>
<path d="M104.94 277.73C104.94 278.13 105.54 278.43 105.64 278.81C105.74 279.19 105.42 279.72 105.57 280.08C105.72 280.44 106.32 280.59 106.57 280.93C106.82 281.27 106.57 281.87 106.83 282.18C107.09 282.49 107.69 282.48 107.97 282.76C108.25 283.04 108.24 283.66 108.55 283.9C108.86 284.14 109.46 283.97 109.8 284.17C110.14 284.37 110.29 284.97 110.65 285.12C111.01 285.27 111.55 284.95 111.93 285.05C112.31 285.15 112.61 285.69 113 285.75C113.39 285.81 113.82 285.35 114.22 285.35C114.62 285.35 115.04 285.8 115.43 285.75C115.82 285.7 116.12 285.15 116.5 285.05C116.88 284.95 117.42 285.27 117.78 285.12C118.14 284.97 118.29 284.36 118.63 284.17C118.97 283.98 119.57 284.17 119.88 283.9C120.19 283.63 120.18 283.04 120.46 282.76C120.74 282.48 121.36 282.5 121.6 282.18C121.84 281.86 121.66 281.28 121.86 280.93C122.06 280.58 122.66 280.45 122.86 280.08C123.06 279.71 122.69 279.19 122.8 278.81C122.91 278.43 123.44 278.13 123.49 277.73C123.54 277.33 123.1 276.92 123.1 276.52C123.1 276.12 123.54 275.69 123.49 275.31C123.44 274.93 122.9 274.61 122.8 274.23C122.7 273.85 123.02 273.32 122.87 272.96C122.72 272.6 122.11 272.45 121.87 272.11C121.63 271.77 121.87 271.17 121.61 270.86C121.35 270.55 120.75 270.56 120.47 270.28C120.19 270 120.21 269.38 119.89 269.14C119.57 268.9 118.99 269.07 118.64 268.87C118.29 268.67 118.16 268.07 117.79 267.92C117.42 267.77 116.9 268.09 116.51 267.99C116.12 267.89 115.84 267.35 115.44 267.29C115.04 267.23 114.63 267.69 114.23 267.69C113.83 267.69 113.4 267.24 113.01 267.29C112.62 267.34 112.32 267.89 111.94 267.99C111.56 268.09 111.03 267.77 110.67 267.92C110.31 268.07 110.15 268.67 109.81 268.87C109.47 269.07 108.88 268.87 108.56 269.14C108.24 269.41 108.26 270 107.98 270.28C107.7 270.56 107.09 270.54 106.85 270.85C106.61 271.16 106.78 271.76 106.58 272.1C106.38 272.44 105.78 272.59 105.58 272.96C105.38 273.33 105.75 273.85 105.65 274.23C105.55 274.61 105 274.91 104.95 275.3C104.9 275.69 105.35 276.12 105.35 276.52C105.35 276.92 104.89 277.35 104.94 277.73ZM92.3599 251.45C92.3599 250.94 91.7899 250.45 91.8599 249.92C91.9299 249.39 92.6099 249.04 92.7399 248.56C92.8699 248.08 92.4599 247.41 92.6499 246.96C92.8399 246.51 93.5999 246.31 93.8499 245.88C94.0999 245.45 93.8499 244.7 94.1799 244.31C94.5099 243.92 95.2699 243.93 95.6199 243.58C95.9699 243.23 95.9499 242.45 96.3499 242.14C96.7499 241.83 97.4899 242.06 97.9199 241.81C98.3499 241.56 98.5299 240.81 98.9999 240.61C99.4699 240.41 100.12 240.83 100.61 240.7C101.1 240.57 101.46 239.88 101.96 239.82C102.46 239.76 102.96 240.32 103.49 240.32C104.02 240.32 104.49 239.75 105.02 239.82C105.55 239.89 105.89 240.57 106.37 240.7C106.85 240.83 107.52 240.42 107.98 240.61C108.44 240.8 108.62 241.56 109.05 241.81C109.48 242.06 110.23 241.81 110.63 242.14C111.03 242.47 111 243.23 111.36 243.58C111.72 243.93 112.49 243.91 112.79 244.31C113.09 244.71 112.88 245.45 113.13 245.88C113.38 246.31 114.13 246.49 114.32 246.96C114.51 247.43 114.11 248.08 114.24 248.57C114.37 249.06 115.05 249.42 115.12 249.92C115.19 250.42 114.61 250.92 114.61 251.45C114.61 251.98 115.18 252.45 115.12 252.98C115.06 253.51 114.37 253.85 114.24 254.33C114.11 254.81 114.51 255.48 114.32 255.94C114.13 256.4 113.37 256.58 113.13 257.01C112.89 257.44 113.13 258.19 112.79 258.59C112.45 258.99 111.71 258.96 111.35 259.32C110.99 259.68 111.02 260.45 110.63 260.75C110.24 261.05 109.48 260.84 109.05 261.09C108.62 261.34 108.44 262.09 107.98 262.28C107.52 262.47 106.85 262.07 106.37 262.2C105.89 262.33 105.52 263.01 105.02 263.08C104.52 263.15 104.02 262.57 103.49 262.57C102.96 262.57 102.49 263.14 101.96 263.08C101.43 263.02 101.08 262.33 100.6 262.2C100.12 262.07 99.4499 262.47 98.9999 262.28C98.5499 262.09 98.3499 261.33 97.9199 261.09C97.4899 260.85 96.7399 261.09 96.3499 260.75C95.9599 260.41 95.9699 259.67 95.6199 259.31C95.2699 258.95 94.4899 258.98 94.1799 258.59C93.8699 258.2 94.0999 257.44 93.8499 257.01C93.5999 256.58 92.8499 256.4 92.6499 255.94C92.4499 255.48 92.8599 254.81 92.7399 254.33C92.6199 253.85 91.9199 253.48 91.8599 252.98C91.7999 252.48 92.3599 252 92.3599 251.45ZM90.9999 296.17C90.9999 295.66 90.4399 295.17 90.4999 294.64C90.5599 294.11 91.2499 293.77 91.3799 293.29C91.5099 292.81 91.0999 292.14 91.2899 291.68C91.4799 291.22 92.2899 291.03 92.4899 290.6C92.6899 290.17 92.4899 289.42 92.8199 289.03C93.1499 288.64 93.9099 288.65 94.2599 288.3C94.6099 287.95 94.5899 287.17 94.9899 286.86C95.3899 286.55 96.1299 286.78 96.5599 286.53C96.9899 286.28 97.1799 285.53 97.6399 285.33C98.0999 285.13 98.7599 285.55 99.2499 285.42C99.7399 285.29 100.1 284.61 100.6 284.54C101.1 284.47 101.6 285.04 102.13 285.04C102.66 285.04 103.13 284.48 103.66 284.54C104.19 284.6 104.53 285.29 105.01 285.42C105.49 285.55 106.16 285.14 106.62 285.33C107.08 285.52 107.26 286.28 107.69 286.53C108.12 286.78 108.87 286.53 109.27 286.87C109.67 287.21 109.64 287.95 110 288.3C110.36 288.65 111.13 288.64 111.43 289.03C111.73 289.42 111.52 290.17 111.77 290.61C112.02 291.05 112.77 291.22 112.97 291.68C113.17 292.14 112.75 292.8 112.88 293.29C113.01 293.78 113.69 294.14 113.76 294.64C113.83 295.14 113.26 295.64 113.26 296.17C113.26 296.7 113.82 297.17 113.76 297.7C113.7 298.23 113.01 298.57 112.88 299.05C112.75 299.53 113.16 300.2 112.97 300.66C112.78 301.12 111.97 301.31 111.77 301.74C111.57 302.17 111.77 302.92 111.43 303.31C111.09 303.7 110.35 303.69 110 304.04C109.65 304.39 109.66 305.17 109.27 305.48C108.88 305.79 108.12 305.56 107.69 305.81C107.26 306.06 107.08 306.81 106.62 307.01C106.16 307.21 105.49 306.79 105.01 306.92C104.53 307.05 104.16 307.73 103.66 307.8C103.16 307.87 102.66 307.3 102.13 307.3C101.6 307.3 101.13 307.86 100.6 307.8C100.07 307.74 99.7199 307.05 99.2499 306.92C98.7799 306.79 98.0999 307.2 97.6399 307.01C97.1799 306.82 96.9899 306.06 96.5599 305.81C96.1299 305.56 95.3799 305.81 94.9899 305.47C94.5999 305.13 94.6099 304.39 94.2599 304.04C93.9099 303.69 93.1299 303.71 92.8199 303.31C92.5099 302.91 92.7399 302.17 92.4899 301.73C92.2399 301.29 91.4899 301.12 91.2899 300.66C91.0899 300.2 91.5099 299.54 91.3799 299.05C91.2499 298.56 90.5599 298.2 90.4999 297.7C90.4399 297.2 90.9999 296.68 90.9999 296.17ZM114 302.52C114 302.19 113.42 301.82 113.46 301.52C113.5 301.22 114.16 300.98 114.24 300.66C114.32 300.34 113.87 299.84 113.99 299.54C114.11 299.24 114.8 299.2 114.99 298.92C115.18 298.64 114.84 298.02 114.99 297.76C115.14 297.5 115.86 297.65 116.09 297.42C116.32 297.19 116.18 296.51 116.44 296.31C116.7 296.11 117.31 296.43 117.59 296.26C117.87 296.09 117.91 295.42 118.21 295.26C118.51 295.1 119.02 295.59 119.34 295.51C119.66 295.43 119.86 294.77 120.19 294.73C120.52 294.69 120.88 295.26 121.19 295.26C121.5 295.26 121.89 294.69 122.19 294.73C122.49 294.77 122.73 295.42 123.05 295.51C123.37 295.6 123.87 295.13 124.18 295.26C124.49 295.39 124.51 296.07 124.8 296.26C125.09 296.45 125.69 296.12 125.95 296.32C126.21 296.52 126.06 297.18 126.3 297.42C126.54 297.66 127.2 297.5 127.4 297.76C127.6 298.02 127.28 298.63 127.45 298.92C127.62 299.21 128.3 299.23 128.45 299.54C128.6 299.85 128.12 300.35 128.2 300.67C128.28 300.99 128.94 301.19 128.98 301.52C129.02 301.85 128.45 302.21 128.45 302.52C128.45 302.83 129.02 303.23 128.98 303.52C128.94 303.81 128.29 304.06 128.2 304.37C128.11 304.68 128.58 305.2 128.45 305.5C128.32 305.8 127.64 305.84 127.45 306.12C127.26 306.4 127.6 307.01 127.4 307.27C127.2 307.53 126.53 307.39 126.29 307.62C126.05 307.85 126.21 308.52 125.95 308.72C125.69 308.92 125.08 308.61 124.79 308.77C124.5 308.93 124.48 309.62 124.17 309.77C123.86 309.92 123.37 309.43 123.05 309.52C122.73 309.61 122.52 310.25 122.19 310.3C121.86 310.35 121.5 309.76 121.19 309.76C120.88 309.76 120.49 310.34 120.19 310.3C119.89 310.26 119.66 309.6 119.34 309.52C119.02 309.44 118.51 309.89 118.21 309.77C117.91 309.65 117.88 308.96 117.59 308.77C117.3 308.58 116.7 308.92 116.44 308.72C116.18 308.52 116.32 307.85 116.09 307.62C115.86 307.39 115.19 307.53 114.99 307.27C114.79 307.01 115.1 306.4 114.99 306.12C114.88 305.84 114.14 305.8 113.99 305.5C113.84 305.2 114.33 304.69 114.24 304.37C114.15 304.05 113.51 303.85 113.46 303.52C113.41 303.19 114 302.86 114 302.52ZM89.6899 211.05C89.6899 210.54 89.1199 210 89.1899 209.51C89.2599 209.02 89.9399 208.64 90.0599 208.16C90.1799 207.68 89.7899 207.01 89.9799 206.56C90.1699 206.11 90.9799 205.91 91.1799 205.48C91.3799 205.05 91.1799 204.3 91.5099 203.91C91.8399 203.52 92.5999 203.53 92.9499 203.18C93.2999 202.83 93.2799 202.05 93.6799 201.74C94.0799 201.43 94.8199 201.66 95.2499 201.41C95.6799 201.16 95.8599 200.41 96.3299 200.21C96.7999 200.01 97.4499 200.42 97.9299 200.29C98.4099 200.16 98.7799 199.48 99.2799 199.42C99.7799 199.36 100.28 199.92 100.82 199.92C101.36 199.92 101.82 199.35 102.35 199.42C102.88 199.49 103.22 200.17 103.7 200.29C104.18 200.41 104.85 200.02 105.31 200.21C105.77 200.4 105.95 201.16 106.38 201.41C106.81 201.66 107.56 201.41 107.96 201.74C108.36 202.07 108.33 202.83 108.68 203.18C109.03 203.53 109.82 203.51 110.12 203.91C110.42 204.31 110.2 205.05 110.45 205.48C110.7 205.91 111.45 206.09 111.65 206.56C111.85 207.03 111.44 207.68 111.57 208.16C111.7 208.64 112.38 209.02 112.44 209.52C112.5 210.02 111.94 210.52 111.94 211.05C111.94 211.58 112.51 212.05 112.44 212.58C112.37 213.11 111.69 213.45 111.57 213.93C111.45 214.41 111.84 215.08 111.65 215.54C111.46 216 110.65 216.18 110.45 216.61C110.25 217.04 110.45 217.79 110.12 218.19C109.79 218.59 109.04 218.56 108.68 218.92C108.32 219.28 108.35 220.05 107.95 220.35C107.55 220.65 106.81 220.43 106.38 220.69C105.95 220.95 105.77 221.69 105.3 221.88C104.83 222.07 104.18 221.67 103.7 221.8C103.22 221.93 102.85 222.61 102.35 222.68C101.85 222.75 101.35 222.17 100.82 222.17C100.29 222.17 99.8199 222.74 99.2799 222.67C98.7399 222.6 98.4099 221.92 97.9299 221.8C97.4499 221.68 96.7799 222.07 96.3299 221.88C95.8799 221.69 95.6799 220.93 95.2499 220.68C94.8199 220.43 94.0699 220.68 93.6699 220.35C93.2699 220.02 93.2999 219.27 92.9499 218.91C92.5999 218.55 91.8099 218.58 91.5099 218.19C91.2099 217.8 91.4299 217.04 91.1799 216.61C90.9299 216.18 90.1799 216 89.9799 215.54C89.7799 215.08 90.1899 214.41 90.0599 213.93C89.9299 213.45 89.2499 213.08 89.1899 212.58C89.1299 212.08 89.6899 211.55 89.6899 211.05ZM69.3199 231.41C69.3199 230.91 68.7599 230.41 68.8199 229.88C68.8799 229.35 69.5699 229.01 69.6999 228.53C69.8299 228.05 69.4199 227.38 69.6099 226.92C69.7999 226.46 70.6099 226.28 70.8099 225.85C71.0099 225.42 70.8099 224.67 71.1399 224.27C71.4699 223.87 72.2299 223.9 72.5799 223.54C72.9299 223.18 72.9099 222.41 73.3099 222.11C73.7099 221.81 74.4499 222.02 74.8799 221.77C75.3099 221.52 75.4999 220.77 75.9599 220.58C76.4199 220.39 77.0799 220.79 77.5699 220.66C78.0599 220.53 78.4199 219.85 78.9199 219.78C79.4199 219.71 79.9199 220.29 80.4499 220.29C80.9799 220.29 81.4499 219.72 81.9799 219.78C82.5099 219.84 82.8499 220.53 83.3299 220.66C83.8099 220.79 84.4799 220.39 84.9399 220.58C85.3999 220.77 85.5799 221.53 86.0099 221.77C86.4399 222.01 87.1899 221.77 87.5899 222.11C87.9899 222.45 87.9699 223.19 88.3199 223.55C88.6699 223.91 89.4499 223.88 89.7499 224.27C90.0499 224.66 89.8399 225.42 90.0899 225.85C90.3399 226.28 91.0899 226.46 91.2899 226.92C91.4899 227.38 91.0699 228.05 91.1999 228.53C91.3299 229.01 92.0099 229.38 92.0799 229.88C92.1499 230.38 91.5799 230.88 91.5799 231.41C91.5799 231.94 92.1399 232.46 92.0799 232.94C92.0199 233.42 91.3299 233.82 91.1999 234.3C91.0699 234.78 91.4799 235.45 91.2899 235.9C91.0999 236.35 90.2899 236.55 90.0899 236.98C89.8899 237.41 90.0899 238.16 89.7499 238.55C89.4099 238.94 88.6699 238.93 88.3199 239.28C87.9699 239.63 87.9799 240.41 87.5899 240.72C87.1999 241.03 86.4499 240.8 86.0099 241.05C85.5699 241.3 85.3999 242.05 84.9399 242.25C84.4799 242.45 83.8099 242.03 83.3299 242.16C82.8499 242.29 82.4799 242.98 81.9799 243.04C81.4799 243.1 80.9799 242.54 80.4499 242.54C79.9199 242.54 79.4499 243.11 78.9199 243.04C78.3899 242.97 78.0399 242.29 77.5699 242.16C77.0999 242.03 76.4199 242.44 75.9599 242.25C75.4999 242.06 75.3099 241.3 74.8799 241.05C74.4499 240.8 73.6999 241.05 73.3099 240.72C72.9199 240.39 72.9299 239.63 72.5799 239.28C72.2299 238.93 71.4499 238.95 71.1399 238.55C70.8299 238.15 71.0599 237.41 70.8099 236.98C70.5599 236.55 69.8099 236.37 69.6099 235.9C69.4099 235.43 69.8299 234.78 69.6999 234.29C69.5699 233.8 68.8799 233.44 68.8199 232.94C68.7599 232.44 69.3199 231.92 69.3199 231.41Z" fill="#FF81AE"/>
<path opacity="0.53" d="M104.94 277.73C104.94 278.13 105.54 278.43 105.64 278.81C105.74 279.19 105.42 279.72 105.57 280.08C105.72 280.44 106.32 280.59 106.57 280.93C106.82 281.27 106.57 281.87 106.83 282.18C107.09 282.49 107.69 282.48 107.97 282.76C108.25 283.04 108.24 283.66 108.55 283.9C108.86 284.14 109.46 283.97 109.8 284.17C110.14 284.37 110.29 284.97 110.65 285.12C111.01 285.27 111.55 284.95 111.93 285.05C112.31 285.15 112.61 285.69 113 285.75C113.39 285.81 113.82 285.35 114.22 285.35C114.62 285.35 115.04 285.8 115.43 285.75C115.82 285.7 116.12 285.15 116.5 285.05C116.88 284.95 117.42 285.27 117.78 285.12C118.14 284.97 118.29 284.36 118.63 284.17C118.97 283.98 119.57 284.17 119.88 283.9C120.19 283.63 120.18 283.04 120.46 282.76C120.74 282.48 121.36 282.5 121.6 282.18C121.84 281.86 121.66 281.28 121.86 280.93C122.06 280.58 122.66 280.45 122.86 280.08C123.06 279.71 122.69 279.19 122.8 278.81C122.91 278.43 123.44 278.13 123.49 277.73C123.54 277.33 123.1 276.92 123.1 276.52C123.1 276.12 123.54 275.69 123.49 275.31C123.44 274.93 122.9 274.61 122.8 274.23C122.7 273.85 123.02 273.32 122.87 272.96C122.72 272.6 122.11 272.45 121.87 272.11C121.63 271.77 121.87 271.17 121.61 270.86C121.35 270.55 120.75 270.56 120.47 270.28C120.19 270 120.21 269.38 119.89 269.14C119.57 268.9 118.99 269.07 118.64 268.87C118.29 268.67 118.16 268.07 117.79 267.92C117.42 267.77 116.9 268.09 116.51 267.99C116.12 267.89 115.84 267.35 115.44 267.29C115.04 267.23 114.63 267.69 114.23 267.69C113.83 267.69 113.4 267.24 113.01 267.29C112.62 267.34 112.32 267.89 111.94 267.99C111.56 268.09 111.03 267.77 110.67 267.92C110.31 268.07 110.15 268.67 109.81 268.87C109.47 269.07 108.88 268.87 108.56 269.14C108.24 269.41 108.26 270 107.98 270.28C107.7 270.56 107.09 270.54 106.85 270.85C106.61 271.16 106.78 271.76 106.58 272.1C106.38 272.44 105.78 272.59 105.58 272.96C105.38 273.33 105.75 273.85 105.65 274.23C105.55 274.61 105 274.91 104.95 275.3C104.9 275.69 105.35 276.12 105.35 276.52C105.35 276.92 104.89 277.35 104.94 277.73ZM92.3599 251.45C92.3599 250.94 91.7899 250.45 91.8599 249.92C91.9299 249.39 92.6099 249.04 92.7399 248.56C92.8699 248.08 92.4599 247.41 92.6499 246.96C92.8399 246.51 93.5999 246.31 93.8499 245.88C94.0999 245.45 93.8499 244.7 94.1799 244.31C94.5099 243.92 95.2699 243.93 95.6199 243.58C95.9699 243.23 95.9499 242.45 96.3499 242.14C96.7499 241.83 97.4899 242.06 97.9199 241.81C98.3499 241.56 98.5299 240.81 98.9999 240.61C99.4699 240.41 100.12 240.83 100.61 240.7C101.1 240.57 101.46 239.88 101.96 239.82C102.46 239.76 102.96 240.32 103.49 240.32C104.02 240.32 104.49 239.75 105.02 239.82C105.55 239.89 105.89 240.57 106.37 240.7C106.85 240.83 107.52 240.42 107.98 240.61C108.44 240.8 108.62 241.56 109.05 241.81C109.48 242.06 110.23 241.81 110.63 242.14C111.03 242.47 111 243.23 111.36 243.58C111.72 243.93 112.49 243.91 112.79 244.31C113.09 244.71 112.88 245.45 113.13 245.88C113.38 246.31 114.13 246.49 114.32 246.96C114.51 247.43 114.11 248.08 114.24 248.57C114.37 249.06 115.05 249.42 115.12 249.92C115.19 250.42 114.61 250.92 114.61 251.45C114.61 251.98 115.18 252.45 115.12 252.98C115.06 253.51 114.37 253.85 114.24 254.33C114.11 254.81 114.51 255.48 114.32 255.94C114.13 256.4 113.37 256.58 113.13 257.01C112.89 257.44 113.13 258.19 112.79 258.59C112.45 258.99 111.71 258.96 111.35 259.32C110.99 259.68 111.02 260.45 110.63 260.75C110.24 261.05 109.48 260.84 109.05 261.09C108.62 261.34 108.44 262.09 107.98 262.28C107.52 262.47 106.85 262.07 106.37 262.2C105.89 262.33 105.52 263.01 105.02 263.08C104.52 263.15 104.02 262.57 103.49 262.57C102.96 262.57 102.49 263.14 101.96 263.08C101.43 263.02 101.08 262.33 100.6 262.2C100.12 262.07 99.4499 262.47 98.9999 262.28C98.5499 262.09 98.3499 261.33 97.9199 261.09C97.4899 260.85 96.7399 261.09 96.3499 260.75C95.9599 260.41 95.9699 259.67 95.6199 259.31C95.2699 258.95 94.4899 258.98 94.1799 258.59C93.8699 258.2 94.0999 257.44 93.8499 257.01C93.5999 256.58 92.8499 256.4 92.6499 255.94C92.4499 255.48 92.8599 254.81 92.7399 254.33C92.6199 253.85 91.9199 253.48 91.8599 252.98C91.7999 252.48 92.3599 252 92.3599 251.45ZM90.9999 296.17C90.9999 295.66 90.4399 295.17 90.4999 294.64C90.5599 294.11 91.2499 293.77 91.3799 293.29C91.5099 292.81 91.0999 292.14 91.2899 291.68C91.4799 291.22 92.2899 291.03 92.4899 290.6C92.6899 290.17 92.4899 289.42 92.8199 289.03C93.1499 288.64 93.9099 288.65 94.2599 288.3C94.6099 287.95 94.5899 287.17 94.9899 286.86C95.3899 286.55 96.1299 286.78 96.5599 286.53C96.9899 286.28 97.1799 285.53 97.6399 285.33C98.0999 285.13 98.7599 285.55 99.2499 285.42C99.7399 285.29 100.1 284.61 100.6 284.54C101.1 284.47 101.6 285.04 102.13 285.04C102.66 285.04 103.13 284.48 103.66 284.54C104.19 284.6 104.53 285.29 105.01 285.42C105.49 285.55 106.16 285.14 106.62 285.33C107.08 285.52 107.26 286.28 107.69 286.53C108.12 286.78 108.87 286.53 109.27 286.87C109.67 287.21 109.64 287.95 110 288.3C110.36 288.65 111.13 288.64 111.43 289.03C111.73 289.42 111.52 290.17 111.77 290.61C112.02 291.05 112.77 291.22 112.97 291.68C113.17 292.14 112.75 292.8 112.88 293.29C113.01 293.78 113.69 294.14 113.76 294.64C113.83 295.14 113.26 295.64 113.26 296.17C113.26 296.7 113.82 297.17 113.76 297.7C113.7 298.23 113.01 298.57 112.88 299.05C112.75 299.53 113.16 300.2 112.97 300.66C112.78 301.12 111.97 301.31 111.77 301.74C111.57 302.17 111.77 302.92 111.43 303.31C111.09 303.7 110.35 303.69 110 304.04C109.65 304.39 109.66 305.17 109.27 305.48C108.88 305.79 108.12 305.56 107.69 305.81C107.26 306.06 107.08 306.81 106.62 307.01C106.16 307.21 105.49 306.79 105.01 306.92C104.53 307.05 104.16 307.73 103.66 307.8C103.16 307.87 102.66 307.3 102.13 307.3C101.6 307.3 101.13 307.86 100.6 307.8C100.07 307.74 99.7199 307.05 99.2499 306.92C98.7799 306.79 98.0999 307.2 97.6399 307.01C97.1799 306.82 96.9899 306.06 96.5599 305.81C96.1299 305.56 95.3799 305.81 94.9899 305.47C94.5999 305.13 94.6099 304.39 94.2599 304.04C93.9099 303.69 93.1299 303.71 92.8199 303.31C92.5099 302.91 92.7399 302.17 92.4899 301.73C92.2399 301.29 91.4899 301.12 91.2899 300.66C91.0899 300.2 91.5099 299.54 91.3799 299.05C91.2499 298.56 90.5599 298.2 90.4999 297.7C90.4399 297.2 90.9999 296.68 90.9999 296.17ZM114 302.52C114 302.19 113.42 301.82 113.46 301.52C113.5 301.22 114.16 300.98 114.24 300.66C114.32 300.34 113.87 299.84 113.99 299.54C114.11 299.24 114.8 299.2 114.99 298.92C115.18 298.64 114.84 298.02 114.99 297.76C115.14 297.5 115.86 297.65 116.09 297.42C116.32 297.19 116.18 296.51 116.44 296.31C116.7 296.11 117.31 296.43 117.59 296.26C117.87 296.09 117.91 295.42 118.21 295.26C118.51 295.1 119.02 295.59 119.34 295.51C119.66 295.43 119.86 294.77 120.19 294.73C120.52 294.69 120.88 295.26 121.19 295.26C121.5 295.26 121.89 294.69 122.19 294.73C122.49 294.77 122.73 295.42 123.05 295.51C123.37 295.6 123.87 295.13 124.18 295.26C124.49 295.39 124.51 296.07 124.8 296.26C125.09 296.45 125.69 296.12 125.95 296.32C126.21 296.52 126.06 297.18 126.3 297.42C126.54 297.66 127.2 297.5 127.4 297.76C127.6 298.02 127.28 298.63 127.45 298.92C127.62 299.21 128.3 299.23 128.45 299.54C128.6 299.85 128.12 300.35 128.2 300.67C128.28 300.99 128.94 301.19 128.98 301.52C129.02 301.85 128.45 302.21 128.45 302.52C128.45 302.83 129.02 303.23 128.98 303.52C128.94 303.81 128.29 304.06 128.2 304.37C128.11 304.68 128.58 305.2 128.45 305.5C128.32 305.8 127.64 305.84 127.45 306.12C127.26 306.4 127.6 307.01 127.4 307.27C127.2 307.53 126.53 307.39 126.29 307.62C126.05 307.85 126.21 308.52 125.95 308.72C125.69 308.92 125.08 308.61 124.79 308.77C124.5 308.93 124.48 309.62 124.17 309.77C123.86 309.92 123.37 309.43 123.05 309.52C122.73 309.61 122.52 310.25 122.19 310.3C121.86 310.35 121.5 309.76 121.19 309.76C120.88 309.76 120.49 310.34 120.19 310.3C119.89 310.26 119.66 309.6 119.34 309.52C119.02 309.44 118.51 309.89 118.21 309.77C117.91 309.65 117.88 308.96 117.59 308.77C117.3 308.58 116.7 308.92 116.44 308.72C116.18 308.52 116.32 307.85 116.09 307.62C115.86 307.39 115.19 307.53 114.99 307.27C114.79 307.01 115.1 306.4 114.99 306.12C114.88 305.84 114.14 305.8 113.99 305.5C113.84 305.2 114.33 304.69 114.24 304.37C114.15 304.05 113.51 303.85 113.46 303.52C113.41 303.19 114 302.86 114 302.52ZM89.6899 211.05C89.6899 210.54 89.1199 210 89.1899 209.51C89.2599 209.02 89.9399 208.64 90.0599 208.16C90.1799 207.68 89.7899 207.01 89.9799 206.56C90.1699 206.11 90.9799 205.91 91.1799 205.48C91.3799 205.05 91.1799 204.3 91.5099 203.91C91.8399 203.52 92.5999 203.53 92.9499 203.18C93.2999 202.83 93.2799 202.05 93.6799 201.74C94.0799 201.43 94.8199 201.66 95.2499 201.41C95.6799 201.16 95.8599 200.41 96.3299 200.21C96.7999 200.01 97.4499 200.42 97.9299 200.29C98.4099 200.16 98.7799 199.48 99.2799 199.42C99.7799 199.36 100.28 199.92 100.82 199.92C101.36 199.92 101.82 199.35 102.35 199.42C102.88 199.49 103.22 200.17 103.7 200.29C104.18 200.41 104.85 200.02 105.31 200.21C105.77 200.4 105.95 201.16 106.38 201.41C106.81 201.66 107.56 201.41 107.96 201.74C108.36 202.07 108.33 202.83 108.68 203.18C109.03 203.53 109.82 203.51 110.12 203.91C110.42 204.31 110.2 205.05 110.45 205.48C110.7 205.91 111.45 206.09 111.65 206.56C111.85 207.03 111.44 207.68 111.57 208.16C111.7 208.64 112.38 209.02 112.44 209.52C112.5 210.02 111.94 210.52 111.94 211.05C111.94 211.58 112.51 212.05 112.44 212.58C112.37 213.11 111.69 213.45 111.57 213.93C111.45 214.41 111.84 215.08 111.65 215.54C111.46 216 110.65 216.18 110.45 216.61C110.25 217.04 110.45 217.79 110.12 218.19C109.79 218.59 109.04 218.56 108.68 218.92C108.32 219.28 108.35 220.05 107.95 220.35C107.55 220.65 106.81 220.43 106.38 220.69C105.95 220.95 105.77 221.69 105.3 221.88C104.83 222.07 104.18 221.67 103.7 221.8C103.22 221.93 102.85 222.61 102.35 222.68C101.85 222.75 101.35 222.17 100.82 222.17C100.29 222.17 99.8199 222.74 99.2799 222.67C98.7399 222.6 98.4099 221.92 97.9299 221.8C97.4499 221.68 96.7799 222.07 96.3299 221.88C95.8799 221.69 95.6799 220.93 95.2499 220.68C94.8199 220.43 94.0699 220.68 93.6699 220.35C93.2699 220.02 93.2999 219.27 92.9499 218.91C92.5999 218.55 91.8099 218.58 91.5099 218.19C91.2099 217.8 91.4299 217.04 91.1799 216.61C90.9299 216.18 90.1799 216 89.9799 215.54C89.7799 215.08 90.1899 214.41 90.0599 213.93C89.9299 213.45 89.2499 213.08 89.1899 212.58C89.1299 212.08 89.6899 211.55 89.6899 211.05ZM69.3199 231.41C69.3199 230.91 68.7599 230.41 68.8199 229.88C68.8799 229.35 69.5699 229.01 69.6999 228.53C69.8299 228.05 69.4199 227.38 69.6099 226.92C69.7999 226.46 70.6099 226.28 70.8099 225.85C71.0099 225.42 70.8099 224.67 71.1399 224.27C71.4699 223.87 72.2299 223.9 72.5799 223.54C72.9299 223.18 72.9099 222.41 73.3099 222.11C73.7099 221.81 74.4499 222.02 74.8799 221.77C75.3099 221.52 75.4999 220.77 75.9599 220.58C76.4199 220.39 77.0799 220.79 77.5699 220.66C78.0599 220.53 78.4199 219.85 78.9199 219.78C79.4199 219.71 79.9199 220.29 80.4499 220.29C80.9799 220.29 81.4499 219.72 81.9799 219.78C82.5099 219.84 82.8499 220.53 83.3299 220.66C83.8099 220.79 84.4799 220.39 84.9399 220.58C85.3999 220.77 85.5799 221.53 86.0099 221.77C86.4399 222.01 87.1899 221.77 87.5899 222.11C87.9899 222.45 87.9699 223.19 88.3199 223.55C88.6699 223.91 89.4499 223.88 89.7499 224.27C90.0499 224.66 89.8399 225.42 90.0899 225.85C90.3399 226.28 91.0899 226.46 91.2899 226.92C91.4899 227.38 91.0699 228.05 91.1999 228.53C91.3299 229.01 92.0099 229.38 92.0799 229.88C92.1499 230.38 91.5799 230.88 91.5799 231.41C91.5799 231.94 92.1399 232.46 92.0799 232.94C92.0199 233.42 91.3299 233.82 91.1999 234.3C91.0699 234.78 91.4799 235.45 91.2899 235.9C91.0999 236.35 90.2899 236.55 90.0899 236.98C89.8899 237.41 90.0899 238.16 89.7499 238.55C89.4099 238.94 88.6699 238.93 88.3199 239.28C87.9699 239.63 87.9799 240.41 87.5899 240.72C87.1999 241.03 86.4499 240.8 86.0099 241.05C85.5699 241.3 85.3999 242.05 84.9399 242.25C84.4799 242.45 83.8099 242.03 83.3299 242.16C82.8499 242.29 82.4799 242.98 81.9799 243.04C81.4799 243.1 80.9799 242.54 80.4499 242.54C79.9199 242.54 79.4499 243.11 78.9199 243.04C78.3899 242.97 78.0399 242.29 77.5699 242.16C77.0999 242.03 76.4199 242.44 75.9599 242.25C75.4999 242.06 75.3099 241.3 74.8799 241.05C74.4499 240.8 73.6999 241.05 73.3099 240.72C72.9199 240.39 72.9299 239.63 72.5799 239.28C72.2299 238.93 71.4499 238.95 71.1399 238.55C70.8299 238.15 71.0599 237.41 70.8099 236.98C70.5599 236.55 69.8099 236.37 69.6099 235.9C69.4099 235.43 69.8299 234.78 69.6999 234.29C69.5699 233.8 68.8799 233.44 68.8199 232.94C68.7599 232.44 69.3199 231.92 69.3199 231.41Z" fill="white"/>
<path d="M186.77 364.789L155.08 363.609C154.754 363.591 154.428 363.641 154.123 363.757C153.818 363.872 153.541 364.051 153.31 364.282C153.078 364.512 152.898 364.788 152.781 365.093C152.664 365.398 152.613 365.723 152.63 366.049C152.629 366.193 152.658 366.336 152.717 366.467C152.776 366.599 152.862 366.716 152.971 366.811C153.079 366.906 153.206 366.976 153.344 367.017C153.482 367.059 153.627 367.069 153.77 367.049C154.981 367.095 156.184 366.837 157.27 366.299L182.27 373.799C182.27 373.799 190.52 375.789 186.77 364.789Z" fill="#263238" stroke="#263238" stroke-linecap="round" stroke-linejoin="round"/>
<path d="M185.52 337.79V367.29L142.27 389.79C142.27 389.79 139.02 394.29 142.77 394.79C143.35 394.929 143.954 394.938 144.539 394.817C145.123 394.696 145.674 394.448 146.151 394.09C146.628 393.731 147.021 393.273 147.301 392.745C147.581 392.218 147.741 391.636 147.77 391.04C147.77 391.04 194.77 376.79 195.77 376.79C196.77 376.79 241.27 388.79 241.27 388.79C241.27 388.79 239.52 390.79 242.77 391.79C246.02 392.79 246.27 388.79 245.27 387.29C244.27 385.79 196.77 365.29 196.77 365.29V338.54L185.52 337.79Z" fill="#263238" stroke="#263238" stroke-linecap="round" stroke-linejoin="round"/>
<path d="M253.85 273.41C251.699 273.066 249.621 272.367 247.7 271.34C243.992 269.256 240.498 266.811 237.27 264.04C229 257 221 242.54 214 234.79C207 227.04 193.5 222.79 174.25 224.79C155 226.79 145.25 234.54 141.5 244.54C137.75 254.54 137.25 264.04 133.25 272.79C129.25 281.54 120.75 284.79 122.25 293.79C123.75 302.79 132.5 317.54 150.5 329.04C168.5 340.54 189.75 344.79 213.5 342.29C237.25 339.79 247 329.54 255.25 317.54C263.5 305.54 264.5 291.29 263.25 283.79C262.21 277.41 257.89 274.11 253.85 273.41Z" fill="white" stroke="#263238" stroke-linecap="round" stroke-linejoin="round"/>
<path opacity="0.17" d="M162.7 237.439C158.725 239.195 155.1 241.654 152 244.699C143.22 253.239 147 265.029 144.19 275.699C143.167 279.411 141.763 283.007 140 286.429C140 286.429 143.44 307.869 157.22 316.289C171 324.709 193.22 330.449 211.95 326.999C230.68 323.549 240.65 313.609 245.24 305.189C249.83 296.769 247.88 282.999 236 274.999C224.12 266.999 216.48 250.889 205.76 243.239C193 234.079 176.39 231.389 162.7 237.439Z" fill="black"/>
<path d="M257.54 274.8C256.612 274.814 255.687 274.895 254.77 275.04C254.77 275.04 249.27 274.79 245.77 283.54C242.27 292.29 244.77 302.04 240.27 309.04C235.77 316.04 232.27 316.79 203.52 317.04C174.77 317.29 164.77 322.29 153.27 307.29C141.77 292.29 146.27 284.79 136.77 281.29C132.08 279.56 129.04 280.15 126.77 281.88C123.77 285.37 121.38 288.64 122.24 293.79C123.74 302.79 132.49 317.54 150.49 329.04C168.49 340.54 189.74 344.79 213.49 342.29C237.24 339.79 246.99 329.54 255.24 317.54C263.49 305.54 264.49 291.29 263.24 283.79C263.008 281.965 262.377 280.213 261.392 278.659C260.407 277.106 259.092 275.788 257.54 274.8Z" fill="white"/>
<mask id="mask1_31579_6269" style="mask-type:luminance" maskUnits="userSpaceOnUse" x="122" y="274" width="142" height="69">
<path d="M257.54 274.8C256.612 274.814 255.687 274.895 254.77 275.04C254.77 275.04 249.27 274.79 245.77 283.54C242.27 292.29 244.77 302.04 240.27 309.04C235.77 316.04 232.27 316.79 203.52 317.04C174.77 317.29 164.77 322.29 153.27 307.29C141.77 292.29 146.27 284.79 136.77 281.29C132.08 279.56 129.04 280.15 126.77 281.88C123.77 285.37 121.38 288.64 122.24 293.79C123.74 302.79 132.49 317.54 150.49 329.04C168.49 340.54 189.74 344.79 213.49 342.29C237.24 339.79 246.99 329.54 255.24 317.54C263.49 305.54 264.49 291.29 263.24 283.79C263.008 281.965 262.377 280.213 261.392 278.659C260.407 277.106 259.092 275.788 257.54 274.8Z" fill="white"/>
</mask>
<g mask="url(#mask1_31579_6269)">
<path opacity="0.17" d="M257.54 274.8C256.612 274.814 255.687 274.895 254.77 275.04C254.77 275.04 249.27 274.79 245.77 283.54C242.27 292.29 244.77 302.04 240.27 309.04C235.77 316.04 232.27 316.79 203.52 317.04C174.77 317.29 164.77 322.29 153.27 307.29C141.77 292.29 146.27 284.79 136.77 281.29C132.08 279.56 129.04 280.15 126.77 281.88C123.77 285.37 121.38 288.64 122.24 293.79C123.74 302.79 132.49 317.54 150.49 329.04C168.49 340.54 189.74 344.79 213.49 342.29C237.24 339.79 246.99 329.54 255.24 317.54C263.49 305.54 264.49 291.29 263.24 283.79C263.008 281.965 262.377 280.213 261.392 278.659C260.407 277.106 259.092 275.788 257.54 274.8Z" fill="black"/>
</g>
<path d="M257.54 274.8C256.612 274.814 255.687 274.895 254.77 275.04C254.77 275.04 249.27 274.79 245.77 283.54C242.27 292.29 244.77 302.04 240.27 309.04C235.77 316.04 232.27 316.79 203.52 317.04C174.77 317.29 164.77 322.29 153.27 307.29C141.77 292.29 146.27 284.79 136.77 281.29C132.08 279.56 129.04 280.15 126.77 281.88C123.77 285.37 121.38 288.64 122.24 293.79C123.74 302.79 132.49 317.54 150.49 329.04C168.49 340.54 189.74 344.79 213.49 342.29C237.24 339.79 246.99 329.54 255.24 317.54C263.49 305.54 264.49 291.29 263.24 283.79C263.008 281.965 262.377 280.213 261.392 278.659C260.407 277.106 259.092 275.788 257.54 274.8Z" stroke="#263238" stroke-linecap="round" stroke-linejoin="round"/>
<path d="M173 265C173 265 161.5 277.5 158.25 289.5C155 301.5 160.25 314.75 169.5 318C178.75 321.25 192.25 316.75 198.5 314.25C204.75 311.75 214 316.25 224.25 316.5C234.5 316.75 236 296.29 233.52 284C231.04 271.71 220.02 260.75 209.27 259C198.52 257.25 178.52 258.29 173 265Z" fill="#263238" stroke="#263238" stroke-linecap="round" stroke-linejoin="round"/>
<path d="M211.33 188C211.33 188 221.23 192.86 226.09 194.16C230.95 195.46 242.15 195.47 242.71 199.58C243.27 203.69 241.03 226.1 239.71 233.38C238.39 240.66 238.22 251.5 238.96 254.3C239.7 257.1 241.96 261.58 239.34 266.07C236.72 270.56 235.23 276.34 229.25 275.4C223.27 274.46 221.78 270.17 221.78 270.17L185.37 274.66C185.37 274.66 182.56 259.9 179.37 246.83C176.18 233.76 169.66 215.08 170.22 206.12C170.78 197.16 182.36 191.55 190.39 188.94C198.42 186.33 211.33 188 211.33 188Z" fill="#FF81AE"/>
<mask id="mask2_31579_6269" style="mask-type:luminance" maskUnits="userSpaceOnUse" x="170" y="187" width="73" height="89">
<path d="M211.33 188C211.33 188 221.23 192.86 226.09 194.16C230.95 195.46 242.15 195.47 242.71 199.58C243.27 203.69 241.03 226.1 239.71 233.38C238.39 240.66 238.22 251.5 238.96 254.3C239.7 257.1 241.96 261.58 239.34 266.07C236.72 270.56 235.23 276.34 229.25 275.4C223.27 274.46 221.78 270.17 221.78 270.17L185.37 274.66C185.37 274.66 182.56 259.9 179.37 246.83C176.18 233.76 169.66 215.08 170.22 206.12C170.78 197.16 182.36 191.55 190.39 188.94C198.42 186.33 211.33 188 211.33 188Z" fill="white"/>
</mask>
<g mask="url(#mask2_31579_6269)">
<path opacity="0.17" d="M238.38 212.36C237.44 215.36 233.13 226.23 233.13 226.23C233.13 226.23 234.84 216.23 235.99 208.23C237.14 200.23 237.42 201.09 233.7 201.09C229.98 201.09 223.41 197.94 221.13 196.8C218.85 195.66 219.98 198.23 217.7 196.51C215.42 194.79 211.98 189.37 211.98 189.37C205.69 187.94 180.55 191.09 178.26 198.23C176.73 203 177.5 227.63 179.26 246.38L179.38 246.85C181.54 255.75 183.53 265.42 184.58 270.69C185.551 272.107 186.767 273.34 188.17 274.33L221.5 270.23C225.64 265.77 228.86 259.53 229.96 258.23C231.25 256.74 235.39 253.95 235.68 251.37C235.97 248.79 234.54 231.08 235.97 224.8C237.08 220 238 214.38 238.38 212.36ZM230.27 241.36C226.56 246.22 216.55 242.79 210.84 240.79C205.13 238.79 199.98 244.79 193.69 243.36C187.4 241.93 195.12 232.79 203.12 232.5C211.12 232.21 209.12 231.93 216.27 223.36C223.42 214.79 227.7 222.5 230.56 229.07C231.391 231.023 231.795 233.13 231.745 235.252C231.695 237.373 231.192 239.459 230.27 241.37V241.36Z" fill="black"/>
<path d="M238.79 199.78C238.79 199.78 238.6 208.55 237.11 213.22C235.62 217.89 233 226.11 233 230.78C233 235.45 233.93 242.17 232.44 246.47C230.95 250.77 224.22 257.47 224.22 264.02" stroke="#263238" stroke-linecap="round" stroke-linejoin="round"/>
</g>
<path d="M211.33 188C211.33 188 221.23 192.86 226.09 194.16C230.95 195.46 242.15 195.47 242.71 199.58C243.27 203.69 241.03 226.1 239.71 233.38C238.39 240.66 238.22 251.5 238.96 254.3C239.7 257.1 241.96 261.58 239.34 266.07C236.72 270.56 235.23 276.34 229.25 275.4C223.27 274.46 221.78 270.17 221.78 270.17L185.37 274.66C185.37 274.66 182.56 259.9 179.37 246.83C176.18 233.76 169.66 215.08 170.22 206.12C170.78 197.16 182.36 191.55 190.39 188.94C198.42 186.33 211.33 188 211.33 188Z" stroke="#263238" stroke-linecap="round" stroke-linejoin="round"/>
<path d="M182.39 234.139C182.39 234.139 183.51 247.399 184.63 253.379C185.291 256.831 185.729 260.321 185.94 263.829C185.94 263.829 190.42 262.899 191.35 266.449C191.848 268.524 191.744 270.698 191.05 272.716C190.356 274.733 189.1 276.511 187.43 277.839C183.69 280.639 178.65 282.509 174.92 281.389C171.19 280.269 169.92 270.929 169.92 265.139C169.92 259.349 169.92 251.879 168.24 247.589C166.56 243.299 171.37 229.279 182.39 234.139Z" fill="#FF81AE"/>
<mask id="mask3_31579_6269" style="mask-type:luminance" maskUnits="userSpaceOnUse" x="167" y="233" width="25" height="49">
<path d="M182.39 234.139C182.39 234.139 183.51 247.399 184.63 253.379C185.291 256.831 185.729 260.321 185.94 263.829C185.94 263.829 190.42 262.899 191.35 266.449C191.848 268.524 191.744 270.698 191.05 272.716C190.356 274.733 189.1 276.511 187.43 277.839C183.69 280.639 178.65 282.509 174.92 281.389C171.19 280.269 169.92 270.929 169.92 265.139C169.92 259.349 169.92 251.879 168.24 247.589C166.56 243.299 171.37 229.279 182.39 234.139Z" fill="white"/>
</mask>
<g mask="url(#mask3_31579_6269)">
<path opacity="0.17" d="M186.66 269.349C183.93 269.949 177.88 270.859 177.27 268.439C176.66 266.019 180.71 263.269 180.71 263.269L183.93 263.589V261.469C183.93 261.469 182.42 249.059 180.93 244.469C179.44 239.879 171.24 244.469 168.21 247.539C169.9 251.829 169.9 259.299 169.9 265.089C169.9 270.879 171.2 280.219 174.9 281.339C178.6 282.459 183.67 280.589 187.41 277.789C189.363 276.274 190.736 274.135 191.3 271.729C190.829 270.936 190.144 270.291 189.323 269.87C188.502 269.449 187.579 269.269 186.66 269.349Z" fill="black"/>
</g>
<path d="M182.39 234.139C182.39 234.139 183.51 247.399 184.63 253.379C185.291 256.831 185.729 260.321 185.94 263.829C185.94 263.829 190.42 262.899 191.35 266.449C191.848 268.524 191.744 270.698 191.05 272.716C190.356 274.733 189.1 276.511 187.43 277.839C183.69 280.639 178.65 282.509 174.92 281.389C171.19 280.269 169.92 270.929 169.92 265.139C169.92 259.349 169.92 251.879 168.24 247.589C166.56 243.299 171.37 229.279 182.39 234.139Z" stroke="#263238" stroke-linecap="round" stroke-linejoin="round"/>
<path d="M186.87 264.39C184.793 264.161 182.735 263.786 180.71 263.27C176.78 262.34 174.36 264.21 173.61 269.44" stroke="#263238" stroke-linecap="round" stroke-linejoin="round"/>
<path d="M192.85 196C192.85 196 192.29 204.22 190.98 211.5C190.277 215.725 188.821 219.79 186.68 223.5C186.68 223.5 186.68 206.88 184.07 198.85C181.46 190.82 182.39 185.03 186.31 186.85C190.23 188.67 192.85 196 192.85 196Z" fill="#263238" stroke="#263238" stroke-linecap="round" stroke-linejoin="round"/>
<path d="M190.79 196.6C190.47 200.016 190.47 203.454 190.79 206.87C191.081 209.572 191.582 212.247 192.29 214.87L197.51 209.46L195.27 216L207 223.49L214.28 212.29L210 207.43C210 207.43 216.72 211.17 217.28 210.98C217.84 210.79 216.35 201.64 213.17 196.04C209.99 190.44 201.03 187.04 198.04 188.04C195.05 189.04 190.23 193.8 190.79 196.6Z" fill="#FF81AE" stroke="#263238" stroke-linecap="round" stroke-linejoin="round"/>
<path d="M197 202.77C197 202.77 203 220.51 205.6 219.95C208.2 219.39 209.52 200.34 209.52 200.34C207.71 201.578 205.665 202.433 203.512 202.851C201.358 203.269 199.142 203.241 197 202.77Z" fill="white"/>
<mask id="mask4_31579_6269" style="mask-type:luminance" maskUnits="userSpaceOnUse" x="197" y="200" width="13" height="20">
<path d="M197 202.77C197 202.77 203 220.51 205.6 219.95C208.2 219.39 209.52 200.34 209.52 200.34C207.71 201.578 205.665 202.433 203.512 202.851C201.358 203.269 199.142 203.241 197 202.77Z" fill="white"/>
</mask>
<g mask="url(#mask4_31579_6269)">
<path d="M197 202.77C197 202.77 203 220.51 205.6 219.95C208.2 219.39 209.52 200.34 209.52 200.34C207.71 201.578 205.665 202.433 203.512 202.851C201.358 203.269 199.142 203.241 197 202.77Z" fill="#FF81AE"/>
<path opacity="0.53" d="M197 202.77C197 202.77 203 220.51 205.6 219.95C208.2 219.39 209.52 200.34 209.52 200.34C207.71 201.578 205.665 202.433 203.512 202.851C201.358 203.269 199.142 203.241 197 202.77Z" fill="white"/>
</g>
<path d="M197 202.77C197 202.77 203 220.51 205.6 219.95C208.2 219.39 209.52 200.34 209.52 200.34C207.71 201.578 205.665 202.433 203.512 202.851C201.358 203.269 199.142 203.241 197 202.77Z" stroke="#263238" stroke-linecap="round" stroke-linejoin="round"/>
<path d="M181.64 185.769C181.64 185.769 188.3 197.769 193.41 201.829C198.17 205.619 205.55 207.249 209.09 202.949C212.63 198.649 213.58 188.949 213.39 182.779C213.2 176.609 208.72 172.509 203.68 167.469C198.64 162.429 190.98 155.889 185.94 159.249C180.9 162.609 180 181.849 181.64 185.769Z" fill="white"/>
<mask id="mask5_31579_6269" style="mask-type:luminance" maskUnits="userSpaceOnUse" x="180" y="158" width="34" height="48">
<path d="M181.64 185.769C181.64 185.769 188.3 197.769 193.41 201.829C198.17 205.619 205.55 207.249 209.09 202.949C212.63 198.649 213.58 188.949 213.39 182.779C213.2 176.609 208.72 172.509 203.68 167.469C198.64 162.429 190.98 155.889 185.94 159.249C180.9 162.609 180 181.849 181.64 185.769Z" fill="white"/>
</mask>
<g mask="url(#mask5_31579_6269)">
<path d="M209.09 202.999C209.21 202.859 209.32 202.699 209.43 202.549C207.519 203.333 205.492 203.796 203.43 203.919C196.75 204.209 192.43 198.109 192.43 198.109C192.43 198.109 191.85 197.239 188.37 190.849C184.89 184.459 186 166.689 186 166.689C186 166.689 188.61 170.179 195.87 171.919C200.068 172.936 204.342 173.605 208.65 173.919L208.38 172.249C206.97 170.679 205.38 169.109 203.7 167.439C198.7 162.439 191 155.859 185.96 159.219C180.92 162.579 179.96 181.819 181.66 185.739C181.66 185.739 188.32 197.739 193.43 201.799C198.17 205.619 205.55 207.249 209.09 202.999Z" fill="#FF81AE"/>
<path opacity="0.53" d="M209.09 202.999C209.21 202.859 209.32 202.699 209.43 202.549C207.519 203.333 205.492 203.796 203.43 203.919C196.75 204.209 192.43 198.109 192.43 198.109C192.43 198.109 191.85 197.239 188.37 190.849C184.89 184.459 186 166.689 186 166.689C186 166.689 188.61 170.179 195.87 171.919C200.068 172.936 204.342 173.605 208.65 173.919L208.38 172.249C206.97 170.679 205.38 169.109 203.7 167.439C198.7 162.439 191 155.859 185.96 159.219C180.92 162.579 179.96 181.819 181.66 185.739C181.66 185.739 188.32 197.739 193.43 201.799C198.17 205.619 205.55 207.249 209.09 202.999Z" fill="white"/>
<path d="M188.92 184.46C188.92 184.46 193.22 185.58 194.92 182.97" stroke="#263238" stroke-linecap="round" stroke-linejoin="round"/>
<path d="M203.49 181.1C203.49 181.1 207.6 182.22 209.28 179.1" stroke="#263238" stroke-linecap="round" stroke-linejoin="round"/>
<path d="M185.94 180.729C186.985 179.781 188.243 179.099 189.608 178.74C190.973 178.382 192.404 178.357 193.78 178.669" stroke="#263238" stroke-linecap="round" stroke-linejoin="round"/>
<path d="M201.81 177.549C201.81 177.549 203.49 174.379 208.91 174.939" stroke="#263238" stroke-linecap="round" stroke-linejoin="round"/>
<path d="M199.2 190.629C199.2 190.629 202 191.749 203.12 189.319" stroke="#263238" stroke-linecap="round" stroke-linejoin="round"/>
<path d="M199 195.29C199 195.29 203.85 195.86 205.91 193.05" stroke="#263238" stroke-linecap="round" stroke-linejoin="round"/>
</g>
<path d="M181.64 185.769C181.64 185.769 188.3 197.769 193.41 201.829C198.17 205.619 205.55 207.249 209.09 202.949C212.63 198.649 213.58 188.949 213.39 182.779C213.2 176.609 208.72 172.509 203.68 167.469C198.64 162.429 190.98 155.889 185.94 159.249C180.9 162.609 180 181.849 181.64 185.769Z" stroke="#263238" stroke-linecap="round" stroke-linejoin="round"/>
<path d="M186.5 271.119C186.401 268.869 186.525 266.615 186.87 264.389C187.43 261.389 188.55 260.099 188.55 256.739C188.55 253.379 188.74 252.069 190.98 252.069C193.22 252.069 197.51 252.259 197.7 253.749C197.89 255.239 198.07 256.179 197.14 255.989C196.21 255.799 192.29 255.619 192.29 255.619L191.73 257.109C193.569 257.699 195.375 258.387 197.14 259.169C198.07 259.729 198.26 263.829 198.26 266.079C198.354 267.08 198.109 268.083 197.565 268.927C197.021 269.772 196.209 270.41 195.26 270.739C193.21 271.489 191.34 268.879 191.34 268.879C191.34 268.879 191.72 271.679 189.66 272.609C187.6 273.539 185.94 272.239 186.5 271.119Z" fill="white" stroke="#263238" stroke-linecap="round" stroke-linejoin="round"/>
<path d="M195 247.099L191.7 275.689C191.656 276.07 191.696 276.456 191.816 276.82C191.936 277.185 192.133 277.518 192.394 277.799C192.656 278.079 192.975 278.3 193.33 278.445C193.685 278.59 194.067 278.656 194.45 278.639L219.68 277.549C220.238 277.524 220.774 277.325 221.212 276.978C221.65 276.632 221.968 276.156 222.12 275.619L229.97 247.619C230.082 247.222 230.1 246.804 230.022 246.399C229.944 245.993 229.773 245.612 229.521 245.284C229.27 244.957 228.945 244.693 228.573 244.513C228.202 244.333 227.793 244.243 227.38 244.249L197.59 244.719C196.941 244.728 196.319 244.976 195.841 245.415C195.363 245.854 195.064 246.454 195 247.099Z" fill="white" stroke="#263238" stroke-linecap="round" stroke-linejoin="round"/>
<path opacity="0.17" d="M196.28 248.25L193.28 274.54C193.239 274.89 193.275 275.246 193.385 275.582C193.495 275.917 193.677 276.225 193.917 276.484C194.158 276.742 194.451 276.946 194.778 277.08C195.105 277.214 195.457 277.275 195.81 277.26L219.01 276.26C219.523 276.236 220.016 276.052 220.418 275.732C220.821 275.413 221.112 274.974 221.25 274.48L228.48 248.76C228.583 248.393 228.599 248.008 228.527 247.635C228.454 247.262 228.296 246.911 228.063 246.609C227.831 246.308 227.532 246.066 227.189 245.901C226.847 245.736 226.47 245.653 226.09 245.66L198.7 246.09C198.102 246.09 197.525 246.311 197.079 246.709C196.633 247.107 196.349 247.655 196.28 248.25Z" fill="black"/>
<path d="M195.53 254.75L193.25 274.54" stroke="#263238" stroke-width="0.75" stroke-linecap="round" stroke-linejoin="round"/>
<path d="M200.27 246.06H198.67C198.077 246.068 197.508 246.292 197.068 246.689C196.628 247.087 196.348 247.631 196.28 248.22L195.93 251.27" stroke="#263238" stroke-width="0.75" stroke-linecap="round" stroke-linejoin="round"/>
<path d="M233.93 264.209C233.93 264.209 230.93 259.729 228.7 259.729C226.47 259.729 216.38 265.509 213.76 267.199C211.14 268.889 213.95 269.619 213.95 269.619C213.801 270.005 213.774 270.427 213.874 270.828C213.975 271.23 214.197 271.59 214.51 271.859C215.028 272.479 215.76 272.882 216.56 272.989C216.921 273.561 217.443 274.013 218.06 274.289C219.139 274.67 220.276 274.859 221.42 274.849C221.42 274.849 222.35 275.599 225.53 275.599C228.71 275.599 231.69 275.409 233.53 273.169C235.37 270.929 235.24 268.689 233.93 264.209Z" fill="white" stroke="#263238" stroke-linecap="round" stroke-linejoin="round"/>
<path d="M214 269.62C214 269.62 226 267.57 228.19 265.33" stroke="#263238" stroke-linecap="round" stroke-linejoin="round"/>
<path d="M216.56 272.999C216.56 272.999 226.27 271.499 229.26 269.819" stroke="#263238" stroke-linecap="round" stroke-linejoin="round"/>
<path d="M221.42 274.849C221.42 274.849 227.42 274.479 230.01 273.359" stroke="#263238" stroke-linecap="round" stroke-linejoin="round"/>
<path d="M168 283.79C168 283.79 206.75 278.54 222.5 280.29" stroke="white" stroke-miterlimit="10"/>
<path d="M219.27 337.54C219.27 337.54 230.02 333.04 247.27 337.54C247.27 337.54 245.52 340.29 234.52 342.54C223.52 344.79 219.27 337.54 219.27 337.54Z" fill="white" stroke="#263238" stroke-linecap="round" stroke-linejoin="round"/>
<path d="M220.13 280.28C219.463 280.678 218.76 281.013 218.03 281.28C216.24 281.93 212.51 283.95 211.03 289.75C209.03 297.5 219.03 318.5 220.28 327.75C220.768 332.042 221.519 336.3 222.53 340.5C222.53 340.5 226.28 341.5 232.53 342.5C238.78 343.5 241.03 340.25 241.03 340.25C241.03 340.25 243.78 317.25 239.78 303.25C235.78 289.25 235.03 282.75 229.78 280.75C226.09 279.39 221.79 279.31 220.13 280.28Z" fill="white"/>
<mask id="mask6_31579_6269" style="mask-type:luminance" maskUnits="userSpaceOnUse" x="210" y="279" width="32" height="64">
<path d="M220.13 280.28C219.463 280.678 218.76 281.013 218.03 281.28C216.24 281.93 212.51 283.95 211.03 289.75C209.03 297.5 219.03 318.5 220.28 327.75C220.768 332.042 221.519 336.3 222.53 340.5C222.53 340.5 226.28 341.5 232.53 342.5C238.78 343.5 241.03 340.25 241.03 340.25C241.03 340.25 243.78 317.25 239.78 303.25C235.78 289.25 235.03 282.75 229.78 280.75C226.09 279.39 221.79 279.31 220.13 280.28Z" fill="white"/>
</mask>
<g mask="url(#mask6_31579_6269)">
<path d="M239.71 343C239.71 343 240.87 320.34 234.48 301.47C228.09 282.6 222.57 283.17 217.92 286.94C213.27 290.71 212.99 299.14 215.6 307.57C218.21 316 222.6 325.28 223.15 333.12C223.7 340.96 222.86 346.19 226.06 346.48C229.26 346.77 239.42 348.8 239.71 343Z" fill="#FF81AE"/>
<path opacity="0.53" d="M239.71 343C239.71 343 240.87 320.34 234.48 301.47C228.09 282.6 222.57 283.17 217.92 286.94C213.27 290.71 212.99 299.14 215.6 307.57C218.21 316 222.6 325.28 223.15 333.12C223.7 340.96 222.86 346.19 226.06 346.48C229.26 346.77 239.42 348.8 239.71 343Z" fill="white"/>
</g>
<path d="M220.13 280.28C219.463 280.678 218.76 281.013 218.03 281.28C216.24 281.93 212.51 283.95 211.03 289.75C209.03 297.5 219.03 318.5 220.28 327.75C220.768 332.042 221.519 336.3 222.53 340.5C222.53 340.5 226.28 341.5 232.53 342.5C238.78 343.5 241.03 340.25 241.03 340.25C241.03 340.25 243.78 317.25 239.78 303.25C235.78 289.25 235.03 282.75 229.78 280.75C226.09 279.39 221.79 279.31 220.13 280.28Z" stroke="#263238" stroke-linecap="round" stroke-linejoin="round"/>
<path d="M219.27 337.54C219.27 337.54 236.52 341.79 247.27 337.54C247.27 337.54 241.02 366.54 236.52 379.29C232.02 392.04 232.27 398.04 231.52 405.04C230.77 412.04 226.52 424.29 221.02 426.29C215.52 428.29 215.02 418.79 218.77 409.54C222.52 400.29 224.02 389.04 222.52 375.54C221.02 362.04 219.27 337.54 219.27 337.54Z" fill="#FF81AE"/>
<mask id="mask7_31579_6269" style="mask-type:luminance" maskUnits="userSpaceOnUse" x="216" y="337" width="32" height="90">
<path d="M219.27 337.54C219.27 337.54 236.52 341.79 247.27 337.54C247.27 337.54 241.02 366.54 236.52 379.29C232.02 392.04 232.27 398.04 231.52 405.04C230.77 412.04 226.52 424.29 221.02 426.29C215.52 428.29 215.02 418.79 218.77 409.54C222.52 400.29 224.02 389.04 222.52 375.54C221.02 362.04 219.27 337.54 219.27 337.54Z" fill="white"/>
</mask>
<g mask="url(#mask7_31579_6269)">
<path opacity="0.17" d="M241.74 348.8C242.886 345.448 243.717 341.997 244.22 338.49C237.38 340.14 229.05 339.28 223.95 338.49C224.51 346.43 225.89 368.35 225.18 383.11C224.38 400.06 220.33 406.79 217.18 414.39C216.31 417.36 216.125 420.489 216.64 423.54C218.22 424.91 221.25 424.3 224.29 421.74C229.81 417.09 230.97 400.53 231.55 391.53C232.13 382.53 239.12 356.35 241.74 348.8Z" fill="black"/>
</g>
<path d="M219.27 337.54C219.27 337.54 236.52 341.79 247.27 337.54C247.27 337.54 241.02 366.54 236.52 379.29C232.02 392.04 232.27 398.04 231.52 405.04C230.77 412.04 226.52 424.29 221.02 426.29C215.52 428.29 215.02 418.79 218.77 409.54C222.52 400.29 224.02 389.04 222.52 375.54C221.02 362.04 219.27 337.54 219.27 337.54Z" stroke="#263238" stroke-linecap="round" stroke-linejoin="round"/>
<path d="M237.02 374.04L236.77 397.54L238.77 396.54L237.02 374.04Z" fill="#FF81AE" stroke="#263238" stroke-linecap="round" stroke-linejoin="round"/>
<path d="M237.52 371.54L239.52 394.29L241.27 393.04L237.52 371.54Z" fill="#FF81AE" stroke="#263238" stroke-linecap="round" stroke-linejoin="round"/>
<path d="M212 339C212 339 203.75 334.75 185.5 337.75C188.108 341.376 191.929 343.948 196.27 345C203.52 346.79 212 339 212 339Z" fill="white" stroke="#263238" stroke-linecap="round" stroke-linejoin="round"/>
<path d="M207 282C207 282 198 278.25 191.5 284.25C185 290.25 187 303.25 187.5 305.75C188 308.25 188.5 311 188.5 311L189.75 342.75L207.25 343C207.25 343 210.5 317.75 213 306.75C215.5 295.75 215.52 287.29 207 282Z" fill="white"/>
<mask id="mask8_31579_6269" style="mask-type:luminance" maskUnits="userSpaceOnUse" x="186" y="280" width="29" height="63">
<path d="M207 282C207 282 198 278.25 191.5 284.25C185 290.25 187 303.25 187.5 305.75C188 308.25 188.5 311 188.5 311L189.75 342.75L207.25 343C207.25 343 210.5 317.75 213 306.75C215.5 295.75 215.52 287.29 207 282Z" fill="white"/>
</mask>
<g mask="url(#mask8_31579_6269)">
<path d="M205.43 289C195.27 285.51 192.95 294.81 192.07 302.94C191.19 311.07 191.2 340.4 191.49 342.15C191.57 342.41 191.707 342.649 191.89 342.85L207.27 343.07C207.27 343.07 210.52 317.82 213.02 306.82C213.19 306.05 213.35 305.29 213.5 304.55C213.56 299.79 212.6 291.42 205.43 289Z" fill="#FF81AE"/>
<path opacity="0.53" d="M205.43 289C195.27 285.51 192.95 294.81 192.07 302.94C191.19 311.07 191.2 340.4 191.49 342.15C191.57 342.41 191.707 342.649 191.89 342.85L207.27 343.07C207.27 343.07 210.52 317.82 213.02 306.82C213.19 306.05 213.35 305.29 213.5 304.55C213.56 299.79 212.6 291.42 205.43 289Z" fill="white"/>
</g>
<path d="M207 282C207 282 198 278.25 191.5 284.25C185 290.25 187 303.25 187.5 305.75C188 308.25 188.5 311 188.5 311L189.75 342.75L207.25 343C207.25 343 210.5 317.75 213 306.75C215.5 295.75 215.52 287.29 207 282Z" stroke="#263238" stroke-linecap="round" stroke-linejoin="round"/>
<path d="M185.52 337.79C185.52 337.79 188.77 361.79 192.02 372.79C195.27 383.79 198.52 396.79 198.52 409.79C198.52 422.79 209.02 428.29 211.77 425.79C214.52 423.29 212.27 410.79 210.02 404.29C207.77 397.79 204.77 381.54 205.77 373.04C206.77 364.54 212 339 212 339C212 339 194.52 340 185.52 337.79Z" fill="#FF81AE"/>
<mask id="mask9_31579_6269" style="mask-type:luminance" maskUnits="userSpaceOnUse" x="185" y="337" width="29" height="90">
<path d="M185.52 337.79C185.52 337.79 188.77 361.79 192.02 372.79C195.27 383.79 198.52 396.79 198.52 409.79C198.52 422.79 209.02 428.29 211.77 425.79C214.52 423.29 212.27 410.79 210.02 404.29C207.77 397.79 204.77 381.54 205.77 373.04C206.77 364.54 212 339 212 339C212 339 194.52 340 185.52 337.79Z" fill="white"/>
</mask>
<g mask="url(#mask9_31579_6269)">
<path opacity="0.17" d="M203.11 367.09C204.27 345.6 209.79 339.21 209.79 339.21L209.3 339.15C203.11 339.406 196.909 339.249 190.74 338.68C191.13 344.25 192.56 361.93 195.74 376.79C199.6 394.69 199.01 404.85 201.92 412.98C204.83 421.11 210.92 427.22 210.92 420.53C210.92 413.84 202 388.59 203.11 367.09Z" fill="black"/>
</g>
<path d="M185.52 337.79C185.52 337.79 188.77 361.79 192.02 372.79C195.27 383.79 198.52 396.79 198.52 409.79C198.52 422.79 209.02 428.29 211.77 425.79C214.52 423.29 212.27 410.79 210.02 404.29C207.77 397.79 204.77 381.54 205.77 373.04C206.77 364.54 212 339 212 339C212 339 194.52 340 185.52 337.79Z" stroke="#263238" stroke-linecap="round" stroke-linejoin="round"/>
<path d="M191.27 368.29L190.27 393.04L191.52 393.54L191.27 368.29Z" fill="#FF81AE" stroke="#263238" stroke-linecap="round" stroke-linejoin="round"/>
<path d="M192.02 369.29L193.02 394.04L195.02 392.29L192.02 369.29Z" fill="#FF81AE" stroke="#263238" stroke-linecap="round" stroke-linejoin="round"/>
<path d="M187.06 162.05C187.06 162.05 182.01 178.67 185.56 192.87C189.11 207.07 187.43 222.93 187.06 231.71C186.69 240.49 183.51 247.77 176.41 253.38C169.31 258.99 159.79 258.04 152.69 253.19C145.59 248.34 143.36 234.51 147.28 224.8C151.2 215.09 160.91 198.1 163.71 189.32C166.51 180.54 164.83 176.06 165.58 167.84C166.33 159.62 171.18 144.68 181.27 141.32C191.36 137.96 203.12 138.15 211.15 148.98C219.18 159.81 219.93 176.43 220.67 181.85C221.41 187.27 223.67 189.13 228.14 190.07C232.61 191.01 231.88 194.17 228.52 194.55C225.16 194.93 216.42 192.62 214 189.44C211.58 186.26 213.58 181.29 209.47 176.44C205.36 171.59 191.17 169.71 187.06 162.05Z" fill="#263238" stroke="#263238" stroke-linecap="round" stroke-linejoin="round"/>
<path d="M183.24 226.79C183.38 233.86 182.89 239.91 181.24 243.29C176.38 253.38 169.24 253.29 160.74 251.79" stroke="white" stroke-linecap="round" stroke-linejoin="round"/>
<path d="M187.06 162.05C187.06 162.05 177.77 172.29 179.27 185.79C180.1 193.28 182.12 207.07 182.92 219.58" stroke="white" stroke-linecap="round" stroke-linejoin="round"/>
<path d="M156.35 230.39C153.83 232.66 152.27 231.29 152.27 231.29" stroke="white" stroke-linecap="round" stroke-linejoin="round"/>
<path d="M165.27 185.29C165.27 185.29 167.27 207.79 161.77 221.29C160.962 223.344 159.986 225.327 158.85 227.22" stroke="white" stroke-linecap="round" stroke-linejoin="round"/>
<path d="M211.94 159.15C208.601 155.678 204.079 153.586 199.27 153.29C186.27 152.29 185.94 159.29 185.94 159.29C185.94 159.29 180.77 147.83 199.27 147.29" stroke="white" stroke-linecap="round" stroke-linejoin="round"/>
<path d="M216.27 165.79C215.844 164.697 215.311 163.649 214.68 162.66" stroke="white" stroke-linecap="round" stroke-linejoin="round"/>
</svg>
