<svg width="923" height="225" viewBox="0 0 923 225" fill="none" xmlns="http://www.w3.org/2000/svg">
<path d="M344.799 50H293.722C292.031 49.9989 290.395 50.6019 289.11 51.7002C287.824 52.7985 286.972 54.32 286.709 55.9904L266.051 186.981C265.956 187.589 265.994 188.21 266.162 188.802C266.33 189.394 266.625 189.942 267.025 190.409C267.425 190.876 267.922 191.251 268.481 191.508C269.04 191.764 269.648 191.897 270.263 191.896H294.648C296.34 191.897 297.977 191.293 299.263 190.193C300.549 189.093 301.399 187.57 301.661 185.898L307.233 150.568C307.494 148.897 308.344 147.375 309.628 146.275C310.912 145.176 312.547 144.571 314.238 144.57H330.407C364.053 144.57 383.471 128.287 388.543 96.0188C390.828 81.9017 388.64 70.8097 382.03 63.0415C374.771 54.5115 361.895 50 344.799 50V50ZM350.692 97.8413C347.899 116.171 333.895 116.171 320.355 116.171H312.647L318.054 81.939C318.213 80.9375 318.723 80.0254 319.494 79.3668C320.265 78.7082 321.245 78.3463 322.259 78.3463H325.792C335.016 78.3463 343.716 78.3463 348.212 83.6047C350.894 86.7419 351.715 91.4027 350.692 97.8413V97.8413ZM497.479 97.2513H473.019C472.005 97.2513 471.025 97.6132 470.254 98.2718C469.483 98.9304 468.973 99.8425 468.814 100.844L467.731 107.686L466.021 105.206C460.726 97.5202 448.918 94.9507 437.133 94.9507C410.104 94.9507 387.019 115.424 382.523 144.144C380.185 158.47 383.509 172.169 391.635 181.722C399.088 190.506 409.753 194.166 422.442 194.166C444.221 194.166 456.297 180.161 456.297 180.161L455.207 186.958C455.11 187.566 455.145 188.188 455.311 188.78C455.478 189.373 455.77 189.922 456.169 190.391C456.568 190.86 457.064 191.236 457.622 191.495C458.181 191.753 458.789 191.887 459.404 191.888H481.436C483.128 191.889 484.765 191.285 486.051 190.185C487.337 189.085 488.187 187.562 488.449 185.89L501.668 102.166C501.766 101.56 501.73 100.939 501.565 100.348C501.399 99.7569 501.106 99.2086 500.708 98.7413C500.31 98.274 499.815 97.8987 499.257 97.6415C498.7 97.3842 498.093 97.2511 497.479 97.2513V97.2513ZM463.385 144.861C461.025 158.836 449.934 168.218 435.789 168.218C428.686 168.218 423.01 165.94 419.365 161.622C415.75 157.335 414.376 151.232 415.526 144.435C417.73 130.58 429.007 120.892 442.936 120.892C449.882 120.892 455.528 123.2 459.247 127.555C462.974 131.954 464.453 138.094 463.385 144.861V144.861ZM627.745 97.2513H603.166C602.007 97.2531 600.866 97.5378 599.841 98.0805C598.817 98.6233 597.941 99.4078 597.288 100.366L563.388 150.306L549.019 102.316C548.578 100.852 547.677 99.569 546.451 98.6569C545.224 97.7449 543.736 97.252 542.208 97.2513H518.054C517.376 97.2495 516.708 97.4096 516.104 97.7185C515.501 98.0273 514.98 98.4758 514.584 99.0268C514.189 99.5777 513.931 100.215 513.832 100.886C513.733 101.557 513.795 102.241 514.014 102.883L541.087 182.342L515.635 218.278C515.182 218.915 514.914 219.664 514.859 220.444C514.804 221.223 514.965 222.003 515.324 222.697C515.682 223.391 516.225 223.973 516.892 224.379C517.56 224.786 518.326 225 519.108 225H543.657C544.803 225.002 545.932 224.725 546.948 224.194C547.964 223.664 548.836 222.894 549.49 221.952L631.24 103.936C631.683 103.298 631.943 102.55 631.992 101.775C632.04 100.999 631.875 100.225 631.515 99.536C631.155 98.8472 630.614 98.2702 629.949 97.8675C629.284 97.4647 628.522 97.2516 627.745 97.2513V97.2513Z" fill="#253B80"/>
<path d="M709.705 50.0075H658.682C656.994 50.0082 655.362 50.6154 654.08 51.7199C652.797 52.8243 651.948 54.3535 651.685 56.0323L631.052 187.773C630.956 188.384 630.993 189.008 631.159 189.602C631.326 190.197 631.619 190.748 632.017 191.218C632.415 191.688 632.91 192.065 633.467 192.324C634.025 192.582 634.631 192.716 635.244 192.716H661.427C662.608 192.715 663.75 192.288 664.647 191.514C665.544 190.741 666.138 189.67 666.321 188.494L672.176 151.151C672.437 149.471 673.286 147.94 674.569 146.834C675.852 145.728 677.484 145.12 679.173 145.119H695.315C728.928 145.119 748.315 128.743 753.387 96.29C755.677 82.092 753.477 70.9364 746.875 63.1238C739.632 54.5449 726.779 50.0075 709.705 50.0075V50.0075ZM715.59 98.123C712.808 116.558 698.821 116.558 685.29 116.558H677.599L683.007 82.1296C683.162 81.1223 683.67 80.2042 684.439 79.5414C685.208 78.8786 686.187 78.515 687.199 78.5162H690.728C699.933 78.5162 708.63 78.5162 713.121 83.8048C715.799 86.9599 716.612 91.6475 715.59 98.123V98.123ZM862.191 97.5295H837.776C836.763 97.5267 835.783 97.8899 835.014 98.5529C834.245 99.216 833.737 100.135 833.584 101.143L832.502 108.024L830.786 105.53C825.498 97.8 813.712 95.2158 801.941 95.2158C774.945 95.2158 751.895 115.807 747.405 144.691C745.077 159.099 748.382 172.877 756.498 182.485C763.957 191.319 774.594 195 787.268 195C809.02 195 821.082 180.915 821.082 180.915L819.993 187.751C819.895 188.363 819.931 188.99 820.098 189.587C820.265 190.184 820.559 190.737 820.959 191.209C821.359 191.68 821.856 192.059 822.415 192.318C822.975 192.577 823.584 192.71 824.2 192.709H846.198C847.886 192.708 849.519 192.1 850.802 190.994C852.085 189.888 852.933 188.357 853.195 186.677L866.405 102.473C866.499 101.861 866.46 101.236 866.291 100.641C866.122 100.046 865.828 99.4942 865.427 99.0246C865.027 98.555 864.53 98.1782 863.971 97.9201C863.413 97.6621 862.805 97.5288 862.191 97.5295V97.5295ZM828.138 145.412C825.796 159.467 814.704 168.903 800.576 168.903C793.497 168.903 787.813 166.612 784.172 162.269C780.562 157.957 779.204 151.82 780.338 144.984C782.554 131.049 793.802 121.306 807.714 121.306C814.652 121.306 820.291 123.627 824.006 128.006C827.743 132.431 829.22 138.606 828.138 145.412V145.412ZM890.992 53.6209L870.053 187.773C869.957 188.384 869.994 189.008 870.16 189.602C870.327 190.197 870.619 190.748 871.018 191.218C871.416 191.688 871.911 192.065 872.468 192.324C873.025 192.582 873.632 192.716 874.245 192.716H895.296C898.794 192.716 901.763 190.162 902.3 186.684L922.948 54.9505C923.044 54.3399 923.007 53.7156 922.841 53.1205C922.674 52.5255 922.382 51.9738 921.983 51.5034C921.585 51.033 921.09 50.6551 920.533 50.3956C919.976 50.136 919.37 50.0011 918.756 50H895.184C894.172 50.0036 893.194 50.37 892.426 51.0334C891.658 51.6969 891.149 52.6142 890.992 53.6209V53.6209Z" fill="#179BD7"/>
<path d="M54.2276 218L58.124 193.2L49.4447 192.999H8L36.8019 10.0007C36.8877 9.4416 37.1711 8.93195 37.6005 8.5647C38.0299 8.19745 38.5767 7.99705 39.1413 8.00003H109.023C132.222 8.00003 148.233 12.8376 156.591 22.3857C160.51 26.8649 163.006 31.5457 164.213 36.6968C165.479 42.1017 165.502 48.5592 164.265 56.4351L164.176 57.01V62.0566L168.094 64.2812C171.086 65.8 173.775 67.8544 176.029 70.3431C179.381 74.1728 181.549 79.0402 182.466 84.8109C183.412 90.7458 183.099 97.8081 181.549 105.803C179.761 115.001 176.871 123.011 172.967 129.566C169.522 135.437 164.891 140.523 159.37 144.496C154.185 148.184 148.024 150.984 141.058 152.775C134.308 154.537 126.612 155.426 118.172 155.426H112.733C108.844 155.426 105.067 156.829 102.102 159.345C99.1408 161.888 97.1766 165.401 96.5589 169.259L96.1491 171.491L89.2653 215.2L88.9524 216.806C88.8704 217.313 88.7289 217.567 88.5203 217.739C88.3182 217.904 88.0661 217.996 87.8051 218H54.2276Z" fill="#253B80"/>
<path d="M172.091 57C171.881 58.3359 171.642 59.7017 171.373 61.1048C162.121 108.505 130.471 124.879 90.0478 124.879H69.466C64.5225 124.879 60.3567 128.462 59.5864 133.328L49.0487 200.02L46.0647 218.925C45.9458 219.675 45.9912 220.441 46.1977 221.172C46.4042 221.903 46.767 222.58 47.261 223.158C47.7549 223.735 48.3685 224.199 49.0592 224.517C49.75 224.835 50.5017 225 51.2625 225H87.7667C92.0895 225 95.7616 221.865 96.4422 217.611L96.8012 215.76L103.674 172.234L104.115 169.846C104.789 165.577 108.468 162.442 112.791 162.442H118.251C153.618 162.442 181.305 148.113 189.397 106.646C192.777 89.3238 191.027 74.8598 182.083 64.6872C179.247 61.5404 175.862 58.9355 172.091 57V57Z" fill="#179BD7"/>
<path d="M162.366 53.3364C159.425 52.4785 156.434 51.8089 153.409 51.3317C147.433 50.4054 141.393 49.961 135.347 50.0027H80.6087C78.5255 50.0011 76.5105 50.7511 74.9279 52.1171C73.3453 53.4832 72.2995 55.3752 71.9795 57.4511L60.335 131.83L60 134C60.3628 131.632 61.5539 129.474 63.3579 127.915C65.1618 126.356 67.4595 125.499 69.8353 125.5H90.3248C130.567 125.5 162.075 109.019 171.285 61.3405C171.561 59.9289 171.792 58.5548 172 57.2108C169.57 55.9256 167.037 54.8481 164.428 53.9897C163.744 53.7608 163.057 53.543 162.366 53.3364V53.3364Z" fill="#222D65"/>
<path d="M71.7394 57.391C72.0574 55.3295 73.105 53.4502 74.6919 52.0947C76.2789 50.7392 78.3 49.9973 80.388 50.0037H135.249C141.748 50.0037 147.815 50.4286 153.352 51.3231C157.099 51.9114 160.794 52.7912 164.403 53.9545C167.127 54.8565 169.656 55.9225 171.992 57.1524C174.738 39.6571 171.97 27.7451 162.5 16.9586C152.061 5.08386 133.219 0 109.109 0H39.1154C34.1904 0 29.9893 3.57808 29.2282 8.44577L0.0739467 193.053C-0.0618487 193.91 -0.0101832 194.786 0.225389 195.621C0.460962 196.456 0.874851 197.231 1.43859 197.891C2.00232 198.551 2.70252 199.082 3.49102 199.446C4.27953 199.81 5.13762 199.999 6.00627 200H49.219L60.0688 131.234L71.7394 57.391Z" fill="#253B80"/>
</svg>
