<svg width="1447" height="328" viewBox="0 0 1447 328" fill="none" xmlns="http://www.w3.org/2000/svg">
<path d="M260 16H55C32.9086 16 15 33.9086 15 56V261C15 283.091 32.9086 301 55 301H260C282.091 301 300 283.091 300 261V56C300 33.9086 282.091 16 260 16Z" fill="#20A0E1"/>
<g filter="url(#filter0_i_29395_5697)">
<path fill-rule="evenodd" clip-rule="evenodd" d="M184.685 224.592C176.79 229.867 167.508 232.683 158.013 232.683C145.281 232.683 133.07 227.625 124.067 218.621C115.063 209.618 110.005 197.407 110.005 184.675C110.005 175.18 112.821 165.898 118.096 158.003C123.371 150.108 130.869 143.955 139.642 140.321C148.414 136.687 158.067 135.737 167.379 137.589C176.692 139.442 185.246 144.014 191.96 150.728C198.674 157.442 203.246 165.996 205.099 175.309C206.951 184.621 206.001 194.274 202.367 203.047C198.733 211.819 192.58 219.317 184.685 224.592ZM110.005 52V120.664C124.425 109.849 142.074 104.22 160.092 104.688C178.111 105.157 195.443 111.695 209.282 123.244C223.12 134.793 232.654 150.677 236.338 168.321C240.022 185.965 237.64 204.336 229.579 220.458C221.519 236.579 208.251 249.507 191.925 257.146C175.599 264.786 157.172 266.689 139.63 262.548C122.088 258.406 106.457 248.463 95.2717 234.33C84.0859 220.196 78.0001 202.699 78.0001 184.675V68.4489C87.8384 61.6767 98.5792 56.1213 110.005 52Z" fill="white"/>
</g>
<g filter="url(#filter1_i_29395_5697)">
<path d="M156.439 177L243.5 104H269.5L159.605 193.055L156.439 196.015L94 142H112L156.439 177Z" fill="#FF9302"/>
</g>
<path d="M337.06 261V72H404.155C421.885 72 435.34 75.87 444.52 83.61C453.7 91.35 458.29 102.735 458.29 117.765C458.29 128.655 455.86 137.925 451 145.575C446.14 153.225 438.85 158.58 429.13 161.64L430.48 155.97C444.88 158.76 455.77 164.43 463.15 172.98C470.53 181.53 474.22 192.915 474.22 207.135C474.22 223.965 468.775 237.15 457.885 246.69C447.085 256.23 432.19 261 413.2 261H337.06ZM368.38 232.92H409.15C418.96 232.92 426.79 230.76 432.64 226.44C438.49 222.03 441.415 214.695 441.415 204.435C441.415 193.635 438.355 186.165 432.235 182.025C426.115 177.885 418.42 175.815 409.15 175.815H368.38V232.92ZM368.38 147.87H399.7C408.34 147.87 415.045 146.115 419.815 142.605C424.585 139.005 426.97 132.795 426.97 123.975C426.97 114.975 424.585 108.72 419.815 105.21C415.045 101.7 408.34 99.945 399.7 99.945H368.38V147.87ZM558.118 263.7C543.718 263.7 531.433 260.55 521.263 254.25C511.183 247.95 503.443 239.535 498.043 229.005C492.733 218.475 490.078 206.865 490.078 194.175C490.078 181.485 492.733 169.83 498.043 159.21C503.443 148.59 511.183 140.13 521.263 133.83C531.433 127.44 543.718 124.245 558.118 124.245C572.428 124.245 584.668 127.44 594.838 133.83C605.008 140.13 612.748 148.59 618.058 159.21C623.458 169.83 626.158 181.485 626.158 194.175C626.158 206.865 623.458 218.475 618.058 229.005C612.748 239.535 605.008 247.95 594.838 254.25C584.668 260.55 572.428 263.7 558.118 263.7ZM558.118 238.32C569.998 238.32 579.133 234.315 585.523 226.305C592.003 218.205 595.243 207.495 595.243 194.175C595.243 180.675 592.003 169.875 585.523 161.775C579.133 153.675 569.998 149.625 558.118 149.625C546.238 149.625 537.058 153.675 530.578 161.775C524.098 169.875 520.858 180.675 520.858 194.175C520.858 207.495 524.098 218.205 530.578 226.305C537.058 234.315 546.238 238.32 558.118 238.32ZM709.993 263.7C695.593 263.7 683.308 260.55 673.138 254.25C663.058 247.95 655.318 239.535 649.918 229.005C644.608 218.475 641.953 206.865 641.953 194.175C641.953 181.485 644.608 169.83 649.918 159.21C655.318 148.59 663.058 140.13 673.138 133.83C683.308 127.44 695.593 124.245 709.993 124.245C724.303 124.245 736.543 127.44 746.713 133.83C756.883 140.13 764.623 148.59 769.933 159.21C775.333 169.83 778.033 181.485 778.033 194.175C778.033 206.865 775.333 218.475 769.933 229.005C764.623 239.535 756.883 247.95 746.713 254.25C736.543 260.55 724.303 263.7 709.993 263.7ZM709.993 238.32C721.873 238.32 731.008 234.315 737.398 226.305C743.878 218.205 747.118 207.495 747.118 194.175C747.118 180.675 743.878 169.875 737.398 161.775C731.008 153.675 721.873 149.625 709.993 149.625C698.113 149.625 688.933 153.675 682.453 161.775C675.973 169.875 672.733 180.675 672.733 194.175C672.733 207.495 675.973 218.205 682.453 226.305C688.933 234.315 698.113 238.32 709.993 238.32ZM801.523 261V58.5H831.628V183.915L876.043 126.945H910.873L860.383 190.665L912.088 261H877.123L831.628 198.36V261H801.523Z" fill="#20A0E1"/>
<path d="M934.277 261V72H966.002L1051.32 201.06V72H1082.78V261H1056.72L965.597 124.245V261H934.277ZM1176.17 263.7C1161.77 263.7 1149.48 260.55 1139.31 254.25C1129.23 247.95 1121.49 239.535 1116.09 229.005C1110.78 218.475 1108.13 206.865 1108.13 194.175C1108.13 181.485 1110.78 169.83 1116.09 159.21C1121.49 148.59 1129.23 140.13 1139.31 133.83C1149.48 127.44 1161.77 124.245 1176.17 124.245C1190.48 124.245 1202.72 127.44 1212.89 133.83C1223.06 140.13 1230.8 148.59 1236.11 159.21C1241.51 169.83 1244.21 181.485 1244.21 194.175C1244.21 206.865 1241.51 218.475 1236.11 229.005C1230.8 239.535 1223.06 247.95 1212.89 254.25C1202.72 260.55 1190.48 263.7 1176.17 263.7ZM1176.17 238.32C1188.05 238.32 1197.18 234.315 1203.57 226.305C1210.05 218.205 1213.29 207.495 1213.29 194.175C1213.29 180.675 1210.05 169.875 1203.57 161.775C1197.18 153.675 1188.05 149.625 1176.17 149.625C1164.29 149.625 1155.11 153.675 1148.63 161.775C1142.15 169.875 1138.91 180.675 1138.91 194.175C1138.91 207.495 1142.15 218.205 1148.63 226.305C1155.11 234.315 1164.29 238.32 1176.17 238.32ZM1292.84 261L1253.29 126.945H1284.61L1308.5 225.36L1334.96 130.185H1361.96L1388.15 225.36L1412.32 126.945H1443.64L1403.95 261H1376.14L1348.46 169.47L1320.65 261H1292.84Z" fill="#FF9302"/>
<defs>
<filter id="filter0_i_29395_5697" x="78.0001" y="52" width="162.027" height="216.688" filterUnits="userSpaceOnUse" color-interpolation-filters="sRGB">
<feFlood flood-opacity="0" result="BackgroundImageFix"/>
<feBlend mode="normal" in="SourceGraphic" in2="BackgroundImageFix" result="shape"/>
<feColorMatrix in="SourceAlpha" type="matrix" values="0 0 0 0 0 0 0 0 0 0 0 0 0 0 0 0 0 0 127 0" result="hardAlpha"/>
<feOffset dx="2" dy="4"/>
<feGaussianBlur stdDeviation="2"/>
<feComposite in2="hardAlpha" operator="arithmetic" k2="-1" k3="1"/>
<feColorMatrix type="matrix" values="0 0 0 0 0 0 0 0 0 0 0 0 0 0 0 0 0 0 0.25 0"/>
<feBlend mode="normal" in2="shape" result="effect1_innerShadow_29395_5697"/>
</filter>
<filter id="filter1_i_29395_5697" x="94" y="104" width="175.5" height="94.015" filterUnits="userSpaceOnUse" color-interpolation-filters="sRGB">
<feFlood flood-opacity="0" result="BackgroundImageFix"/>
<feBlend mode="normal" in="SourceGraphic" in2="BackgroundImageFix" result="shape"/>
<feColorMatrix in="SourceAlpha" type="matrix" values="0 0 0 0 0 0 0 0 0 0 0 0 0 0 0 0 0 0 127 0" result="hardAlpha"/>
<feOffset dy="2"/>
<feGaussianBlur stdDeviation="2"/>
<feComposite in2="hardAlpha" operator="arithmetic" k2="-1" k3="1"/>
<feColorMatrix type="matrix" values="0 0 0 0 0 0 0 0 0 0 0 0 0 0 0 0 0 0 0.25 0"/>
<feBlend mode="normal" in2="shape" result="effect1_innerShadow_29395_5697"/>
</filter>
</defs>
</svg>
