<svg xmlns="http://www.w3.org/2000/svg" xmlns:xlink="http://www.w3.org/1999/xlink" width="300" zoomAndPan="magnify" viewBox="0 0 224.87999 89.999999" height="120" preserveAspectRatio="xMidYMid meet" version="1.0"><defs><g/><clipPath id="18add8aaee"><path d="M 37 77 L 45 77 L 45 89.976562 L 37 89.976562 Z M 37 77 " clip-rule="nonzero"/></clipPath><clipPath id="d47b38b4cb"><path d="M 54 77 L 67 77 L 67 89.976562 L 54 89.976562 Z M 54 77 " clip-rule="nonzero"/></clipPath></defs><g fill="#f4bf96" fill-opacity="1"><g transform="translate(38.46345, 82.352564)"><g><path d="M 14.765625 -35.265625 C 14.257812 -35.265625 0.71875 -35.980469 0.71875 -24.253906 C 0.71875 -16.914062 6.03125 -12.695312 13.160156 -12.695312 L 15.691406 -12.695312 C 17.082031 -12.695312 18.222656 -11.851562 18.222656 -10.460938 C 18.222656 -9.113281 17.082031 -8.140625 15.902344 -8.140625 C 15.226562 -8.140625 14.089844 -8.351562 13.667969 -10.039062 C 13.539062 -10.375 13.371094 -10.585938 12.738281 -10.460938 L 1.433594 -9.113281 C 0.800781 -8.984375 0.675781 -8.5625 1.011719 -7.929688 C 2.742188 -3.121094 5.820312 1.519531 16.367188 1.519531 C 21.683594 1.519531 28.390625 -1.390625 28.390625 -10.671875 C 28.390625 -22.105469 18.308594 -21.261719 14.765625 -21.261719 C 13.667969 -21.261719 11.558594 -21.511719 11.558594 -23.539062 C 11.558594 -25.183594 12.949219 -25.898438 13.878906 -25.898438 C 14.554688 -25.898438 15.691406 -25.394531 16.113281 -24.253906 C 16.28125 -23.75 16.660156 -23.539062 17.082031 -23.539062 L 27.417969 -24.972656 C 27.882812 -25.015625 28.21875 -25.476562 28.09375 -26.109375 C 27.628906 -28.390625 25.605469 -35.265625 14.765625 -35.265625 Z M 14.765625 -35.265625 "/></g></g></g><path stroke-linecap="butt" transform="matrix(0.220113, 0, 0, 0.220113, 29.585756, 47.621481)" fill="none" stroke-linejoin="miter" d="M 114.022507 -7.206866 C 111.679961 -7.206866 50.188112 -10.472234 50.188112 42.820701 C 50.188112 76.184244 74.341187 95.315042 106.710922 95.315042 L 118.228443 95.315042 C 124.546221 95.315042 129.692725 99.1483 129.692725 105.466077 C 129.692725 111.588642 124.546221 115.98979 119.169011 115.98979 C 116.116602 115.98979 110.934605 115.049223 109.000229 107.382706 C 108.450086 105.838755 107.65149 104.898187 104.794293 105.466077 L 53.417987 111.588642 C 50.578536 112.209772 50.010646 114.126401 51.501357 116.965852 C 59.363086 138.82962 73.365126 159.877047 121.263106 159.877047 C 145.416181 159.877047 175.922527 146.691349 175.922527 104.525509 C 175.922527 52.599059 130.100896 56.432317 114.022507 56.432317 C 109.000229 56.432317 99.417084 55.261044 99.417084 46.050576 C 99.417084 38.597019 105.734861 35.331651 109.994037 35.331651 C 113.0287 35.331651 118.228443 37.620958 120.145072 42.820701 C 120.890428 45.110008 122.629592 46.050576 124.546221 46.050576 L 171.468139 39.537587 C 173.579981 39.360121 175.123932 37.24828 174.556042 34.391083 C 172.444201 24.009342 163.233733 -7.206866 114.022507 -7.206866 Z M 114.022507 -7.206866 " stroke="#ffffff" stroke-width="3.114264" stroke-opacity="1" stroke-miterlimit="4"/><g fill="#ce5a67" fill-opacity="1"><g transform="translate(50.153515, 41.082688)"><g><path d="M 20.921875 -11.390625 L 12.695312 -11.390625 L 12.695312 -30.328125 C 12.695312 -32.144531 11.09375 -33.746094 9.363281 -33.746094 L 4.472656 -33.746094 C 2.65625 -33.746094 1.390625 -32.144531 1.390625 -30.328125 L 1.390625 -2.785156 C 1.390625 -1.265625 2.363281 0 4.175781 0 L 20.921875 0 C 22.484375 0 23.75 -1.265625 23.75 -2.785156 L 23.75 -8.4375 C 23.75 -9.996094 22.484375 -11.390625 20.921875 -11.390625 Z M 20.921875 -11.390625 "/></g></g></g><g fill="#ce5a67" fill-opacity="1"><g transform="translate(75.292308, 41.082688)"><g><path d="M 33.449219 -30.371094 C 33.703125 -30.582031 33.957031 -31.128906 33.957031 -31.679688 C 33.957031 -32.988281 32.945312 -33.789062 31.847656 -33.789062 L 24.210938 -33.789062 C 23.707031 -33.789062 23.285156 -33.535156 22.90625 -32.988281 L 17.335938 -25.308594 L 12.0625 -32.988281 C 11.640625 -33.660156 10.96875 -33.789062 10.503906 -33.789062 L 2.828125 -33.789062 C 1.730469 -33.789062 0.71875 -32.988281 0.71875 -31.679688 C 0.71875 -31.128906 0.96875 -30.582031 1.265625 -30.371094 L 11.261719 -16.070312 L 11.261719 -2.40625 C 11.261719 -1.011719 12.613281 0 13.921875 0 L 20.753906 0 C 22.0625 0 23.453125 -1.011719 23.453125 -2.40625 L 23.453125 -16.070312 Z M 33.449219 -30.371094 "/></g></g></g><g fill="#ce5a67" fill-opacity="1"><g transform="translate(109.963597, 41.082688)"><g><path d="M 20.921875 -11.390625 L 12.695312 -11.390625 L 12.695312 -30.328125 C 12.695312 -32.144531 11.09375 -33.746094 9.363281 -33.746094 L 4.472656 -33.746094 C 2.65625 -33.746094 1.390625 -32.144531 1.390625 -30.328125 L 1.390625 -2.785156 C 1.390625 -1.265625 2.363281 0 4.175781 0 L 20.921875 0 C 22.484375 0 23.75 -1.265625 23.75 -2.785156 L 23.75 -8.4375 C 23.75 -9.996094 22.484375 -11.390625 20.921875 -11.390625 Z M 20.921875 -11.390625 "/></g></g></g><g fill="#ce5a67" fill-opacity="1"><g transform="translate(135.102387, 41.082688)"><g><path d="M 33.449219 -30.371094 C 33.703125 -30.582031 33.957031 -31.128906 33.957031 -31.679688 C 33.957031 -32.988281 32.945312 -33.789062 31.847656 -33.789062 L 24.210938 -33.789062 C 23.707031 -33.789062 23.285156 -33.535156 22.90625 -32.988281 L 17.335938 -25.308594 L 12.0625 -32.988281 C 11.640625 -33.660156 10.96875 -33.789062 10.503906 -33.789062 L 2.828125 -33.789062 C 1.730469 -33.789062 0.71875 -32.988281 0.71875 -31.679688 C 0.71875 -31.128906 0.96875 -30.582031 1.265625 -30.371094 L 11.261719 -16.070312 L 11.261719 -2.40625 C 11.261719 -1.011719 12.613281 0 13.921875 0 L 20.753906 0 C 22.0625 0 23.453125 -1.011719 23.453125 -2.40625 L 23.453125 -16.070312 Z M 33.449219 -30.371094 "/></g></g></g><path stroke-linecap="butt" transform="matrix(0.220113, 0, 0, 0.220113, 29.585756, 6.351603)" fill="none" stroke-linejoin="miter" d="M 195.106565 101.261717 L 157.714551 101.261717 L 157.714551 15.208621 C 157.714551 6.974215 150.420713 -0.319623 142.558984 -0.319623 L 120.340285 -0.319623 C 112.105878 -0.319623 106.355991 6.974215 106.355991 15.208621 L 106.355991 140.375147 C 106.355991 147.243068 110.739393 152.992955 119.027039 152.992955 L 195.106565 152.992955 C 202.169698 152.992955 207.919585 147.243068 207.919585 140.375147 L 207.919585 114.67812 C 207.919585 107.561748 202.169698 101.261717 195.106565 101.261717 Z M 366.201201 15.031156 C 367.372475 14.037348 368.490508 11.570576 368.490508 9.086056 C 368.490508 3.140957 363.911894 -0.514835 358.907363 -0.514835 L 324.230574 -0.514835 C 321.941267 -0.514835 320.024638 0.656438 318.285475 3.140957 L 292.978873 37.995211 L 269.021009 3.140957 C 267.10438 0.0530546 264.069718 -0.514835 261.957876 -0.514835 L 227.068129 -0.514835 C 222.09909 -0.514835 217.520477 3.140957 217.520477 9.086056 C 217.520477 11.570576 218.63851 14.037348 219.987249 15.031156 L 265.418457 79.965839 L 265.418457 142.096564 C 265.418457 148.414341 271.558768 152.992955 277.503868 152.992955 L 308.507117 152.992955 C 314.452217 152.992955 320.769994 148.414341 320.769994 142.096564 L 320.769994 79.965839 Z M 466.824227 101.261717 L 429.44996 101.261717 L 429.44996 15.208621 C 429.44996 6.974215 422.138375 -0.319623 414.276647 -0.319623 L 392.057947 -0.319623 C 383.823541 -0.319623 378.073654 6.974215 378.073654 15.208621 L 378.073654 140.375147 C 378.073654 147.243068 382.474802 152.992955 390.744701 152.992955 L 466.824227 152.992955 C 473.88736 152.992955 479.654994 147.243068 479.654994 140.375147 L 479.654994 114.67812 C 479.654994 107.561748 473.88736 101.261717 466.824227 101.261717 Z M 637.93661 15.031156 C 639.090137 14.037348 640.225917 11.570576 640.225917 9.086056 C 640.225917 3.140957 635.629557 -0.514835 630.625025 -0.514835 L 595.965983 -0.514835 C 593.676676 -0.514835 591.742301 0.656438 590.020884 3.140957 L 564.714282 37.995211 L 540.756418 3.140957 C 538.839789 0.0530546 535.78738 -0.514835 533.693285 -0.514835 L 498.785791 -0.514835 C 493.816753 -0.514835 489.238139 3.140957 489.238139 9.086056 C 489.238139 11.570576 490.356173 14.037348 491.722658 15.031156 L 537.153866 79.965839 L 537.153866 142.096564 C 537.153866 148.414341 543.276431 152.992955 549.22153 152.992955 L 580.242526 152.992955 C 586.187626 152.992955 592.505403 148.414341 592.505403 142.096564 L 592.505403 79.965839 Z M 637.93661 15.031156 " stroke="#ffffff" stroke-width="3.114264" stroke-opacity="1" stroke-miterlimit="4"/><path stroke-linecap="round" transform="matrix(0.0849807, 0, 0, 0.0849807, 66.192843, 77.408544)" fill="none" stroke-linejoin="round" d="M 256.521163 3.144684 C 255.55587 2.730987 254.590578 2.271324 253.625285 1.857627 C 252.797891 1.535862 252.016463 1.168132 251.189069 0.846368 C 122.437388 -52.888268 41.904383 48.789246 -111.485249 3.144684 C -170.04635 -14.276554 -219.000488 -12.851598 -256.554977 -0.44069 " stroke="#000000" stroke-width="7" stroke-opacity="1" stroke-miterlimit="4"/><path stroke-linecap="round" transform="matrix(0.0849795, -0.000444956, 0.000444956, 0.0849795, 49.997402, 72.300583)" fill-opacity="1" fill="#fef7ec" fill-rule="nonzero" stroke-linejoin="round" d="M -66.27799 57.297866 C -60.072136 48.458737 -49.748864 43.364491 -39.344731 40.385148 C -28.986324 37.359599 -18.130958 35.991463 -7.862798 32.643672 C 11.338593 26.308837 27.772419 13.018501 39.945875 -3.052161 C 52.165538 -19.168547 60.354178 -37.972123 66.293147 -57.293116 C 58.922507 -45.472234 45.647803 -38.554763 32.341574 -34.395475 C 19.035104 -30.190221 5.050461 -28.148965 -7.939062 -23.022713 C -40.182199 -10.366758 -63.657449 22.100898 -66.27799 57.297866 Z M -66.27799 57.297866 " stroke="#000000" stroke-width="3" stroke-opacity="1" stroke-miterlimit="4"/><path stroke-linecap="round" transform="matrix(0.0849795, -0.000444956, 0.000444956, 0.0849795, 49.982856, 72.362695)" fill="none" stroke-linejoin="round" d="M -66.102999 56.567871 C -59.010555 36.425513 -45.189313 21.696522 -27.853021 11.628598 C -10.516489 1.514708 16.587632 -4.135211 33.28594 -15.263715 C 48.369913 -25.343433 56.63436 -41.066826 66.138677 -56.553893 " stroke="#000000" stroke-width="3" stroke-opacity="1" stroke-miterlimit="4"/><path fill="#fef7ec" d="M 71.886719 77.628906 C 77.339844 79.699219 76.214844 83.976562 88.589844 84.8125 C 83.949219 78.546875 77.398438 78.109375 71.886719 77.628906 Z M 71.886719 77.628906 " fill-opacity="1" fill-rule="nonzero"/><g clip-path="url(#18add8aaee)"><path stroke-linecap="round" transform="matrix(0.0849795, -0.000444956, 0.000444956, 0.0849795, 40.80587, 83.227862)" fill="none" stroke-linejoin="round" d="M 42.544658 -68.926831 C -19.986989 -48.201383 -50.639393 3.029179 -40.718283 48.404546 C -37.825339 66.530675 -15.34908 75.611918 -1.310044 63.182414 C 11.709805 52.264484 16.719115 26.135514 1.284994 15.298432 C -14.251168 6.391429 -31.451251 25.561524 -26.475892 41.032473 C -23.781249 53.135892 -2.494077 52.282046 -5.686641 38.705077 " stroke="#000000" stroke-width="3" stroke-opacity="1" stroke-miterlimit="4"/></g><path stroke-linecap="round" transform="matrix(0.0849364, 0.00274402, -0.00274402, 0.0849364, 78.262297, 80.320995)" fill="none" stroke-linejoin="round" d="M 76.039462 29.222702 C 31.733315 1.634202 -30.719786 -19.66523 -76.007633 -29.239802 " stroke="#000000" stroke-width="3" stroke-opacity="1" stroke-miterlimit="4"/><path fill="#fef7ec" d="M 76.15625 74.75 C 76.074219 74.820312 75.992188 74.886719 75.910156 74.953125 C 80.59375 73.308594 84.785156 69.121094 84.417969 64.238281 C 79.269531 65.546875 76.621094 70.183594 75.917969 74.886719 C 75.996094 74.84375 76.074219 74.796875 76.15625 74.75 Z M 76.15625 74.75 " fill-opacity="1" fill-rule="nonzero"/><path stroke-linecap="round" transform="matrix(0.0849174, 0.00327986, -0.00327986, 0.0849174, 80.18961, 69.595259)" fill="none" stroke-linejoin="round" d="M -47.887082 64.944654 C 6.43859 43.48012 53.82189 -7.662661 47.286668 -64.910995 C -12.657492 -47.185504 -41.693602 8.538703 -47.825377 64.16026 C -47.860664 64.437627 -47.897726 64.669061 -47.887082 64.944654 " stroke="#000000" stroke-width="3" stroke-opacity="1" stroke-miterlimit="4"/><path stroke-linecap="round" transform="matrix(0.0849174, 0.00327986, -0.00327986, 0.0849174, 79.076967, 71.482363)" fill="none" stroke-linejoin="round" d="M 35.681191 -42.432993 C 18.192825 -12.869143 -4.971992 15.02793 -32.859525 39.749369 C -33.792165 40.613402 -34.726579 41.431504 -35.660993 42.249605 C -35.659219 42.295537 -35.655671 42.387401 -35.653897 42.433333 " stroke="#000000" stroke-width="3" stroke-opacity="1" stroke-miterlimit="4"/><path stroke-linecap="round" transform="matrix(0.0849807, 0, 0, 0.0849807, 72.416837, 76.451661)" fill="none" stroke-linejoin="round" d="M 44.324854 -20.391821 C 44.186955 -20.299888 44.049056 -20.207956 43.911157 -20.116023 C 42.991831 -19.518461 42.072504 -18.966865 41.199144 -18.415269 C 7.597759 2.49941 -17.591788 11.141079 -44.34419 20.380311 " stroke="#000000" stroke-width="4" stroke-opacity="1" stroke-miterlimit="4"/><path fill="#fef7ec" d="M 55.101562 77.390625 C 55.09375 77.394531 55.089844 77.394531 55.082031 77.398438 C 55.082031 77.398438 55.058594 77.425781 55.058594 77.425781 C 55.386719 83.152344 61.066406 87.875 66.761719 88.917969 C 63.609375 84.6875 59.644531 80.777344 55.101562 77.390625 Z M 55.101562 77.390625 " fill-opacity="1" fill-rule="nonzero"/><g clip-path="url(#d47b38b4cb)"><path stroke-linecap="round" transform="matrix(0.0848592, 0.004543, -0.004543, 0.0848592, 60.911282, 83.153758)" fill="none" stroke-linejoin="round" d="M -72.375651 -63.625116 C -64.91756 3.458744 4.792815 55.379614 72.371993 64.052292 C 32.668926 16.325007 -16.379964 -27.127305 -71.89286 -64.065252 C -71.982204 -64.014437 -72.028105 -64.01198 -72.117448 -63.961164 " stroke="#000000" stroke-width="3" stroke-opacity="1" stroke-miterlimit="4"/></g><path stroke-linecap="round" transform="matrix(0.0848592, 0.004543, -0.004543, 0.0848592, 59.797688, 82.482002)" fill="none" stroke-linejoin="round" d="M 58.464737 56.14139 C 4.604501 35.45638 -29.472542 -10.362556 -58.391516 -56.135407 C -58.386602 -56.043606 -58.427588 -55.949348 -58.468574 -55.855089 " stroke="#000000" stroke-width="3" stroke-opacity="1" stroke-miterlimit="4"/><path stroke-linecap="round" transform="matrix(0.0849795, -0.000444956, 0.000444956, 0.0849795, 66.342427, 72.301146)" fill-opacity="1" fill="#fef7ec" fill-rule="nonzero" stroke-linejoin="round" d="M -64.854789 54.770502 C -61.637431 54.833315 -47.19626 53.39202 -45.77012 53.169653 C -10.948334 48.433516 27.420756 33.419355 46.007034 4.097821 C 57.367068 -14.643183 57.249636 -36.110367 64.931932 -54.778694 C -34.848774 -39.810285 -5.8637 25.476661 -64.808583 54.724777 C -64.854548 54.724536 -64.900514 54.724296 -64.946721 54.770021 C -64.900755 54.770261 -64.854789 54.770502 -64.854789 54.770502 Z M -64.854789 54.770502 " stroke="#000000" stroke-width="3" stroke-opacity="1" stroke-miterlimit="4"/><path stroke-linecap="round" transform="matrix(0.0849795, -0.000444956, 0.000444956, 0.0849795, 65.687663, 72.808437)" fill="none" stroke-linejoin="round" d="M 57.299028 -48.882784 C 22.043319 -5.16894 15.458416 32.167718 -57.11878 48.841442 C -57.164746 48.841201 -57.210952 48.886926 -57.302884 48.886445 " stroke="#000000" stroke-width="3" stroke-opacity="1" stroke-miterlimit="4"/><path stroke-linecap="round" transform="matrix(0.0849807, 0, 0, 0.0849807, 58.773862, 77.218786)" fill="none" stroke-linejoin="round" d="M 28.815895 -4.137392 C 27.436905 -3.723695 26.011949 -3.264032 24.541026 -2.804369 C 8.360879 1.976129 -12.967496 4.963941 -28.779913 3.998648 " stroke="#000000" stroke-width="4" stroke-opacity="1" stroke-miterlimit="4"/><path stroke-linecap="round" transform="matrix(0.0849335, 0.00283148, -0.00283148, 0.0849335, 80.234162, 81.229702)" fill="none" stroke-linejoin="round" d="M -99.584785 -39.075555 C -34.638167 -16.819039 -46.283947 33.930292 99.588867 39.047481 C 42.644928 -32.871086 -34.572398 -35.53992 -99.584785 -39.075555 Z M -99.584785 -39.075555 " stroke="#000000" stroke-width="3" stroke-opacity="1" stroke-miterlimit="4"/><path fill="#fef7ec" d="M 87.734375 77.605469 C 87.667969 77.597656 87.601562 77.589844 87.535156 77.582031 C 87.535156 77.582031 87.503906 77.601562 87.503906 77.601562 C 90.988281 81.210938 96.804688 83.082031 102.734375 82.5 C 99.296875 78.492188 93.355469 76.746094 87.527344 77.519531 C 87.59375 77.546875 87.664062 77.578125 87.734375 77.605469 Z M 87.734375 77.605469 " fill-opacity="1" fill-rule="nonzero"/><path stroke-linecap="round" transform="matrix(0.0849795, -0.000444956, 0.000444956, 0.0849795, 95.088457, 79.974152)" fill="none" stroke-linejoin="round" d="M -89.285786 -28.570918 C -89.194095 -28.524471 -89.14837 -28.478265 -89.102886 -28.386092 C -48.32387 14.300897 20.003768 36.676835 89.815558 30.193296 C 49.61268 -17.179306 -20.193563 -38.092044 -88.822037 -29.349928 C -89.144038 -29.305647 -89.466038 -29.261366 -89.788039 -29.217085 " stroke="#000000" stroke-width="3" stroke-opacity="1" stroke-miterlimit="4"/><path stroke-linecap="round" transform="matrix(0.0849795, -0.000444956, 0.000444956, 0.0849795, 93.839437, 79.511756)" fill="none" stroke-linejoin="round" d="M 74.074532 23.095098 C 30.620835 -0.391707 -18.985532 -16.418114 -71.722142 -22.80785 C -72.503077 -22.903873 -73.284013 -22.999896 -74.064948 -23.095919 " stroke="#000000" stroke-width="3" stroke-opacity="1" stroke-miterlimit="4"/><path stroke-linecap="round" transform="matrix(0, -0.0849807, -0.0849807, 0, 37.263037, 47.996221)" fill="none" stroke-linejoin="round" d="M 256.539571 3.141227 C 255.574279 2.72753 254.563019 2.267867 253.597726 1.85417 C 252.816299 1.532405 251.988905 1.210641 251.207477 0.842911 C 122.455796 -52.891726 41.876825 48.785789 -111.466841 3.141227 C -170.027942 -14.280011 -219.028046 -12.855055 -256.536569 -0.444147 " stroke="#000000" stroke-width="7" stroke-opacity="1" stroke-miterlimit="4"/><path stroke-linecap="round" transform="matrix(0.000444956, -0.0849795, -0.0849795, -0.000444956, 42.370998, 64.19167)" fill-opacity="1" fill="#fef7ec" fill-rule="nonzero" stroke-linejoin="round" d="M -66.305445 57.294265 C -60.099591 48.455136 -49.730594 43.407097 -39.372186 40.381547 C -28.967813 37.356239 -18.112448 35.988102 -7.844287 32.640312 C 11.311138 26.305236 27.744964 13.0149 39.964386 -3.055521 C 52.184048 -19.171907 60.372689 -37.975484 66.311658 -57.296476 C 58.941017 -45.475594 45.666313 -38.558123 32.360085 -34.398835 C 19.053615 -30.193581 5.068972 -28.152325 -7.920551 -23.026073 C -40.163689 -10.370118 -63.638938 22.097538 -66.305445 57.294265 Z M -66.305445 57.294265 " stroke="#000000" stroke-width="3" stroke-opacity="1" stroke-miterlimit="4"/><path stroke-linecap="round" transform="matrix(0.000444956, -0.0849795, -0.0849795, -0.000444956, 42.308884, 64.206213)" fill="none" stroke-linejoin="round" d="M -66.130482 56.564242 C -59.038038 36.421884 -45.217037 21.738858 -27.880505 11.624968 C -10.543972 1.511078 16.560149 -4.13884 33.258457 -15.267345 C 48.388396 -25.346821 56.606877 -41.070455 66.111194 -56.557522 " stroke="#000000" stroke-width="3" stroke-opacity="1" stroke-miterlimit="4"/><path fill="#fef7ec" d="M 37.039062 42.304688 C 34.972656 36.847656 30.695312 37.976562 29.859375 25.597656 C 36.125 30.238281 36.5625 36.792969 37.039062 42.304688 Z M 37.039062 42.304688 " fill-opacity="1" fill-rule="nonzero"/><path stroke-linecap="round" transform="matrix(0.000444956, -0.0849795, -0.0849795, -0.000444956, 31.443726, 73.383192)" fill="none" stroke-linejoin="round" d="M 42.563056 -68.93011 C -19.968592 -48.204662 -50.620996 3.0259 -40.745851 48.401026 C -37.807183 66.573361 -15.376648 75.608398 -1.337612 63.178895 C 11.728202 52.261205 16.737512 26.132235 1.303391 15.295154 C -14.23277 6.38815 -31.478819 25.558004 -26.457495 41.029194 C -23.762851 53.132613 -2.521886 52.324492 -5.668244 38.701798 " stroke="#000000" stroke-width="3" stroke-opacity="1" stroke-miterlimit="4"/><path stroke-linecap="round" transform="matrix(-0.00274402, -0.0849364, -0.0849364, 0.00274402, 34.350585, 35.926773)" fill="none" stroke-linejoin="round" d="M 76.011871 29.220126 C 31.751667 1.630142 -30.701435 -19.66929 -76.033739 -29.196436 " stroke="#000000" stroke-width="3" stroke-opacity="1" stroke-miterlimit="4"/><path fill="#fef7ec" d="M 39.921875 38.035156 C 39.851562 38.113281 39.785156 38.195312 39.71875 38.28125 C 41.363281 33.59375 45.550781 29.40625 50.433594 29.769531 C 49.125 34.917969 44.488281 37.566406 39.785156 38.269531 C 39.828125 38.191406 39.875 38.113281 39.921875 38.035156 Z M 39.921875 38.035156 " fill-opacity="1" fill-rule="nonzero"/><path stroke-linecap="round" transform="matrix(-0.00327986, -0.0849174, -0.0849174, 0.00327986, 45.076313, 33.99946)" fill="none" stroke-linejoin="round" d="M -47.914689 64.942147 C 6.456914 43.47584 53.794282 -7.665167 47.304992 -64.915275 C -12.639168 -47.189784 -41.675277 8.534423 -47.807053 64.15598 C -47.84234 64.433346 -47.879402 64.664781 -47.914689 64.942147 " stroke="#000000" stroke-width="3" stroke-opacity="1" stroke-miterlimit="4"/><path stroke-linecap="round" transform="matrix(-0.00327986, -0.0849174, -0.0849174, 0.00327986, 43.189219, 35.112096)" fill="none" stroke-linejoin="round" d="M 35.653497 -42.435383 C 18.166905 -12.825601 -4.953754 15.023765 -32.887219 39.746979 C -33.773927 40.609238 -34.708341 41.42734 -35.688687 42.247215 C -35.640981 42.291373 -35.637433 42.383237 -35.635659 42.429169 " stroke="#000000" stroke-width="3" stroke-opacity="1" stroke-miterlimit="4"/><path stroke-linecap="round" transform="matrix(0, -0.0849807, -0.0849807, 0, 38.219919, 41.772232)" fill="none" stroke-linejoin="round" d="M 44.343319 -20.395289 C 44.20542 -20.303357 44.021554 -20.211424 43.883655 -20.119491 C 42.964329 -19.521929 42.090969 -18.970333 41.171642 -18.418737 C 7.616223 2.495941 -17.573324 11.137611 -44.325726 20.376843 " stroke="#000000" stroke-width="4" stroke-opacity="1" stroke-miterlimit="4"/><path fill="#fef7ec" d="M 37.28125 59.085938 C 37.277344 59.09375 37.277344 59.097656 37.273438 59.105469 C 37.273438 59.105469 37.242188 59.132812 37.242188 59.132812 C 31.515625 58.800781 26.796875 53.125 25.753906 47.425781 C 29.984375 50.582031 33.894531 54.542969 37.28125 59.085938 Z M 37.28125 59.085938 " fill-opacity="1" fill-rule="nonzero"/><path stroke-linecap="round" transform="matrix(-0.004543, -0.0848592, -0.0848592, 0.004543, 31.51783, 53.27778)" fill="none" stroke-linejoin="round" d="M -72.400921 -63.581111 C -64.89693 3.500292 4.765088 55.377719 72.390166 64.047939 C 32.641199 16.323112 -16.36179 -27.131657 -71.874687 -64.069605 C -71.964031 -64.01879 -72.009931 -64.016333 -72.099275 -63.965517 " stroke="#000000" stroke-width="3" stroke-opacity="1" stroke-miterlimit="4"/><path stroke-linecap="round" transform="matrix(-0.004543, -0.0848592, -0.0848592, 0.004543, 32.189585, 54.391381)" fill="none" stroke-linejoin="round" d="M 58.437093 56.139478 C 4.576858 35.454468 -29.454285 -10.366924 -58.373259 -56.139776 C -58.414245 -56.045518 -58.409331 -55.953716 -58.450317 -55.859458 " stroke="#000000" stroke-width="3" stroke-opacity="1" stroke-miterlimit="4"/><path stroke-linecap="round" transform="matrix(0.000444956, -0.0849795, -0.0849795, -0.000444956, 42.37043, 47.846647)" fill-opacity="1" fill="#fef7ec" fill-rule="nonzero" stroke-linejoin="round" d="M -64.83625 54.767085 C -61.664857 54.829658 -47.17772 53.388603 -45.797546 53.165995 C -10.975761 48.429859 27.439295 33.415939 45.979608 4.094164 C 57.385607 -14.6466 57.221969 -36.068059 64.950471 -54.78211 C -34.830235 -39.813701 -5.845161 25.473244 -64.790044 54.72136 C -64.836009 54.72112 -64.882216 54.766845 -64.928181 54.766604 C -64.882216 54.766845 -64.882216 54.766845 -64.83625 54.767085 Z M -64.83625 54.767085 " stroke="#000000" stroke-width="3" stroke-opacity="1" stroke-miterlimit="4"/><path stroke-linecap="round" transform="matrix(0.000444956, -0.0849795, -0.0849795, -0.000444956, 41.863144, 48.501411)" fill="none" stroke-linejoin="round" d="M 57.271601 -48.886385 C 22.061858 -5.1723 15.476955 32.164358 -57.100241 48.838082 C -57.146207 48.837841 -57.238379 48.883326 -57.284345 48.883085 " stroke="#000000" stroke-width="3" stroke-opacity="1" stroke-miterlimit="4"/><path stroke-linecap="round" transform="matrix(0, -0.0849807, -0.0849807, 0, 37.452795, 55.415205)" fill="none" stroke-linejoin="round" d="M 28.788365 -4.140858 C 27.409375 -3.681194 25.984419 -3.267498 24.559463 -2.807834 C 8.333349 1.972664 -12.995026 4.960475 -28.807443 3.995182 " stroke="#000000" stroke-width="4" stroke-opacity="1" stroke-miterlimit="4"/><path stroke-linecap="round" transform="matrix(-0.00283148, -0.0849335, -0.0849335, 0.00283148, 33.441882, 33.954915)" fill="none" stroke-linejoin="round" d="M -99.610758 -39.03212 C -34.665671 -16.821544 -46.265511 33.926255 99.607303 39.043444 C 42.617423 -32.873591 -34.598371 -35.496484 -99.610758 -39.03212 Z M -99.610758 -39.03212 " stroke="#000000" stroke-width="3" stroke-opacity="1" stroke-miterlimit="4"/><path fill="#fef7ec" d="M 37.066406 26.457031 C 37.074219 26.523438 37.082031 26.589844 37.089844 26.65625 C 37.089844 26.65625 37.070312 26.683594 37.070312 26.683594 C 33.460938 23.199219 31.589844 17.382812 32.171875 11.457031 C 36.179688 14.894531 37.925781 20.835938 37.152344 26.660156 C 37.121094 26.59375 37.09375 26.523438 37.066406 26.457031 Z M 37.066406 26.457031 " fill-opacity="1" fill-rule="nonzero"/><path stroke-linecap="round" transform="matrix(0.000444956, -0.0849795, -0.0849795, -0.000444956, 34.697436, 19.10061)" fill="none" stroke-linejoin="round" d="M -89.267326 -28.574191 C -89.221601 -28.527985 -89.175876 -28.481778 -89.084426 -28.389365 C -48.305411 14.297624 20.022228 36.673562 89.788051 30.189782 C 49.585173 -17.18282 -20.221069 -38.095558 -88.803578 -29.353201 C -89.125578 -29.30892 -89.493545 -29.26488 -89.815545 -29.220599 " stroke="#000000" stroke-width="3" stroke-opacity="1" stroke-miterlimit="4"/><path stroke-linecap="round" transform="matrix(0.000444956, -0.0849795, -0.0849795, -0.000444956, 35.159828, 20.349629)" fill="none" stroke-linejoin="round" d="M 74.092975 23.091763 C 30.639277 -0.395042 -18.967089 -16.421449 -71.749665 -22.811426 C -72.5306 -22.907449 -73.311536 -23.003472 -74.092471 -23.099495 " stroke="#000000" stroke-width="3" stroke-opacity="1" stroke-miterlimit="4"/><path fill="#fef7ec" d="M 40.832031 79.492188 C 40.765625 79.601562 40.6875 79.722656 40.589844 79.855469 C 40.277344 80.277344 39.574219 80.964844 39.050781 81.011719 C 38.527344 81.0625 37.449219 80.894531 37 80.617188 C 34.914062 79.3125 34.019531 80.011719 32.1875 79.457031 C 32.882812 78.855469 33.242188 77.609375 33.246094 76.6875 C 33.25 75.832031 33.410156 74.824219 34.113281 74.386719 C 34.164062 74.355469 34.21875 74.328125 34.277344 74.300781 C 34.660156 74.132812 35.140625 74.132812 35.414062 73.816406 C 35.738281 73.441406 35.582031 72.808594 35.917969 72.441406 C 36.191406 72.140625 36.664062 72.160156 37.070312 72.203125 C 37.160156 72.210938 37.246094 72.21875 37.335938 72.230469 C 38.253906 72.328125 39.175781 72.425781 40.09375 72.519531 C 40.421875 72.554688 40.761719 72.59375 41.050781 72.75 C 41.34375 72.90625 41.441406 72.980469 41.617188 73.058594 C 41.863281 73.496094 41.964844 73.667969 42.199219 73.914062 C 42.394531 74.117188 42.839844 74.375 43.148438 74.515625 C 43.460938 74.65625 43.785156 74.863281 44.042969 75.085938 C 44.324219 75.324219 44.527344 75.664062 44.84375 75.855469 C 45.226562 76.089844 45.714844 76.070312 46.148438 75.960938 C 46.585938 75.851562 47 75.664062 47.4375 75.570312 C 47.457031 75.566406 47.476562 75.566406 47.492188 75.5625 C 47.492188 75.5625 47.550781 75.625 47.550781 75.625 C 47.542969 75.628906 47.539062 75.632812 47.53125 75.636719 C 48.132812 76.664062 48.367188 77.902344 48.15625 79.066406 C 48.042969 79.710938 47.800781 80.324219 47.640625 80.957031 C 47.480469 81.589844 47.410156 82.273438 47.675781 82.792969 C 47.394531 82.8125 47.152344 82.609375 46.976562 82.390625 C 46.804688 82.171875 46.65625 81.917969 46.417969 81.769531 C 45.683594 81.304688 44.546875 82.097656 43.902344 81.511719 C 43.640625 81.277344 43.554688 80.882812 43.261719 80.695312 C 42.882812 80.453125 42.386719 80.6875 41.9375 80.660156 C 41.371094 80.628906 40.886719 80.066406 40.84375 79.496094 C 40.84375 79.496094 40.832031 79.492188 40.832031 79.492188 Z M 40.832031 79.492188 " fill-opacity="1" fill-rule="nonzero"/><path fill="#fef7ec" d="M 41.617188 73.058594 C 41.734375 72.828125 41.769531 72.484375 41.824219 72.234375 C 41.878906 71.984375 42.03125 71.625 42.226562 71.460938 C 42.777344 70.996094 42.601562 70.414062 43.148438 69.742188 C 43.175781 69.703125 43.210938 69.664062 43.25 69.625 C 43.273438 69.605469 43.296875 69.582031 43.320312 69.558594 C 43.722656 69.191406 44.472656 68.746094 44.886719 68.75 C 45.4375 68.757812 45.929688 69.308594 46.457031 69.160156 C 46.71875 69.085938 46.902344 68.859375 47.128906 68.714844 C 47.484375 68.484375 47.925781 68.46875 48.34375 68.574219 C 48.515625 68.613281 48.679688 68.671875 48.832031 68.746094 C 49.371094 69 49.582031 69.328125 50.109375 69.597656 C 50.640625 69.867188 51.429688 69.9375 51.953125 70 C 51.335938 70.34375 50.664062 70.75 50.460938 71.425781 C 50.351562 71.777344 50.390625 72.152344 50.390625 72.519531 C 50.394531 72.886719 50.347656 73.277344 50.117188 73.558594 C 49.761719 73.988281 49.082031 74.039062 48.742188 74.480469 C 48.550781 74.730469 48.496094 75.082031 48.261719 75.292969 C 48.054688 75.476562 47.765625 75.507812 47.492188 75.5625 C 47.476562 75.566406 47.457031 75.566406 47.4375 75.570312 C 47 75.664062 46.585938 75.851562 46.148438 75.960938 C 45.714844 76.070312 45.226562 76.089844 44.84375 75.855469 C 44.527344 75.664062 44.324219 75.324219 44.042969 75.085938 C 43.785156 74.863281 43.460938 74.65625 43.148438 74.515625 C 42.839844 74.375 42.394531 74.117188 42.199219 73.914062 C 41.964844 73.667969 41.863281 73.496094 41.617188 73.058594 Z M 41.617188 73.058594 " fill-opacity="1" fill-rule="nonzero"/><path fill="#fef7ec" d="M 43.320312 69.558594 C 43.296875 69.582031 43.273438 69.605469 43.25 69.625 C 43.25 69.625 43.242188 69.617188 43.242188 69.617188 C 42.871094 69.316406 42.933594 68.726562 43.128906 68.285156 C 43.320312 67.847656 43.617188 67.425781 43.609375 66.945312 C 43.601562 66.449219 43.257812 66.011719 42.863281 65.710938 C 42.53125 65.457031 42.15625 65.269531 41.8125 65.039062 C 41.511719 64.78125 41.667969 64.363281 41.886719 64.085938 C 42.128906 63.773438 42.375 63.59375 42.738281 63.433594 C 43.101562 63.273438 43.488281 63.164062 43.839844 62.980469 C 44.265625 62.761719 44.640625 62.429688 45.101562 62.304688 C 45.554688 62.183594 46.03125 62.28125 46.496094 62.285156 C 46.960938 62.292969 47.488281 62.175781 47.878906 61.816406 C 47.601562 62.125 47.628906 62.617188 47.8125 62.992188 C 48 63.367188 48.3125 63.65625 48.589844 63.96875 C 48.867188 64.277344 49.128906 64.640625 49.160156 65.058594 C 49.210938 65.660156 48.78125 66.207031 48.75 66.8125 C 48.734375 67.121094 48.824219 67.425781 48.816406 67.734375 C 48.804688 68.042969 48.644531 68.472656 48.34375 68.574219 C 47.925781 68.46875 47.484375 68.484375 47.128906 68.714844 C 46.902344 68.859375 46.71875 69.085938 46.457031 69.160156 C 45.929688 69.308594 45.4375 68.757812 44.886719 68.75 C 44.472656 68.746094 43.722656 69.191406 43.320312 69.558594 Z M 43.320312 69.558594 " fill-opacity="1" fill-rule="nonzero"/><path fill="#fef7ec" d="M 37.335938 72.21875 C 36.898438 72.175781 36.613281 71.675781 36.550781 71.230469 C 36.480469 70.769531 36.53125 70.265625 36.28125 69.867188 C 36.054688 69.503906 35.808594 69.433594 35.503906 69.128906 C 34.96875 68.59375 34.867188 67.792969 35.050781 67.054688 C 35.085938 66.902344 35.136719 66.757812 35.195312 66.613281 C 35.496094 65.878906 35.644531 65.546875 35.863281 64.664062 C 36.019531 64.039062 36.082031 63.609375 35.519531 62.65625 C 36.34375 63.128906 36.691406 62.890625 37.664062 63.542969 C 38.433594 64.058594 39.578125 63.222656 40.398438 63.648438 C 41.035156 63.976562 41.042969 64.460938 41.609375 64.894531 C 41.675781 64.945312 41.742188 64.992188 41.8125 65.039062 C 42.15625 65.269531 42.53125 65.457031 42.863281 65.710938 C 43.257812 66.011719 43.601562 66.449219 43.609375 66.945312 C 43.617188 67.425781 43.320312 67.847656 43.128906 68.285156 C 42.933594 68.726562 42.871094 69.316406 43.242188 69.617188 C 43.242188 69.617188 43.25 69.625 43.25 69.625 C 43.210938 69.664062 43.175781 69.703125 43.148438 69.742188 C 42.601562 70.414062 42.777344 70.996094 42.226562 71.460938 C 42.03125 71.625 41.878906 71.984375 41.824219 72.234375 C 41.769531 72.484375 41.734375 72.828125 41.617188 73.058594 C 41.441406 72.980469 41.34375 72.90625 41.050781 72.75 C 40.761719 72.59375 40.421875 72.554688 40.09375 72.519531 C 39.175781 72.425781 38.253906 72.328125 37.335938 72.230469 C 37.335938 72.230469 37.335938 72.21875 37.335938 72.21875 Z M 37.335938 72.21875 " fill-opacity="1" fill-rule="nonzero"/><path fill="#fef7ec" d="M 37.335938 72.21875 C 37.335938 72.21875 37.335938 72.230469 37.335938 72.230469 C 37.246094 72.21875 37.160156 72.210938 37.070312 72.203125 C 36.664062 72.160156 36.191406 72.140625 35.917969 72.441406 C 35.582031 72.808594 35.738281 73.441406 35.414062 73.816406 C 35.140625 74.132812 34.660156 74.132812 34.277344 74.300781 C 34.21875 74.328125 34.164062 74.355469 34.113281 74.386719 C 33.769531 74.40625 33.496094 74.070312 33.382812 73.753906 C 33.269531 73.433594 33.21875 73.066406 32.964844 72.84375 C 32.722656 72.632812 32.371094 72.617188 32.082031 72.472656 C 31.539062 72.195312 31.34375 71.53125 31.191406 70.9375 C 31.039062 70.347656 30.808594 69.679688 30.246094 69.476562 C 30.824219 69.441406 31.453125 69.390625 31.878906 68.992188 C 32.140625 68.75 32.289062 68.40625 32.492188 68.109375 C 33.023438 67.335938 34 66.894531 34.925781 67.035156 C 34.929688 67.035156 34.933594 67.03125 34.9375 67.027344 C 34.9375 67.027344 35.050781 67.054688 35.050781 67.054688 C 34.867188 67.792969 34.96875 68.59375 35.503906 69.128906 C 35.808594 69.433594 36.054688 69.503906 36.28125 69.867188 C 36.53125 70.265625 36.480469 70.769531 36.550781 71.230469 C 36.613281 71.675781 36.898438 72.175781 37.335938 72.21875 Z M 37.335938 72.21875 " fill-opacity="1" fill-rule="nonzero"/><path stroke-linecap="round" transform="matrix(0.027056, 0.0181941, -0.0181941, 0.027056, 38.871683, 66.919069)" fill="none" stroke-linejoin="round" d="M -70.237729 -22.831039 C -33.643908 -20.584965 4.210063 -10.668096 35.270996 3.9612 C 50.885464 11.508114 57.548518 15.834422 70.23691 22.89461 " stroke="#000000" stroke-width="8" stroke-opacity="1" stroke-miterlimit="4"/><path stroke-linecap="round" transform="matrix(0.027056, 0.0181941, -0.0181941, 0.027056, 46.804456, 71.483176)" fill="none" stroke-linejoin="round" d="M 29.474011 -48.073535 C -4.168729 -18.664431 -18.82022 15.154575 -29.48805 48.027241 " stroke="#000000" stroke-width="8" stroke-opacity="1" stroke-miterlimit="4"/><path stroke-linecap="round" transform="matrix(0.027056, 0.0181941, -0.0181941, 0.027056, 36.955818, 66.687456)" fill="none" stroke-linejoin="round" d="M 95.396221 -125.075359 C 92.804421 -125.06499 90.31204 -125.121477 87.752804 -125.277382 C 65.91616 -126.618859 57.427278 -138.813072 35.606187 -136.26685 C 7.441034 -133.063901 -7.381645 -92.199718 -35.792023 -92.152518 C -71.712107 -92.108504 -76.482208 -80.093849 -105.549041 -78.01707 C -74.920075 -63.386045 -69.156703 -51.3803 -62.436621 -32.799094 C -52.894797 -6.586567 -50.990017 4.404523 -46.076483 28.243097 C -45.094122 32.924418 -43.912924 37.472029 -42.20034 41.951057 C -34.237388 63.883393 -17.947186 82.526 4.832344 86.987206 C 17.801711 89.527162 25.268485 87.104822 37.252305 92.473164 C 50.434335 98.335143 57.766211 112.029278 67.444662 122.557296 C 76.656854 132.82135 92.471887 140.666519 104.342194 134.272343 C 104.739869 134.004923 105.204399 133.83692 105.602074 133.5695 " stroke="#000000" stroke-width="8" stroke-opacity="1" stroke-miterlimit="4"/><path stroke-linecap="round" transform="matrix(0.027056, 0.0181941, -0.0181941, 0.027056, 42.537721, 67.31351)" fill="none" stroke-linejoin="round" d="M 57.356784 46.574464 C 42.764154 45.270465 34.259719 29.188552 31.676019 14.611474 C 29.059755 0.20067 29.395219 -15.617549 20.973192 -27.712344 C 12.283745 -40.204813 -3.952887 -45.456455 -19.14203 -46.359323 C -31.93821 -47.13885 -44.691459 -45.492851 -57.384765 -45.475299 " stroke="#000000" stroke-width="8" stroke-opacity="1" stroke-miterlimit="4"/><path stroke-linecap="round" transform="matrix(0.027056, 0.0181941, -0.0181941, 0.027056, 46.416823, 64.483016)" fill="none" stroke-linejoin="round" d="M -107.66884 92.954723 C -119.736526 91.540936 -122.913282 78.228923 -122.092552 67.426301 C -121.277006 55.327779 -118.088964 46.54264 -111.584084 36.248938 C -105.079204 25.955237 -97.108694 16.552847 -91.303202 5.863199 C -84.21045 -6.991467 -80.348942 -21.860159 -70.756897 -32.930472 C -61.296834 -43.767656 -47.496368 -49.438521 -35.598682 -57.294871 C -23.634142 -65.051801 -12.218267 -77.059815 -8.427071 -92.891859 C -10.204241 -80.291059 -1.084555 -68.232284 10.006224 -61.830279 C 21.196423 -55.49513 34.097207 -53.486558 46.504353 -50.279778 C 58.844644 -47.172416 71.723233 -42.405772 79.672089 -32.302808 C 91.260233 -17.861439 89.683899 3.411256 99.251104 19.356003 C 104.13499 27.477504 111.636326 33.694496 116.719049 41.682287 C 121.702353 49.736934 124.980257 63.414058 119.063249 71.146796 " stroke="#000000" stroke-width="8" stroke-opacity="1" stroke-miterlimit="4"/><path stroke-linecap="round" transform="matrix(0.027056, 0.0181941, -0.0181941, 0.027056, 46.588262, 71.711129)" fill="none" stroke-linejoin="round" d="M -103.45803 119.374197 C -104.419924 111.502835 -109.408413 102.152289 -112.295283 94.853517 C -115.182153 87.554745 -117.4555 75.800868 -115.292481 68.282521 C -109.230207 47.025108 -123.665475 35.220199 -121.245945 8.760448 C -121.218565 7.298274 -120.992349 5.70239 -120.666713 4.039651 C -120.404477 3.141426 -120.209095 2.143782 -120.013714 1.146139 C -116.057972 -15.085308 -104.591066 -39.255243 -93.985824 -46.242475 C -79.834071 -55.47022 -57.880727 -49.875932 -46.999695 -62.679296 C -41.608888 -69.04755 -40.813808 -77.956031 -37.521163 -85.512126 C -32.418515 -97.461654 -21.451618 -105.413967 -9.008722 -109.883167 C -3.965745 -111.830608 1.21267 -113.147245 6.360249 -113.865641 C 24.425624 -116.62944 35.410072 -111.888447 53.444611 -114.054005 C 71.578568 -116.286418 92.864547 -128.001631 107.256342 -135.369527 C 97.431438 -116.057557 87.284355 -94.218914 93.680529 -73.543002 C 96.913772 -62.723369 104.326058 -53.847722 110.610447 -44.50236 C 116.994254 -35.223854 122.486749 -24.479717 121.434617 -13.377111 C 119.741583 3.642773 103.31184 16.568021 102.217046 33.618741 C 101.624261 43.257445 106.249366 53.141104 103.894422 62.521028 C 101.767423 70.737034 94.945278 76.479669 88.921938 82.551395 C 88.591119 82.918234 88.094025 83.25251 87.663786 83.686205 C 78.133412 93.560037 70.804075 105.418787 61.541121 115.690294 C 52.377587 125.894946 40.28452 134.748939 26.530171 135.335624 C 15.201349 135.879376 4.215172 130.706416 -7.021144 129.455447 C -17.393527 128.201021 -29.188608 128.480809 -39.548895 130.25015 C -49.809762 131.952636 -65.555942 133.012492 -74.003349 131.185477 C -84.180351 128.933408 -89.706867 126.297218 -103.45803 119.374197 " stroke="#000000" stroke-width="8" stroke-opacity="1" stroke-miterlimit="4"/><path stroke-linecap="round" transform="matrix(0.027056, 0.0181941, -0.0181941, 0.027056, 45.762263, 78.909382)" fill="none" stroke-linejoin="round" d="M -10.75889 -114.301243 C -10.824017 -113.968695 -10.856581 -113.802421 -10.988563 -113.569292 C 21.90484 -97.717863 49.063061 -70.213434 63.617298 -36.976468 C 71.765262 -18.633575 76.097565 1.120189 82.851939 19.967089 C 89.606312 38.813988 99.516434 57.415661 115.16865 66.0922 C 108.344776 71.402868 98.704344 70.378116 90.48661 67.81915 C 82.368294 65.193329 74.244794 61.271608 65.639754 61.571863 C 38.993262 62.30981 23.634013 101.946676 -2.798359 98.064973 C -13.470726 96.579146 -22.410314 88.008668 -33.075769 88.250708 C -46.864409 88.5717 -55.479277 103.027434 -67.380419 110.019851 C -82.330978 118.918504 -104.28605 112.89225 -115.140515 99.112521 " stroke="#000000" stroke-width="8" stroke-opacity="1" stroke-miterlimit="4"/><path stroke-linecap="round" transform="matrix(0.027056, 0.0181941, -0.0181941, 0.027056, 37.56295, 76.702507)" fill="none" stroke-linejoin="round" d="M 101.747415 -65.943903 C 100.140245 -44.072967 116.36505 -33.471451 122.454058 -23.128446 C 130.015607 -10.166262 131.601664 4.215434 130.947207 15.05062 C 131.129034 18.970883 131.21317 23.389968 131.000778 28.441585 C 130.26764 44.527225 124.138781 74.058858 111.618932 84.21048 C 99.165938 94.46152 68.851592 108.638548 52.671718 109.268165 C -22.747526 111.76298 -33.547337 144.868774 -89.668165 162.1064 C -82.267329 134.895689 -94.447613 97.030432 -110.12602 73.500754 C -124.667889 51.661195 -137.840362 23.270096 -127.43277 0.101262 C -126.675168 -1.563206 -125.751292 -3.19511 -124.727997 -4.893869 C -117.859734 -15.720684 -105.631229 -23.943873 -104.087188 -36.676655 C -102.253531 -51.769835 -117.060822 -65.201463 -114.795199 -80.296372 C -112.983737 -92.631479 -100.619794 -100.223864 -89.544837 -106.083198 C -87.124496 -107.42203 -84.803573 -108.694007 -82.316377 -109.93342 C -57.281592 -123.158923 -32.147389 -136.451281 -7.17946 -149.776202 C 1.773411 -154.49727 11.091393 -159.319484 21.122588 -160.290019 C 31.253201 -161.327409 35.008919 -161.109833 40.819866 -162.129942 " stroke="#000000" stroke-width="8" stroke-opacity="1" stroke-miterlimit="4"/><path stroke-linecap="round" transform="matrix(0.027056, 0.0181941, -0.0181941, 0.027056, 33.446629, 70.045465)" fill="none" stroke-linejoin="round" d="M 91.267349 99.080413 C 82.852776 105.460764 70.143917 101.590616 61.845503 95.476498 C 53.480233 89.262962 45.903401 80.786718 35.630437 79.465438 C 25.856294 78.241848 16.641187 83.861141 6.810558 85.129932 C -11.755366 87.364073 -28.091687 73.805647 -42.131008 61.301351 C -56.103473 48.896474 -73.401417 35.840325 -91.194186 40.297699 C -77.081909 29.508361 -61.94461 17.452231 -57.927197 0.024303 C -55.411163 -10.618957 -57.516508 -21.908304 -57.427729 -32.940598 C -57.144109 -61.717816 -39.84406 -89.665933 -13.875032 -101.93154 C -13.775613 -101.998395 -13.743049 -102.164669 -13.710486 -102.330943 C -14.075597 -102.229796 -14.408145 -102.294923 -14.773256 -102.193776 " stroke="#000000" stroke-width="8" stroke-opacity="1" stroke-miterlimit="4"/><path stroke-linecap="round" transform="matrix(0.027056, 0.0181941, -0.0181941, 0.027056, 44.837971, 67.081719)" fill="none" stroke-linejoin="round" d="M 3.765296 89.014047 C -12.626323 61.632689 -4.680548 29.435488 0.915198 -0.459529 C 6.47838 -30.188272 10.766128 -63.101872 -4.888356 -88.957657 " stroke="#000000" stroke-width="8" stroke-opacity="1" stroke-miterlimit="4"/><path stroke-linecap="round" transform="matrix(0.027056, 0.0181941, -0.0181941, 0.027056, 43.855321, 76.994966)" fill="none" stroke-linejoin="round" d="M -78.222477 -39.46882 C -20.292291 -28.037288 34.876905 -0.744604 78.268572 39.521174 " stroke="#000000" stroke-width="8" stroke-opacity="1" stroke-miterlimit="4"/><path stroke-linecap="round" transform="matrix(0.027056, 0.0181941, -0.0181941, 0.027056, 38.324856, 75.827452)" fill="none" stroke-linejoin="round" d="M 49.932459 -92.746986 C 0.0319743 -32.336892 -22.589486 27.631784 -49.941842 92.803068 " stroke="#000000" stroke-width="8" stroke-opacity="1" stroke-miterlimit="4"/><path stroke-linecap="round" transform="matrix(0.027056, 0.0181941, -0.0181941, 0.027056, 34.926511, 70.995758)" fill="none" stroke-linejoin="round" d="M -39.341988 11.74196 C -11.783988 -2.025296 -1.97928 -9.773587 39.348892 -11.866189 " stroke="#000000" stroke-width="8" stroke-opacity="1" stroke-miterlimit="4"/><path stroke-linecap="round" transform="matrix(0.025304, 0.0205612, -0.0205612, 0.025304, 42.983557, 72.91874)" fill="none" stroke-linejoin="round" d="M 28.630779 -29.77851 C 29.055083 -28.11644 29.386407 -26.378818 29.549196 -24.658623 C 30.857255 -12.599834 27.603313 -0.075945 20.380014 9.652773 C 12.232748 20.904138 -15.981735 28.547356 -29.818845 29.75669 " stroke="#000000" stroke-width="5.2" stroke-opacity="1" stroke-miterlimit="4"/><path fill="#000000" d="M 44.238281 72.902344 C 44.1875 72.867188 44.148438 72.816406 44.140625 72.757812 C 44.128906 72.695312 44.164062 72.648438 44.179688 72.589844 C 44.195312 72.550781 44.195312 72.503906 44.207031 72.460938 C 44.246094 72.332031 44.4375 72.300781 44.554688 72.308594 C 44.570312 72.308594 44.582031 72.3125 44.597656 72.3125 C 44.832031 72.355469 44.894531 72.636719 44.757812 72.808594 C 44.675781 72.910156 44.523438 72.9375 44.402344 72.945312 C 44.34375 72.949219 44.285156 72.933594 44.238281 72.902344 Z M 44.238281 72.902344 " fill-opacity="1" fill-rule="nonzero"/><path stroke-linecap="round" transform="matrix(0.0270542, 0.0181968, -0.0181968, 0.0270542, 41.580726, 72.107752)" fill="none" stroke-linejoin="round" d="M -17.248214 -23.56893 C -15.84936 -22.777177 -14.38187 -21.454045 -12.813196 -19.765811 C -3.13192 -8.806797 9.237471 17.526103 17.203943 23.574295 " stroke="#000000" stroke-width="5.2" stroke-opacity="1" stroke-miterlimit="4"/><path fill="#000000" d="M 41.316406 70.910156 C 41.324219 70.890625 41.335938 70.871094 41.347656 70.855469 C 41.394531 70.796875 41.464844 70.757812 41.535156 70.753906 C 41.597656 70.753906 41.660156 70.785156 41.707031 70.828125 C 41.804688 70.925781 41.835938 71.097656 41.792969 71.230469 C 41.769531 71.304688 41.710938 71.363281 41.605469 71.378906 C 41.5625 71.382812 41.515625 71.382812 41.460938 71.359375 C 41.289062 71.289062 41.242188 71.066406 41.316406 70.910156 Z M 41.316406 70.910156 " fill-opacity="1" fill-rule="nonzero"/><path stroke-linecap="round" transform="matrix(0.0249399, 0.0210014, -0.0210014, 0.0249399, 40.195928, 73.378747)" fill="none" stroke-linejoin="round" d="M 27.018726 -35.5889 C 16.527517 6.450344 -13.911969 5.456285 -25.965684 32.992006 C -26.375673 33.807128 -26.708491 34.713893 -27.041309 35.620658 " stroke="#000000" stroke-width="5.2" stroke-opacity="1" stroke-miterlimit="4"/><path fill="#000000" d="M 38.972656 73.613281 C 38.980469 73.632812 38.988281 73.652344 38.992188 73.671875 C 39.011719 73.820312 38.839844 73.960938 38.710938 73.996094 C 38.539062 74.046875 38.335938 73.980469 38.296875 73.792969 C 38.265625 73.636719 38.28125 73.417969 38.417969 73.320312 C 38.65625 73.152344 38.808594 73.363281 38.929688 73.539062 C 38.945312 73.5625 38.960938 73.585938 38.972656 73.613281 Z M 38.972656 73.613281 " fill-opacity="1" fill-rule="nonzero"/><path stroke-linecap="round" transform="matrix(0.0261316, 0.0194986, -0.0194986, 0.0261316, 40.707947, 71.551364)" fill="none" stroke-linejoin="round" d="M -49.966563 -20.439569 C -47.858497 -20.218735 -45.82208 -20.093923 -43.714014 -19.873089 C -25.101138 -17.766662 -9.394765 -12.744079 -3.099358 -10.116809 C 7.767477 -5.369695 35.245616 16.430876 49.996186 20.372844 " stroke="#000000" stroke-width="5.2" stroke-opacity="1" stroke-miterlimit="4"/><path fill="#000000" d="M 39.953125 70.179688 C 39.859375 70.324219 39.667969 70.265625 39.53125 70.222656 C 39.394531 70.179688 39.347656 70.019531 39.347656 69.886719 C 39.347656 69.875 39.347656 69.859375 39.351562 69.84375 C 39.378906 69.609375 39.65625 69.53125 39.839844 69.660156 C 39.945312 69.734375 39.980469 69.886719 39.992188 70.007812 C 40 70.066406 39.984375 70.132812 39.953125 70.179688 Z M 39.953125 70.179688 " fill-opacity="1" fill-rule="nonzero"/><path stroke-linecap="round" transform="matrix(0.0263152, 0.0192501, -0.0192501, 0.0263152, 41.866006, 74.294818)" fill="none" stroke-linejoin="round" d="M -28.545192 -26.096202 C -14.72583 -7.407828 -2.014564 -10.32342 6.843543 4.423731 C 9.170663 8.213706 20.134649 23.201655 28.510758 26.129251 " stroke="#000000" stroke-width="5.2" stroke-opacity="1" stroke-miterlimit="4"/><path fill="#000000" d="M 42.328125 75.949219 C 42.269531 75.980469 42.195312 75.996094 42.121094 75.984375 C 41.992188 75.960938 41.878906 75.847656 41.863281 75.710938 C 41.847656 75.558594 41.964844 75.410156 42.105469 75.367188 C 42.292969 75.308594 42.480469 75.414062 42.503906 75.617188 C 42.515625 75.753906 42.441406 75.882812 42.328125 75.949219 Z M 42.328125 75.949219 " fill-opacity="1" fill-rule="nonzero"/><path stroke-linecap="round" transform="matrix(0.0271311, 0.018082, -0.018082, 0.0271311, 42.711835, 71.844946)" fill="none" stroke-linejoin="round" d="M -0.235858 -48.694986 C 13.251369 -23.273338 3.176934 21.450776 -6.330186 48.663568 " stroke="#000000" stroke-width="5.2" stroke-opacity="1" stroke-miterlimit="4"/><path fill="#000000" d="M 43.886719 70.542969 C 43.859375 70.605469 43.8125 70.660156 43.75 70.699219 C 43.640625 70.761719 43.492188 70.746094 43.410156 70.65625 C 43.316406 70.550781 43.328125 70.363281 43.414062 70.242188 C 43.523438 70.082031 43.71875 70.046875 43.84375 70.183594 C 43.929688 70.277344 43.941406 70.421875 43.886719 70.542969 Z M 43.886719 70.542969 " fill-opacity="1" fill-rule="nonzero"/><g fill="#f4bf96" fill-opacity="1"><g transform="translate(66.867833, 81.287511)"><g><path d="M 28.261719 -33.742188 L 4.34375 -33.742188 C 2.742188 -33.742188 1.390625 -32.4375 1.390625 -30.792969 L 1.390625 -25.011719 C 1.390625 -23.410156 2.742188 -22.058594 4.34375 -22.058594 L 10.164062 -22.058594 C 10.335938 -22.058594 10.460938 -21.890625 10.460938 -21.765625 L 10.460938 -2.867188 C 10.460938 -1.265625 11.769531 0.0859375 13.457031 0.0859375 L 19.191406 0.0859375 C 20.792969 0.0859375 22.144531 -1.265625 22.144531 -2.867188 L 22.144531 -21.765625 C 22.144531 -21.890625 22.3125 -22.058594 22.480469 -22.058594 L 28.261719 -22.058594 C 29.863281 -22.058594 31.214844 -23.410156 31.214844 -25.011719 L 31.214844 -30.792969 C 31.214844 -32.4375 29.863281 -33.742188 28.261719 -33.742188 Z M 28.261719 -33.742188 "/></g></g></g><g fill="#f4bf96" fill-opacity="1"><g transform="translate(104.659034, 81.287511)"><g><path d="M 14.46875 -34.25 C 7.550781 -34.25 0.71875 -28.683594 0.71875 -21.722656 L 0.71875 -12.105469 C 0.71875 -4.894531 7.550781 0.71875 14.46875 0.71875 C 21.554688 0.71875 28.21875 -4.894531 28.21875 -12.105469 L 28.21875 -21.722656 C 28.21875 -28.683594 21.554688 -34.25 14.46875 -34.25 Z M 17.292969 -12.527344 C 17.292969 -11.09375 15.984375 -9.828125 14.46875 -9.828125 C 12.90625 -9.828125 11.683594 -11.09375 11.683594 -12.527344 L 11.683594 -20.964844 C 11.683594 -22.480469 12.90625 -23.746094 14.46875 -23.746094 C 15.984375 -23.746094 17.292969 -22.480469 17.292969 -20.964844 Z M 17.292969 -12.527344 "/></g></g></g><g fill="#f4bf96" fill-opacity="1"><g transform="translate(138.780861, 81.287511)"><g><path d="M 27.628906 -3.585938 L 25.011719 -13.835938 C 24.929688 -14.171875 24.84375 -14.425781 24.71875 -14.636719 C 26.574219 -16.828125 27.753906 -19.53125 27.753906 -23.199219 C 27.753906 -29.652344 24.042969 -33.703125 19.445312 -33.703125 L 4.21875 -33.660156 C 2.574219 -33.660156 1.265625 -32.308594 1.265625 -29.90625 L 1.265625 -3.035156 C 1.265625 -1.476562 2.574219 -0.125 4.21875 -0.125 L 9.617188 -0.125 C 10.460938 -0.125 11.304688 -0.464844 11.851562 -1.140625 C 12.613281 -1.984375 12.570312 -2.445312 12.570312 -3.121094 L 12.570312 -10.164062 C 12.570312 -10.25 12.613281 -10.417969 12.78125 -10.417969 C 12.949219 -10.417969 13.035156 -10.292969 13.035156 -10.207031 L 13.371094 -8.476562 L 14.46875 -3.332031 C 14.890625 -1.433594 16.746094 -0.125 18.179688 -0.125 L 25.011719 -0.125 C 26.65625 -0.125 28.050781 -1.601562 27.628906 -3.585938 Z M 16.40625 -22.101562 L 16.40625 -21.511719 C 16.40625 -20.160156 15.269531 -19.023438 13.917969 -19.023438 L 13.117188 -19.023438 C 12.78125 -19.023438 12.570312 -19.277344 12.570312 -19.570312 L 12.570312 -24.085938 C 12.570312 -24.378906 12.78125 -24.632812 13.117188 -24.632812 L 13.917969 -24.632812 C 15.269531 -24.632812 16.40625 -23.496094 16.40625 -22.101562 Z M 16.40625 -22.101562 "/></g></g></g><g fill="#f4bf96" fill-opacity="1"><g transform="translate(173.113581, 81.287511)"><g><path d="M 13.160156 -24.589844 L 21.722656 -24.589844 C 22.945312 -24.589844 23.957031 -25.601562 23.957031 -26.785156 L 23.957031 -31.507812 C 23.957031 -32.730469 22.945312 -33.703125 21.722656 -33.703125 L 4.472656 -33.703125 C 2.742188 -33.703125 1.390625 -32.351562 1.390625 -31.382812 L 1.390625 -3.921875 C 1.390625 -1.433594 2.742188 -0.0859375 4.472656 -0.0859375 L 21.722656 -0.0859375 C 22.945312 -0.0859375 23.957031 -1.054688 23.957031 -2.277344 L 23.957031 -7 C 23.957031 -8.226562 22.945312 -9.28125 21.722656 -9.28125 L 13.160156 -9.28125 C 12.992188 -9.28125 12.863281 -9.40625 12.863281 -9.574219 L 12.863281 -12.273438 C 12.863281 -12.441406 12.992188 -12.570312 13.160156 -12.570312 L 19.359375 -12.570312 C 20.457031 -12.570312 21.386719 -13.457031 21.386719 -14.59375 L 21.386719 -19.191406 C 21.386719 -20.289062 20.457031 -21.214844 19.359375 -21.214844 L 13.160156 -21.214844 C 12.992188 -21.214844 12.863281 -21.34375 12.863281 -21.46875 L 12.863281 -24.253906 C 12.863281 -24.378906 12.992188 -24.589844 13.160156 -24.589844 Z M 13.160156 -24.589844 "/></g></g></g><path stroke-linecap="butt" transform="matrix(0.7496, 0, 0, 0.7496, 50.936904, 48.00092)" fill="none" stroke-linejoin="miter" d="M 60.882229 -2.017929 L 28.985006 -2.017929 C 26.843239 -2.017929 25.040194 -0.272206 25.040194 1.921673 L 25.040194 9.628909 C 25.040194 11.775888 26.843239 13.573722 28.985006 13.573722 L 36.744354 13.573722 C 36.978854 13.573722 37.145609 13.792588 37.145609 13.959344 L 37.145609 39.165498 C 37.145609 41.312476 38.891332 43.11031 41.142533 43.11031 L 48.792447 43.11031 C 50.923792 43.11031 52.721626 41.312476 52.721626 39.165498 L 52.721626 13.959344 C 52.721626 13.792588 52.956126 13.573722 53.174993 13.573722 L 60.882229 13.573722 C 63.029208 13.573722 64.827042 11.775888 64.827042 9.628909 L 64.827042 1.921673 C 64.827042 -0.272206 63.029208 -2.017929 60.882229 -2.017929 Z M 92.904519 -2.690162 C 83.670427 -2.690162 74.566612 4.740885 74.566612 14.027088 L 74.566612 26.846427 C 74.566612 36.476563 83.670427 43.959722 92.904519 43.959722 C 102.357478 43.959722 111.242426 36.476563 111.242426 26.846427 L 111.242426 14.027088 C 111.242426 4.740885 102.357478 -2.690162 92.904519 -2.690162 Z M 96.666943 26.283626 C 96.666943 28.206527 94.92122 29.894928 92.904519 29.894928 C 90.814863 29.894928 89.194207 28.206527 89.194207 26.283626 L 89.194207 15.027622 C 89.194207 13.010921 90.814863 11.322521 92.904519 11.322521 C 94.92122 11.322521 96.666943 13.010921 96.666943 15.027622 Z M 155.979831 38.217075 L 152.493597 24.548326 C 152.384163 24.094959 152.269519 23.751025 152.092341 23.480047 C 154.56762 20.551402 156.146587 16.955734 156.146587 12.046865 C 156.146587 3.448529 151.201241 -1.965818 145.057338 -1.965818 L 124.754842 -1.908495 C 122.555752 -1.908495 120.810029 -0.110661 120.810029 3.104595 L 120.810029 38.946631 C 120.810029 41.036287 122.555752 42.834121 124.754842 42.834121 L 131.951389 42.834121 C 133.082201 42.834121 134.207801 42.380754 134.937357 41.474021 C 135.953524 40.34842 135.896202 39.728298 135.896202 38.837198 L 135.896202 29.441561 C 135.896202 29.332127 135.953524 29.097627 136.172391 29.097627 C 136.391257 29.097627 136.516324 29.274805 136.516324 29.384239 L 136.954058 31.692762 L 138.423591 38.550586 C 138.986392 41.088398 141.46167 42.834121 143.368938 42.834121 L 152.493597 42.834121 C 154.687475 42.834121 156.542631 40.859109 155.979831 38.217075 Z M 141.008303 13.516399 L 141.008303 14.303277 C 141.008303 16.101111 139.497081 17.627968 137.694036 17.627968 L 136.625757 17.627968 C 136.172391 17.627968 135.896202 17.284034 135.896202 16.882778 L 135.896202 10.869154 C 135.896202 10.483532 136.172391 10.139598 136.625757 10.139598 L 137.694036 10.139598 C 139.497081 10.139598 141.008303 11.666454 141.008303 13.516399 Z M 182.483552 10.191709 L 193.89589 10.191709 C 195.532179 10.191709 196.89228 8.847242 196.89228 7.268275 L 196.89228 0.962828 C 196.89228 -0.657828 195.532179 -1.965818 193.89589 -1.965818 L 170.888826 -1.965818 C 168.580303 -1.965818 166.777257 -0.162772 166.777257 1.140006 L 166.777257 37.763708 C 166.777257 41.088398 168.580303 42.891444 170.888826 42.891444 L 193.89589 42.891444 C 195.532179 42.891444 196.89228 41.599088 196.89228 39.962798 L 196.89228 33.657351 C 196.89228 32.021062 195.532179 30.624483 193.89589 30.624483 L 182.483552 30.624483 C 182.259474 30.624483 182.082296 30.457728 182.082296 30.223228 L 182.082296 26.622349 C 182.082296 26.403482 182.259474 26.226304 182.483552 26.226304 L 190.753589 26.226304 C 192.223122 26.226304 193.458156 25.043381 193.458156 23.532159 L 193.458156 17.393467 C 193.458156 15.934356 192.223122 14.699322 190.753589 14.699322 L 182.483552 14.699322 C 182.259474 14.699322 182.082296 14.522144 182.082296 14.355389 L 182.082296 10.645076 C 182.082296 10.483532 182.259474 10.191709 182.483552 10.191709 Z M 182.483552 10.191709 " stroke="#ffffff" stroke-width="0.914474" stroke-opacity="1" stroke-miterlimit="4"/></svg>