<svg width="920" height="736" viewBox="0 0 920 736" fill="none" xmlns="http://www.w3.org/2000/svg">
<path d="M165.271 731.185V683.848C165.828 675.794 162.896 667.89 157.222 662.151C151.548 656.412 143.681 653.395 135.628 653.867C125.015 653.171 114.865 658.311 109.139 667.28C103.918 658.578 94.359 653.432 84.2263 653.867C75.4038 653.421 67.0049 657.684 62.152 665.071V655.761H45.7539V731.185H62.3096V689.686C61.5966 684.464 63.25 679.196 66.8185 675.319C70.3871 671.443 75.4983 669.363 80.7574 669.647C91.6369 669.647 97.1555 676.747 97.1555 689.528V731.501H113.711V689.686C113.027 684.47 114.691 679.219 118.253 675.35C121.815 671.48 126.908 669.391 132.159 669.647C143.354 669.647 148.715 676.747 148.715 689.528V731.501L165.271 731.185ZM410.217 655.761H383.254V632.881H366.699V655.761H351.72V670.751H367.014V705.465C367.014 722.98 373.794 733.395 393.188 733.395C400.433 733.419 407.538 731.395 413.685 727.556L408.955 713.513C404.558 716.138 399.567 717.604 394.449 717.773C386.565 717.773 383.57 712.724 383.57 705.15V670.751H410.374L410.217 655.761ZM550.073 653.867C541.928 653.628 534.305 657.866 530.206 664.913V655.761H513.966V731.185H530.364V688.897C530.364 676.432 535.725 669.489 546.131 669.489C549.638 669.441 553.121 670.084 556.38 671.382L561.425 655.603C557.681 654.262 553.735 653.569 549.758 653.552L550.073 653.867ZM338.633 661.757C329.351 656.234 318.679 653.496 307.886 653.867C288.808 653.867 276.352 663.019 276.352 678.01C276.352 690.317 285.497 697.891 302.368 700.258L310.251 701.363C319.239 702.625 323.496 704.992 323.496 709.252C323.496 715.091 317.504 718.404 306.31 718.404C297.305 718.665 288.474 715.886 281.239 710.515L273.356 723.296C282.908 729.97 294.349 733.4 305.994 733.079C327.753 733.079 340.367 722.822 340.367 708.463C340.367 694.104 330.434 688.266 314.036 685.899L306.152 684.795C299.057 683.848 293.38 682.428 293.38 677.378C293.38 672.329 298.741 668.542 307.729 668.542C316.035 668.639 324.179 670.866 331.38 675.012L338.633 661.757ZM777.832 653.867C769.688 653.628 762.065 657.866 757.966 664.913V655.761H741.725V731.185H758.123V688.897C758.123 676.432 763.484 669.489 773.891 669.489C777.398 669.441 780.88 670.084 784.139 671.382L789.185 655.603C785.44 654.262 781.495 653.569 777.517 653.552L777.832 653.867ZM566.55 693.315C566.155 704.033 570.292 714.421 577.945 721.929C585.597 729.437 596.057 733.37 606.757 732.763C616.602 733.265 626.278 730.056 633.877 723.769L625.993 710.515C620.324 714.841 613.412 717.22 606.284 717.3C593.715 716.282 584.033 705.777 584.033 693.158C584.033 680.538 593.715 670.033 606.284 669.015C613.412 669.095 620.324 671.474 625.993 675.8L633.877 662.546C626.278 656.259 616.602 653.05 606.757 653.552C596.057 652.945 585.597 656.878 577.945 664.387C570.292 671.895 566.155 682.282 566.55 693V693.315ZM720.124 693.315V655.761H703.726V664.913C698.076 657.638 689.275 653.528 680.075 653.867C658.305 653.867 640.656 671.529 640.656 693.315C640.656 715.102 658.305 732.763 680.075 732.763C689.275 733.103 698.076 728.993 703.726 721.718V730.87H720.124V693.315ZM659.104 693.315C659.833 680.934 670.318 671.407 682.703 671.872C695.088 672.337 704.83 682.624 704.63 695.025C704.429 707.427 694.36 717.393 681.967 717.458C675.656 717.537 669.599 714.976 665.258 710.392C660.917 705.808 658.686 699.617 659.104 693.315V693.315ZM461.224 653.867C439.454 654.172 422.053 672.081 422.357 693.868C422.662 715.654 440.557 733.068 462.328 732.763C473.67 733.346 484.825 729.691 493.626 722.507L485.742 710.357C479.517 715.353 471.805 718.13 463.825 718.246C452.555 719.217 442.56 711.033 441.278 699.785H497.252C497.252 697.734 497.252 695.682 497.252 693.473C497.252 669.804 482.589 654.025 461.46 654.025L461.224 653.867ZM461.224 668.542C466.18 668.436 470.974 670.306 474.552 673.739C478.131 677.171 480.199 681.886 480.302 686.846H440.884C441.478 676.312 450.372 668.182 460.909 668.542H461.224ZM872.043 693.473V625.465H856.275V664.913C850.626 657.638 841.824 653.528 832.624 653.867C810.854 653.867 793.206 671.529 793.206 693.315C793.206 715.102 810.854 732.763 832.624 732.763C841.824 733.103 850.626 728.993 856.275 721.718V730.87H872.043V693.473ZM899.399 720.219C900.424 720.206 901.441 720.394 902.395 720.771C903.3 721.141 904.129 721.676 904.839 722.349C905.531 723.029 906.093 723.832 906.494 724.716C907.301 726.578 907.301 728.692 906.494 730.554C906.093 731.438 905.531 732.241 904.839 732.921C904.129 733.594 903.3 734.129 902.395 734.499C901.451 734.916 900.431 735.131 899.399 735.13C896.348 735.107 893.585 733.325 892.304 730.554C891.506 728.69 891.506 726.58 892.304 724.716C892.705 723.832 893.266 723.029 893.959 722.349C894.669 721.676 895.498 721.141 896.403 720.771C897.43 720.362 898.531 720.174 899.635 720.219H899.399ZM899.399 733.552C900.186 733.557 900.965 733.396 901.685 733.079C902.363 732.776 902.979 732.348 903.498 731.817C905.543 729.585 905.543 726.159 903.498 723.927C902.98 723.395 902.364 722.966 901.685 722.665C900.964 722.35 900.186 722.189 899.399 722.191C898.613 722.195 897.836 722.356 897.113 722.665C896.404 722.955 895.761 723.384 895.221 723.927C893.176 726.159 893.176 729.585 895.221 731.817C895.762 732.358 896.405 732.786 897.113 733.079C897.908 733.422 898.77 733.584 899.635 733.552H899.399ZM899.872 724.164C900.608 724.128 901.333 724.351 901.922 724.795C902.411 725.2 902.675 725.817 902.631 726.452C902.654 726.982 902.454 727.497 902.079 727.872C901.622 728.287 901.04 728.537 900.424 728.582L902.71 731.185H900.897L898.768 728.582H898.059V731.185H896.561V724.243L899.872 724.164ZM898.138 725.505V727.398H899.872C900.181 727.49 900.509 727.49 900.818 727.398C900.93 727.175 900.93 726.912 900.818 726.688C900.93 726.465 900.93 726.202 900.818 725.978C900.509 725.886 900.181 725.886 899.872 725.978L898.138 725.505ZM811.417 693.473C812.146 681.092 822.631 671.565 835.016 672.03C847.401 672.495 857.142 682.782 856.942 695.183C856.742 707.584 846.673 717.551 834.28 717.615C827.969 717.695 821.912 715.134 817.571 710.55C813.229 705.965 810.999 699.775 811.417 693.473ZM257.746 693.473V655.761H241.348V664.913C235.699 657.638 226.897 653.528 217.697 653.867C195.927 653.867 178.279 671.529 178.279 693.315C178.279 715.102 195.927 732.763 217.697 732.763C226.897 733.103 235.699 728.993 241.348 721.718V730.87H257.746V693.473ZM196.726 693.473C197.456 681.092 207.94 671.565 220.325 672.03C232.71 672.495 242.452 682.782 242.252 695.183C242.051 707.584 231.982 717.551 219.589 717.615C213.251 717.74 207.152 715.198 202.776 710.609C198.4 706.019 196.148 699.803 196.569 693.473H196.726Z" fill="#231F20"/>
<path d="M335.592 61.1406H584.364V510.659H335.592V61.1406Z" fill="#FF5F00"/>
<path d="M351.39 285.935C351.297 198.204 391.341 115.305 459.978 61.1382C343.412 -30.9717 176.018 -17.5551 75.4362 91.9592C-25.1454 201.474 -25.1454 370.317 75.4362 479.832C176.018 589.346 343.412 602.762 459.978 510.652C391.363 456.503 351.321 373.638 351.39 285.935V285.935Z" fill="#EB001B"/>
<path d="M919.999 285.935C919.996 395.382 857.842 495.221 759.933 543.049C662.025 590.877 545.551 578.297 459.979 510.652C528.564 456.457 568.609 373.603 568.609 285.895C568.609 198.187 528.564 115.333 459.979 61.1379C545.551 -6.50676 662.025 -19.0865 759.933 28.7413C857.842 76.5692 919.996 176.408 919.999 285.855V285.935ZM892.832 463.009V453.798H896.544V451.892H887.146V453.798H891.173V463.009H892.832ZM911.075 463.009V451.892H908.232L904.915 459.833L901.598 451.892H899.071V463.009H901.124V454.671L904.204 461.897H906.336L909.416 454.671V463.088L911.075 463.009Z" fill="#F79E1B"/>
</svg>
