<?xml version="1.0" encoding="utf-8"?>
<!-- Generator: Adobe Illustrator 24.2.0, SVG Export Plug-In . SVG Version: 6.00 Build 0)  -->
<svg version="1.1" id="Layer_1" xmlns="http://www.w3.org/2000/svg" xmlns:xlink="http://www.w3.org/1999/xlink" x="0px" y="0px"
	 viewBox="0 0 623.489 623.489" enable-background="new 0 0 623.489 623.489" xml:space="preserve">
<path fill-rule="evenodd" clip-rule="evenodd" fill="#FE9196" d="M332.976,590.592L15.041,271.518
	c-29.892-29.999-12.695-81.249,29.244-87.146l520.567-73.183c41.298-5.81,71.942,37.407,52.803,74.458L415.019,577.907
	C399.035,608.847,357.555,615.26,332.976,590.592"/>
<path fill="#FF5A61" d="M239.476,29.007C193.82,3.201,138.065,39.67,143.411,91.839l7.938,77.483l269.393-37.873L239.476,29.007z
	 M577.363,336.58c28.72-26.544,32.073-68.116,13.16-98.409L505.262,403.22L577.363,336.58z M187.993,526.963
	c6.534,63.77,83.079,92.699,130.154,49.19l0.231-0.21L178.642,435.708L187.993,526.963z"/>
<path fill="#FA2F43" d="M530.255,354.84l60.268-116.669c-6.58-10.539-15.834-19.721-27.681-26.416l-142.099-80.306L151.35,169.322
	l27.293,266.386l139.735,140.235L505.262,403.22L530.255,354.84"/>
<path fill="#EE0033" d="M262.13,230.523h-5.407c-2.151,0-3.896,1.746-3.896,3.896v10.053c0-2.362,2.627-5.079,6.599-5.079h2.704
	c2.151,0,3.897-1.741,3.897-3.896v-1.077C266.027,232.269,264.281,230.523,262.13,230.523"/>
<path fill="#FFFEFF" d="M317.469,260.426c0,1.26-0.337,2.795-2.929,2.795h-18.774c-4.773,0-8.643,2.184-8.643,4.877v-4.877
	c0.112-3.155,0-5.777,2.708-8.211c3.611-3.251,9.026-3.16,12.523-3.16c3.723,0,8.009,0.183,11.281,2.169
	C315.549,255.188,317.469,257.444,317.469,260.426z M460.184,260.426c0,1.26-0.337,2.795-2.934,2.795h-18.773
	c-4.771,0-8.639,2.184-8.639,4.877v-4.877c0.111-3.155,0-5.777,2.703-8.211c3.612-3.251,9.028-3.16,12.525-3.16
	c3.723,0,8.008,0.183,11.284,2.169C458.265,255.188,460.184,257.444,460.184,260.426z M494.483,236.579
	c0-2.15-1.746-3.896-3.896-3.896h-5.406c-2.155,0-3.896,1.746-3.896,3.896v39.552c0,6.046,2.14,9.567,5.979,12.092
	c3.723,2.439,8.009,3.521,16.017,3.521h4.343c2.15,0,3.896-1.746,3.896-3.896v-4.228h-3.276c-2.366,0-7.33-0.091-10.264-2.073
	c-3.833-2.53-3.497-7.042-3.497-10.288V236.579z M409.983,283.62c-2.371,0-7.335-0.091-10.269-2.073
	c-3.834-2.53-3.497-7.042-3.497-10.288v-19.225h12.799c2.155,0,3.896-1.746,3.896-3.896v-4.228h-16.695v-7.33
	c0-2.15-1.746-3.896-3.896-3.896h-5.406c-2.15,0-3.896,1.746-3.896,3.896v7.33h-27.527v-7.33c0-2.15-1.746-3.896-3.896-3.896h-5.406
	c-2.15,0-3.896,1.746-3.896,3.896v7.33h-8.239v4.228c0,2.15,1.746,3.896,3.896,3.896h4.343v24.098c0,6.046,2.14,9.567,5.979,12.092
	c3.723,2.439,8.013,3.521,16.022,3.521h4.339c2.15,0,3.896-1.746,3.896-3.896v-4.228h-3.271c-2.371,0-7.335-0.091-10.269-2.073
	c-3.833-2.53-3.497-7.042-3.497-10.288v-19.225h27.527v24.098c0,6.046,2.14,9.567,5.979,12.092
	c3.723,2.439,8.009,3.521,16.022,3.521h4.339c2.15,0,3.891-1.746,3.891-3.896v-4.228H409.983z M329.205,287.848v-4.228h-29.22
	c-4.85,0-10.381-0.539-12.071-5.685c-0.453-1.443-0.79-4.512-0.79-6.59h34.747c2.371,0,4.627-0.361,6.431-1.804
	c2.482-1.987,2.823-4.786,2.823-7.22c0-6.046-1.472-12.006-8.465-15.526c-5.527-2.795-12.749-3.069-19.741-3.069
	c-5.642,0-15.794,0-22.337,4.517c-6.542,4.512-7.109,11.096-7.109,20.033c0,6.32,0.34,12.91,4.288,17.422
	c4.963,5.594,12.182,6.046,18.277,6.046h29.273C327.459,291.744,329.205,289.998,329.205,287.848z M471.915,287.848v-4.228h-29.22
	c-4.848,0-10.375-0.539-12.068-5.685c-0.452-1.443-0.789-4.512-0.789-6.59h34.747c2.367,0,4.622-0.361,6.431-1.804
	c2.482-1.987,2.819-4.786,2.819-7.22c0-6.046-1.467-12.006-8.461-15.526c-5.527-2.795-12.746-3.069-19.745-3.069
	c-5.642,0-15.791,0-22.332,4.517c-6.546,4.512-7.109,11.096-7.109,20.033c0,6.32,0.337,12.91,4.286,17.422
	c4.964,5.594,12.184,6.046,18.278,6.046h29.268C470.174,291.744,471.915,289.998,471.915,287.848z M262.13,243.909h-5.407
	c-2.151,0-3.896,1.741-3.896,3.896v40.043c0,2.155,1.745,3.896,3.896,3.896h5.407c2.151,0,3.897-1.741,3.897-3.896v-40.043
	C266.027,245.65,264.281,243.909,262.13,243.909z M242.684,243.909c-3.409,0-6.269,2.044-7.655,4.969l-14.359,30.5
	c-0.339,0.721-1.016,1.895-1.578,1.895c-0.566,0-1.242-1.174-1.581-1.895l-14.455-30.5c-1.387-2.924-4.247-4.969-7.656-4.969h-8.349
	l22.787,44.131c2.257,4.334,6.883,4.247,9.253,4.247c3.271,0,7.104-0.183,9.136-4.247l22.788-44.131H242.684z M278.664,365.559
	c-1.793,5.958-6.372,9.31-14.298,9.688c-7.746,0.369-15.536,0.187-23.307,0.242c-0.086,0-0.172-0.068-0.425-0.175v-1.179
	c0-12.138-0.001-24.278,0.001-36.416c0-3.123,1.229-4.067,5.31-4.072c4.716-0.008,9.433-0.058,14.146,0.022
	c2.346,0.038,4.729,0.16,7.019,0.53c6.387,1.027,10.044,4.286,11.481,9.066c0.588,1.954,0.987,3.969,1.107,5.969
	C280.027,354.696,280.287,360.171,278.664,365.559z M325.198,361.827c0.933-2.432,3.049-4.069,6.339-4.105
	c10.462-0.114,20.918-0.042,31.649-0.042v3.776c0,3.372,0.024,6.745-0.01,10.118c-0.029,2.954-1.38,3.99-5.176,3.995
	c-8.013,0.011-16.027,0.005-24.035,0.003c-5.907-0.003-8.451-1.634-9.288-6.137C324.203,366.888,324.246,364.321,325.198,361.827z
	 M381.181,342.162c-0.005-1.508-0.087-3.031-0.37-4.522c-0.871-4.613-3.28-8.612-8.273-11.444c-4.391-2.492-9.451-3.23-14.766-3.23
	c-14.786-0.003-29.567-0.001-44.348-0.001h-1.549c0,5.925,4.8,10.73,10.726,10.73c4.815,0,10.192,0,13.699,0.001
	c5.363,0.001,10.726-0.043,16.089,0.028c3.646,0.048,6.994,0.79,9.047,3.388c2.4,3.038,1.626,6.404,1.741,9.784h-2.054
	c-12.227,0.015-24.454-0.08-36.68,0.086c-6.869,0.092-12.155,2.594-15.406,7.388c-2.358,3.475-3.118,7.248-3.217,11.128
	c-0.109,4.331,0.282,8.597,2.485,12.66c2.436,4.494,7.923,8.068,16.076,7.945v0.034h45.752v-0.027
	c4.473-0.085,8.639-2.223,9.99-5.537c0.721-1.774,1.015-3.72,1.029-5.591C381.243,364.043,381.21,353.101,381.181,342.162z
	 M296.18,338.927c-2.352-6.32-6.972-11.206-15.016-13.837c-4.784-1.564-9.841-2.132-14.989-2.156
	c-9.937-0.048-19.875-0.025-29.811-0.007c-1.249,0.003-2.509,0.096-3.743,0.245c-5.111,0.617-8.523,3.025-9.555,6.89
	c-0.372,1.391-0.453,2.848-0.455,4.276c-0.029,16.762-0.019,33.522-0.019,50.282v21.882h2.917c8.3,0,15.029-6.729,15.029-15.03
	v-5.383c8.782,0.001,17.565,0,26.347-0.014c1.836-0.004,3.677-0.033,5.502-0.226c11.62-1.222,19.56-5.91,23.28-14.522
	c1.747-4.04,2.503-8.214,2.763-12.448C298.845,352.155,298.609,345.461,296.18,338.927z M384.572,322.799h18.797l26.243,48.688
	l20.942-36.438c4.353-7.578,12.424-12.25,21.168-12.25h4.257l-43.852,75.208c-3.126,5.36-8.865,8.654-15.065,8.654h-8.504
	l12.655-20.734L384.572,322.799z"/>
</svg>
