<svg width="922" height="295" viewBox="0 0 922 295" fill="none" xmlns="http://www.w3.org/2000/svg">
<path fill-rule="evenodd" clip-rule="evenodd" d="M456.45 5.21211L394.861 290.52H320.368L381.962 5.21211H456.45ZM769.845 189.444L809.061 82.2959L831.618 189.444H769.845ZM853 290.52H921.875L861.696 5.21211H798.16C783.834 5.21211 771.77 13.4406 766.425 26.1271L654.647 290.52H732.883L748.412 247.914H843.968L853 290.52ZM658.53 197.378C658.855 122.085 553.483 117.91 554.183 84.2643C554.412 74.0397 564.25 63.1553 585.772 60.3718C596.438 59.0078 625.872 57.9043 659.241 73.1359L672.291 12.6089C654.361 6.188 631.3 0 602.61 0C528.967 0 477.16 38.7582 476.746 94.306C476.276 135.382 513.758 158.287 541.933 171.966C570.982 185.945 580.719 194.916 580.579 207.409C580.377 226.549 557.406 235.027 536.029 235.343C498.553 235.926 476.836 225.313 459.522 217.312L446.002 279.863C463.433 287.764 495.56 294.651 528.816 295C607.103 295 658.301 256.697 658.53 197.378ZM350.009 5.21211L229.31 290.52H150.576L91.1746 62.8226C87.5764 48.8275 84.4371 43.6764 73.4859 37.7656C55.5733 28.1177 25.9987 19.1018 0 13.496L1.75712 5.21211H128.516C144.666 5.21211 159.188 15.8581 162.881 34.289L194.257 199.397L271.75 5.21211H350.009Z" fill="#182E66"/>
</svg>
